<svg id="Layer_1" xmlns="http://www.w3.org/2000/svg" viewBox="0 0 2065.8 391.7"><style>.st0{fill:#004a8f}.st1{fill:#ffcb0a}</style><path class="st0" d="M104.7 15.9c40.5 0 68.5 4.3 95 27.5 29.1 25.9 36.7 61 36.7 86.9 0 14-2.2 52.9-29.7 80.4-20 20-49.7 31.8-91.2 31.8H72v133.3H0v-360h104.7zM72 182.1h26.8c13.5 0 30.8 0 45.9-11.3 13-10.3 19.4-26.5 19.4-42.1 0-20-9.7-33.5-20-41-14.6-10.3-32.9-11.3-49.7-11.3H72v105.7zM412.6 15.9c49.7 0 75 12.9 91.8 27 27.5 23.2 35.6 54 35.6 81 0 35.1-14 65.8-42.1 84.7-9.2 6.5-22.1 12.4-39.4 15.7L570.8 376h-87.4l-96.1-144h-6.8v144h-72V16h104.1zm-32.2 165.7h18.1c13.5 0 69.1-1.6 69.1-54.5 0-53.4-55.1-54-68-54h-19.2v108.5zM1236.5 97.9c-21.1-28.1-45.9-30.8-58.8-30.8-37.8 0-49.7 23.7-49.7 42.1 0 8.6 2.7 16.7 11.3 24.3 8.6 8.1 20.5 12.4 43.2 20.5 28.1 9.7 54.5 19.4 72.9 36.2 16.2 14.6 30.8 38.9 30.8 75.6 0 70.2-50.7 118.2-125.2 118.2-66.4 0-105.2-40.5-124.1-68l45.9-43.7c17.3 35.1 50.2 48 75.6 48 31.8 0 55.6-19.4 55.6-49.7 0-12.9-4.3-23.2-14-32.4-13.5-12.4-35.1-19.4-55.6-26.4-18.9-6.5-41.6-15.1-59.9-31.3-11.9-10.3-28.6-30.2-28.6-66.9 0-52.9 35.6-105.8 115.5-105.8 22.7 0 65.3 4.3 102 42.1l-36.9 48zM1509 79.2v296.7h-72v-297h-79.7v-63h232.1v63.3H1509zM1732.4 15.9v360h-72v-360h72zM1907.6 15.9c49.7 0 75 12.9 91.8 27 27.5 23.2 35.6 54 35.6 81 0 35.1-14 65.8-42.1 84.7-9.2 6.5-22.1 12.4-39.4 15.7L2065.8 376h-87.4l-96.1-144.7h-6.8V376h-72V16h104.1zm-32.1 165.7h18.1c13.5 0 69.1-1.6 69.1-54.5 0-53.4-55.1-54-68-54h-19.2v108.5z"/><path class="st1" d="M771.8 196.3v-.5c0-20.1 16.3-36.4 36.4-36.4 20.1 0 36.4 16.3 36.4 36.4 0 20-16.2 36.3-36.2 36.4v49.1c47.1-.1 85.3-38.4 85.3-85.5 0-47.2-38.3-85.5-85.5-85.5s-85.5 38.3-85.5 85.5v.5h49.1z"/><path class="st0" d="M934.2 134c9.1 18.7 14.3 39.6 14.3 61.8 0 77.6-62.9 140.6-140.6 140.6-77.6 0-140.6-63-140.6-140.6 0-74.8 58.5-136 132.3-140.3l35-53.7C825.9.7 817 0 807.9 0 699.8 0 612.1 87.7 612.1 195.9S699.8 391.8 808 391.8s195.9-87.7 195.9-195.9c0-42.2-13.4-81.2-36.1-113.2L934.2 134z"/></svg>