<?xml version="1.0" encoding="utf-8"?>
<!-- Generator: Adobe Illustrator 21.0.0, SVG Export Plug-In . SVG Version: 6.00 Build 0)  -->
<svg version="1.1" id="Слой_1" xmlns="http://www.w3.org/2000/svg" xmlns:xlink="http://www.w3.org/1999/xlink" x="0px" y="0px"
	 viewBox="0 0 16 16" style="enable-background:new 0 0 16 16;" xml:space="preserve">
<style type="text/css">
	.st0{clip-path:url(#SVGID_2_);}
	.st1{clip-path:url(#SVGID_4_);fill:#78D53F;}
	.st2{clip-path:url(#SVGID_6_);}
	.st3{clip-path:url(#SVGID_8_);fill:#FFFFFF;}
</style>
<g>
	<defs>
		<circle id="SVGID_1_" cx="8" cy="8" r="8"/>
	</defs>
	<clipPath id="SVGID_2_">
		<use xlink:href="#SVGID_1_"  style="overflow:visible;"/>
	</clipPath>
	<g class="st0">
		<defs>
			<rect id="SVGID_3_" x="-4.8" y="-4.8" width="25.6" height="25.6"/>
		</defs>
		<clipPath id="SVGID_4_">
			<use xlink:href="#SVGID_3_"  style="overflow:visible;"/>
		</clipPath>
		<rect x="-4" y="-4" class="st1" width="24" height="24"/>
	</g>
</g>
<g>
	<defs>
		<path id="SVGID_5_" d="M7.2,7.2H5.4C5,7.2,4.8,7.5,4.8,7.8v0.5c0,0.3,0.3,0.6,0.6,0.6h1.8v1.8c0,0.3,0.3,0.6,0.6,0.6h0.5
			c0.3,0,0.6-0.3,0.6-0.6V8.8h1.8c0.3,0,0.6-0.3,0.6-0.6V7.8c0-0.3-0.3-0.6-0.6-0.6H8.8V5.4c0-0.3-0.3-0.6-0.6-0.6H7.8
			c-0.3,0-0.6,0.3-0.6,0.6V7.2z"/>
	</defs>
	<clipPath id="SVGID_6_">
		<use xlink:href="#SVGID_5_"  style="overflow:visible;"/>
	</clipPath>
	<g class="st2">
		<defs>
			<rect id="SVGID_7_" x="-4.8" y="-4.8" width="25.6" height="25.6"/>
		</defs>
		<clipPath id="SVGID_8_">
			<use xlink:href="#SVGID_7_"  style="overflow:visible;"/>
		</clipPath>
		<rect x="0.8" y="0.8" class="st3" width="14.4" height="14.4"/>
	</g>
</g>
</svg>
