<?xml version="1.0" encoding="utf-8"?>
<!-- Generator: Adobe Illustrator 21.0.0, SVG Export Plug-In . SVG Version: 6.00 Build 0)  -->
<svg version="1.1" id="Слой_1" xmlns="http://www.w3.org/2000/svg" xmlns:xlink="http://www.w3.org/1999/xlink" x="0px" y="0px"
	 viewBox="0 0 17.5 17.5" style="enable-background:new 0 0 17.5 17.5;" xml:space="preserve">
<style type="text/css">
	.st0{fill:#FFFFFF;stroke:#F04D23;stroke-width:1.5;stroke-miterlimit:10;}
	.st1{fill:#F04D23;}
	.st2{fill:#FFFFFF;}
</style>
<path class="st0" d="M8.7,0.8c-4.4,0-8,3.6-8,8c0,4.4,3.6,8,8,8c4.4,0,8-3.6,8-8C16.8,4.3,13.2,0.8,8.7,0.8L8.7,0.8z"/>
<path class="st1" d="M8.7,0.8c-4.4,0-8,3.6-8,8c0,4.4,3.6,8,8,8c4.4,0,8-3.6,8-8C16.8,4.3,13.2,0.8,8.7,0.8L8.7,0.8z"/>
<path class="st2" d="M5.8,12.1l-0.4-0.4c-0.2-0.2-0.2-0.5,0-0.7L11,5.4c0.2-0.2,0.5-0.2,0.7,0l0.4,0.4c0.2,0.2,0.2,0.5,0,0.7
	l-5.6,5.6C6.3,12.3,6,12.3,5.8,12.1z"/>
<path class="st2" d="M5.4,5.8l0.4-0.4c0.2-0.2,0.5-0.2,0.7,0l5.6,5.6c0.2,0.2,0.2,0.5,0,0.7l-0.4,0.4c-0.2,0.2-0.5,0.2-0.7,0
	L5.4,6.5C5.2,6.3,5.2,6,5.4,5.8z"/>
</svg>
