<?xml version="1.0" encoding="utf-8"?>
<!-- Generator: Adobe Illustrator 21.0.0, SVG Export Plug-In . SVG Version: 6.00 Build 0)  -->
<svg version="1.1" id="Слой_1" xmlns="http://www.w3.org/2000/svg" xmlns:xlink="http://www.w3.org/1999/xlink" x="0px" y="0px"
	 viewBox="0 0 21.5 21.5" enable-background="new 0 0 21.5 21.5" xml:space="preserve">
<path fill="#FFFFFF" stroke="#F7A71B" stroke-width="1.5" stroke-miterlimit="10" d="M10.7,0.8c-5.5,0-10,4.5-10,10
	c0,5.5,4.5,10,10,10c5.5,0,10-4.5,10-10C20.8,5.2,16.3,0.8,10.7,0.8L10.7,0.8z"/>
<path fill="#F7A71B" d="M10.7,0.8c-5.5,0-10,4.5-10,10c0,5.5,4.5,10,10,10c5.5,0,10-4.5,10-10C20.8,5.2,16.3,0.8,10.7,0.8L10.7,0.8z
	"/>
<path fill="#FFFFFF" d="M12.8,16.2c-0.5,0.2-0.9,0.4-1.2,0.5c-0.3,0.1-0.7,0.2-1.1,0.2c-0.6,0-1.1-0.2-1.5-0.5
	c-0.3-0.3-0.5-0.7-0.5-1.2c0-0.2,0-0.4,0-0.6c0-0.2,0.1-0.4,0.1-0.6l0.6-2.3c0.1-0.2,0.1-0.4,0.1-0.6c0-0.2,0.1-0.4,0.1-0.5
	c0-0.3-0.1-0.5-0.2-0.6C9.3,9.9,9,9.9,8.7,9.9c-0.2,0-0.3,0-0.5,0.1C8,10,7.9,10,7.7,10.1l0.2-0.7c0.4-0.2,0.8-0.3,1.2-0.4
	c0.4-0.1,0.7-0.2,1.1-0.2c0.6,0,1.1,0.2,1.4,0.5c0.3,0.3,0.5,0.7,0.5,1.2c0,0.1,0,0.3,0,0.5c0,0.3-0.1,0.5-0.1,0.7l-0.6,2.3
	c-0.1,0.2-0.1,0.4-0.1,0.6c0,0.2-0.1,0.4-0.1,0.5c0,0.3,0.1,0.5,0.2,0.6c0.1,0.1,0.4,0.2,0.7,0.2c0.2,0,0.3,0,0.5-0.1
	c0.2-0.1,0.3-0.1,0.4-0.1L12.8,16.2z"/>
<path fill="#FFFFFF" d="M12.7,7c-0.3,0.3-0.7,0.4-1.1,0.4c-0.4,0-0.8-0.1-1.1-0.4c-0.3-0.3-0.5-0.6-0.5-1c0-0.4,0.2-0.7,0.5-1
	c0.3-0.3,0.7-0.4,1.1-0.4c0.4,0,0.8,0.1,1.1,0.4c0.3,0.3,0.4,0.6,0.4,1C13.2,6.4,13,6.8,12.7,7L12.7,7z"/>
<path d="M12.7,7"/>
</svg>
