<?xml version="1.0" encoding="utf-8"?>
<!-- Generator: Adobe Illustrator 21.0.0, SVG Export Plug-In . SVG Version: 6.00 Build 0)  -->
<svg version="1.1" id="Слой_1" xmlns="http://www.w3.org/2000/svg" xmlns:xlink="http://www.w3.org/1999/xlink" x="0px" y="0px"
	 viewBox="0 0 17.5 17.5" style="enable-background:new 0 0 17.5 17.5;" xml:space="preserve">
<style type="text/css">
	.st0{fill:#FFFFFF;stroke:#C7CFD6;stroke-width:1.5;stroke-miterlimit:10;}
	.st1{fill:#C7CFD6;}
	.st2{fill:#FFFFFF;}
</style>
<path class="st0" d="M8.7,0.8c-4.4,0-8,3.6-8,8c0,4.4,3.6,8,8,8c4.4,0,8-3.6,8-8C16.8,4.3,13.2,0.8,8.7,0.8L8.7,0.8z"/>
<path class="st1" d="M8.7,0.8c-4.4,0-8,3.6-8,8c0,4.4,3.6,8,8,8c4.4,0,8-3.6,8-8C16.8,4.3,13.2,0.8,8.7,0.8L8.7,0.8z"/>
<path class="st2" d="M10.4,13.1c-0.4,0.2-0.7,0.3-1,0.4c-0.2,0.1-0.5,0.1-0.9,0.1c-0.5,0-0.9-0.1-1.2-0.4C7.1,13,7,12.7,7,12.4
	c0-0.1,0-0.3,0-0.4c0-0.2,0.1-0.3,0.1-0.5l0.5-1.8c0-0.2,0.1-0.3,0.1-0.5c0-0.2,0-0.3,0-0.4c0-0.2,0-0.4-0.1-0.5
	C7.6,8.1,7.4,8,7.1,8C7,8,6.8,8.1,6.7,8.1c-0.1,0-0.3,0.1-0.4,0.1l0.1-0.6c0.3-0.1,0.7-0.3,1-0.4C7.8,7.2,8,7.1,8.3,7.1
	c0.5,0,0.9,0.1,1.1,0.4c0.3,0.2,0.4,0.5,0.4,0.9c0,0.1,0,0.2,0,0.4c0,0.2-0.1,0.4-0.1,0.5l-0.5,1.8c0,0.1-0.1,0.3-0.1,0.5
	c0,0.2,0,0.3,0,0.4c0,0.2,0.1,0.4,0.2,0.5c0.1,0.1,0.3,0.1,0.6,0.1c0.1,0,0.3,0,0.4-0.1c0.2,0,0.3-0.1,0.3-0.1L10.4,13.1z"/>
<path class="st2" d="M10.3,5.8C10.1,6,9.8,6.1,9.5,6.1C9.1,6.1,8.8,6,8.6,5.8C8.4,5.6,8.2,5.3,8.2,5c0-0.3,0.1-0.6,0.4-0.8
	c0.2-0.2,0.5-0.3,0.9-0.3c0.3,0,0.6,0.1,0.9,0.3c0.2,0.2,0.4,0.5,0.4,0.8C10.7,5.3,10.6,5.6,10.3,5.8L10.3,5.8z"/>
<path d="M10.3,5.8"/>
</svg>
