<?xml version="1.0" encoding="utf-8"?>
<!-- Generator: Adobe Illustrator 21.0.0, SVG Export Plug-In . SVG Version: 6.00 Build 0)  -->
<svg version="1.1" id="Слой_1" xmlns="http://www.w3.org/2000/svg" xmlns:xlink="http://www.w3.org/1999/xlink" x="0px" y="0px"
	 viewBox="0 0 300 205" style="enable-background:new 0 0 300 205;" xml:space="preserve">
<style type="text/css">
	.st0{fill:#DFF1FF;}
	.st1{opacity:0.5;fill:#4B4E56;}
	.st2{fill:#FFFFFF;stroke:#E5E6EA;stroke-width:0.25;stroke-miterlimit:10;}
	.st3{fill:#4B4E56;}
	.st4{opacity:0.7;}
	.st5{fill:#FFFFFF;}
	.st6{fill:#FFFFFF;stroke:#F7F8FC;stroke-miterlimit:10;}
	.st7{fill:#E0E0E0;}
	.st8{fill:#FFE9CA;stroke:#FFFFFF;stroke-width:0.25;stroke-miterlimit:10;}
	.st9{clip-path:url(#SVGID_2_);}
	.st10{fill:none;}
	.st11{fill:#FFE9CA;}
	.st12{fill:none;stroke:#FFBE55;stroke-width:2;stroke-linecap:round;stroke-miterlimit:10;}
	.st13{fill:#FFBE55;}
</style>
<path class="st0" d="M3.7,12.4h200.1c0.7,0,1.4-0.4,1.8-1l4.8-9.1c1.5-2.2,4.8-2.3,6.3-0.1l5,9.2c0.4,0.6,1.1,0.9,1.8,0.9h72.8
	c2,0,3.7,1.6,3.7,3.7v185.3c0,2-1.6,3.7-3.7,3.7H3.7c-2,0-3.7-1.6-3.7-3.7V16C0,14,1.6,12.4,3.7,12.4z"/>
<g>
	<g>
		<path class="st1" d="M16.9,192.6h218.7c2.1,0,3.8-1.7,3.8-3.8V64.3c0-2.1-1.7-3.8-3.8-3.8H16.9c-2.1,0-3.8,1.7-3.8,3.8v124.6
			C13.2,191,14.9,192.6,16.9,192.6z"/>
		<path class="st2" d="M202.4,137H29.9c-1.4,0-2.5-1.1-2.5-2.5v-22.1c0-1.4,1.1-2.5,2.5-2.5h172.5c1.4,0,2.5,1.1,2.5,2.5v22.1
			C204.9,135.9,203.8,137,202.4,137z"/>
		<path class="st2" d="M109.3,175.3H29.9c-1.4,0-2.5-1.1-2.5-2.5v-22.1c0-1.4,1.1-2.5,2.5-2.5h79.4c1.4,0,2.5,1.1,2.5,2.5v22.1
			C111.8,174.2,110.7,175.3,109.3,175.3z"/>
		<g>
			<path class="st3" d="M40.6,158.8l2.3,5.7l2.3-5.7h1.2v7h-0.9v-2.7l0.1-2.9l-2.3,5.6h-0.7l-2.3-5.6l0.1,2.9v2.7h-0.9v-7H40.6z"/>
			<path class="st3" d="M49.2,158.8l2.3,5.7l2.3-5.7h1.2v7H54v-2.7l0.1-2.9l-2.3,5.6h-0.7l-2.3-5.6l0.1,2.9v2.7H48v-7H49.2z"/>
			<path class="st3" d="M56.6,166.4h-0.8l2.9-7.6h0.8L56.6,166.4z"/>
			<path class="st3" d="M62.7,162.3l1.8-3.5h1l-2.4,4.4v2.6h-0.9v-2.6l-2.4-4.4h1.1L62.7,162.3z"/>
			<path class="st3" d="M68.6,162.3l1.8-3.5h1l-2.4,4.4v2.6h-0.9v-2.6l-2.4-4.4h1.1L68.6,162.3z"/>
		</g>
		<g>
			<path class="st3" d="M41,122.3l1.1-1.9h1l-1.7,2.6l1.7,2.6h-1l-1.2-1.9l-1.2,1.9h-1l1.7-2.6l-1.7-2.6h1L41,122.3z"/>
			<path class="st3" d="M45.9,122.3l1.1-1.9h1l-1.7,2.6l1.7,2.6h-1l-1.2-1.9l-1.2,1.9h-1l1.7-2.6l-1.7-2.6h1L45.9,122.3z"/>
			<path class="st3" d="M50.7,122.3l1.1-1.9h1l-1.7,2.6l1.7,2.6h-1l-1.2-1.9l-1.2,1.9h-1l1.7-2.6l-1.7-2.6h1L50.7,122.3z"/>
			<path class="st3" d="M55.6,122.3l1.1-1.9h1l-1.7,2.6l1.7,2.6h-1l-1.2-1.9l-1.2,1.9h-1l1.7-2.6l-1.7-2.6h1L55.6,122.3z"/>
			<path class="st3" d="M65.3,122.3l1.1-1.9h1l-1.7,2.6l1.7,2.6h-1l-1.2-1.9l-1.2,1.9h-1l1.7-2.6l-1.7-2.6h1L65.3,122.3z"/>
			<path class="st3" d="M70.1,122.3l1.1-1.9h1l-1.7,2.6l1.7,2.6h-1l-1.2-1.9l-1.2,1.9h-1l1.7-2.6l-1.7-2.6h1L70.1,122.3z"/>
			<path class="st3" d="M75,122.3l1.1-1.9h1l-1.7,2.6l1.7,2.6h-1l-1.2-1.9l-1.2,1.9h-1l1.7-2.6l-1.7-2.6h1L75,122.3z"/>
			<path class="st3" d="M79.8,122.3l1.1-1.9h1l-1.7,2.6l1.7,2.6h-1l-1.2-1.9l-1.2,1.9h-1l1.7-2.6l-1.7-2.6h1L79.8,122.3z"/>
			<path class="st3" d="M89.5,122.3l1.1-1.9h1L90,123l1.7,2.6h-1l-1.2-1.9l-1.2,1.9h-1L89,123l-1.7-2.6h1L89.5,122.3z"/>
			<path class="st3" d="M94.4,122.3l1.1-1.9h1l-1.7,2.6l1.7,2.6h-1l-1.2-1.9l-1.2,1.9h-1l1.7-2.6l-1.7-2.6h1L94.4,122.3z"/>
			<path class="st3" d="M99.2,122.3l1.1-1.9h1l-1.7,2.6l1.7,2.6h-1l-1.2-1.9l-1.2,1.9h-1l1.7-2.6l-1.7-2.6h1L99.2,122.3z"/>
			<path class="st3" d="M104.1,122.3l1.1-1.9h1l-1.7,2.6l1.7,2.6h-1l-1.2-1.9l-1.2,1.9h-1l1.7-2.6l-1.7-2.6h1L104.1,122.3z"/>
			<path class="st3" d="M113.7,122.3l1.1-1.9h1l-1.7,2.6l1.7,2.6h-1l-1.2-1.9l-1.2,1.9h-1l1.7-2.6l-1.7-2.6h1L113.7,122.3z"/>
			<path class="st3" d="M118.6,122.3l1.1-1.9h1l-1.7,2.6l1.7,2.6h-1l-1.2-1.9l-1.2,1.9h-1l1.7-2.6l-1.7-2.6h1L118.6,122.3z"/>
			<path class="st3" d="M123.4,122.3l1.1-1.9h1l-1.7,2.6l1.7,2.6h-1l-1.2-1.9l-1.2,1.9h-1l1.7-2.6l-1.7-2.6h1L123.4,122.3z"/>
			<path class="st3" d="M128.3,122.3l1.1-1.9h1l-1.7,2.6l1.7,2.6h-1l-1.2-1.9l-1.2,1.9h-1l1.7-2.6l-1.7-2.6h1L128.3,122.3z"/>
		</g>
	</g>
	<g class="st4">
		<path class="st5" d="M29.6,94l0.2,0.5l0.2-0.5l2.7-7.2h0.3l-3,8h-0.4l-3-8h0.3L29.6,94z"/>
		<path class="st5" d="M34.7,94.8h-0.3v-8h0.3V94.8z"/>
		<path class="st5" d="M41.9,92.9c0-0.3-0.1-0.6-0.2-0.9c-0.2-0.2-0.4-0.4-0.7-0.6c-0.3-0.2-0.9-0.4-1.5-0.6
			c-0.7-0.2-1.2-0.4-1.6-0.6c-0.3-0.2-0.6-0.4-0.8-0.7c-0.2-0.3-0.2-0.6-0.2-0.9c0-0.6,0.2-1,0.7-1.4c0.5-0.4,1.1-0.5,1.9-0.5
			c0.5,0,1,0.1,1.4,0.3c0.4,0.2,0.7,0.5,0.9,0.8c0.2,0.4,0.3,0.8,0.3,1.2h-0.3c0-0.6-0.2-1.1-0.7-1.5c-0.4-0.4-1-0.6-1.7-0.6
			c-0.7,0-1.3,0.2-1.7,0.5c-0.4,0.3-0.6,0.7-0.6,1.2c0,0.5,0.2,0.9,0.6,1.2c0.4,0.3,1,0.5,1.9,0.8c0.9,0.2,1.5,0.5,1.9,0.8
			c0.5,0.4,0.8,0.9,0.8,1.5c0,0.4-0.1,0.8-0.3,1.1c-0.2,0.3-0.5,0.5-1,0.7c-0.4,0.2-0.9,0.3-1.4,0.3c-0.6,0-1.1-0.1-1.6-0.3
			c-0.5-0.2-0.8-0.5-1-0.8c-0.2-0.4-0.3-0.8-0.3-1.3h0.3c0,0.7,0.2,1.2,0.7,1.5c0.5,0.4,1.1,0.5,1.9,0.5c0.7,0,1.3-0.2,1.7-0.5
			C41.6,93.8,41.9,93.4,41.9,92.9z"/>
		<path class="st5" d="M47.9,92.4H44l-0.9,2.4h-0.3l3-8h0.4l3,8h-0.3L47.9,92.4z M44.1,92.1h3.7L46,87.2L44.1,92.1z"/>
		<path class="st5" d="M49.9,95.5h-0.3l3.3-8.6h0.3L49.9,95.5z"/>
		<path class="st5" d="M55.1,86.8l3.3,7.5l3.3-7.5h0.4v8h-0.3v-7.5l-3.3,7.5h-0.2L55,87.3v7.5h-0.3v-8H55.1z"/>
		<path class="st5" d="M68.5,92.4h-3.9l-0.9,2.4h-0.3l3-8h0.4l3,8h-0.3L68.5,92.4z M64.7,92.1h3.7l-1.8-4.9L64.7,92.1z"/>
		<path class="st5" d="M75.7,92.9c0-0.3-0.1-0.6-0.2-0.9c-0.2-0.2-0.4-0.4-0.7-0.6c-0.3-0.2-0.9-0.4-1.5-0.6
			c-0.7-0.2-1.2-0.4-1.6-0.6c-0.3-0.2-0.6-0.4-0.8-0.7c-0.2-0.3-0.2-0.6-0.2-0.9c0-0.6,0.2-1,0.7-1.4c0.5-0.4,1.1-0.5,1.9-0.5
			c0.5,0,1,0.1,1.4,0.3c0.4,0.2,0.7,0.5,0.9,0.8c0.2,0.4,0.3,0.8,0.3,1.2h-0.3c0-0.6-0.2-1.1-0.7-1.5c-0.4-0.4-1-0.6-1.7-0.6
			c-0.7,0-1.3,0.2-1.7,0.5c-0.4,0.3-0.6,0.7-0.6,1.2c0,0.5,0.2,0.9,0.6,1.2c0.4,0.3,1,0.5,1.9,0.8c0.9,0.2,1.5,0.5,1.9,0.8
			c0.5,0.4,0.8,0.9,0.8,1.5c0,0.4-0.1,0.8-0.3,1.1c-0.2,0.3-0.5,0.5-1,0.7c-0.4,0.2-0.9,0.3-1.4,0.3c-0.6,0-1.1-0.1-1.6-0.3
			c-0.5-0.2-0.8-0.5-1-0.8c-0.2-0.4-0.3-0.8-0.3-1.3h0.3c0,0.7,0.2,1.2,0.7,1.5c0.5,0.4,1.1,0.5,1.9,0.5c0.7,0,1.3-0.2,1.7-0.5
			C75.5,93.8,75.7,93.4,75.7,92.9z"/>
		<path class="st5" d="M82.9,87.1H80v7.7h-0.3v-7.7h-2.9v-0.3h6.1V87.1z"/>
		<path class="st5" d="M88.6,90.8h-4v3.7h4.5v0.3h-4.8v-8h4.8v0.3h-4.5v3.4h4V90.8z"/>
		<path class="st5" d="M93.7,91.4h-2.8v3.4h-0.3v-8h2.5c0.8,0,1.4,0.2,1.9,0.6c0.5,0.4,0.7,1,0.7,1.7c0,0.5-0.2,1-0.5,1.4
			c-0.3,0.4-0.8,0.7-1.3,0.8l2.1,3.4v0.1h-0.3L93.7,91.4z M90.9,91.1h2.5c0.6,0,1.1-0.2,1.5-0.6c0.4-0.4,0.6-0.8,0.6-1.4
			c0-0.6-0.2-1.1-0.6-1.5c-0.4-0.4-1-0.5-1.7-0.5h-2.2V91.1z"/>
		<path class="st5" d="M103.4,92.3c-0.1,0.8-0.4,1.4-0.8,1.9c-0.5,0.4-1.2,0.7-2,0.7c-0.6,0-1.1-0.1-1.5-0.4c-0.4-0.3-0.8-0.7-1-1.2
			c-0.2-0.5-0.4-1.1-0.4-1.8v-1.2c0-0.7,0.1-1.3,0.4-1.8c0.2-0.5,0.6-0.9,1-1.2c0.4-0.3,0.9-0.4,1.5-0.4c0.8,0,1.5,0.2,2,0.7
			s0.8,1.1,0.9,1.9h-0.3c-0.1-0.7-0.3-1.3-0.8-1.7c-0.4-0.4-1-0.6-1.8-0.6c-0.8,0-1.4,0.3-1.9,0.9c-0.5,0.6-0.7,1.4-0.7,2.3v1.2
			c0,0.6,0.1,1.2,0.3,1.7s0.5,0.9,0.9,1.1c0.4,0.3,0.8,0.4,1.4,0.4c0.8,0,1.4-0.2,1.8-0.6c0.4-0.4,0.7-0.9,0.8-1.7H103.4z"/>
		<path class="st5" d="M109.4,92.4h-3.9l-0.9,2.4h-0.3l3-8h0.4l3,8h-0.3L109.4,92.4z M105.6,92.1h3.7l-1.8-4.9L105.6,92.1z"/>
		<path class="st5" d="M115,91.4h-2.8v3.4h-0.3v-8h2.5c0.8,0,1.4,0.2,1.9,0.6c0.5,0.4,0.7,1,0.7,1.7c0,0.5-0.2,1-0.5,1.4
			c-0.3,0.4-0.8,0.7-1.3,0.8l2.1,3.4v0.1h-0.3L115,91.4z M112.2,91.1h2.5c0.6,0,1.1-0.2,1.5-0.6c0.4-0.4,0.6-0.8,0.6-1.4
			c0-0.6-0.2-1.1-0.6-1.5c-0.4-0.4-1-0.5-1.7-0.5h-2.2V91.1z"/>
		<path class="st5" d="M119.3,94.8v-8h2.2c0.6,0,1.2,0.1,1.7,0.4s0.9,0.7,1.2,1.2c0.3,0.5,0.4,1.1,0.4,1.8v1c0,0.7-0.1,1.3-0.4,1.8
			c-0.3,0.5-0.7,0.9-1.2,1.2c-0.5,0.3-1.1,0.5-1.7,0.5H119.3z M119.5,87.1v7.4h1.9c0.6,0,1.1-0.1,1.5-0.4c0.5-0.3,0.8-0.7,1.1-1.1
			c0.3-0.5,0.4-1,0.4-1.6v-1c0-0.6-0.1-1.1-0.4-1.6c-0.3-0.5-0.6-0.9-1.1-1.1c-0.5-0.3-1-0.4-1.5-0.4H119.5z"/>
	</g>
	<path class="st6" d="M81.5,193.1h202.9c2.8,0,5-2.3,5-5v-122c0-2.8-2.3-5-5-5H81.5c-2.8,0-5,2.3-5,5v122
		C76.4,190.8,78.7,193.1,81.5,193.1z"/>
	<path class="st7" d="M77.7,100.9h210.4c0.7,0,1.3-0.6,1.3-1.3V80.8c0-0.7-0.6-1.3-1.3-1.3H77.7c-0.7,0-1.3,0.6-1.3,1.3v18.8
		C76.4,100.3,77,100.9,77.7,100.9z"/>
	<path class="st8" d="M279.3,147.5h-189c-0.7,0-1.3-0.6-1.3-1.3v-20.5c0-0.7,0.6-1.3,1.3-1.3h189c0.7,0,1.3,0.6,1.3,1.3v20.5
		C280.6,146.9,280.1,147.5,279.3,147.5z"/>
	<g>
		<defs>
			<path id="SVGID_1_" d="M279.3,147.5h-189c-0.7,0-1.3-0.6-1.3-1.3v-20.5c0-0.7,0.6-1.3,1.3-1.3h189c0.7,0,1.3,0.6,1.3,1.3v20.5
				C280.6,146.9,280.1,147.5,279.3,147.5z"/>
		</defs>
		<clipPath id="SVGID_2_">
			<use xlink:href="#SVGID_1_"  style="overflow:visible;"/>
		</clipPath>
		<g class="st9">
			<g>
				
					<rect x="28.2" y="96.7" transform="matrix(0.9063 0.4226 -0.4226 0.9063 59.3518 -0.1017)" class="st5" width="3.4" height="74.2"/>
				
					<rect x="37.5" y="96.7" transform="matrix(0.9063 0.4226 -0.4226 0.9063 60.2211 -4.023)" class="st5" width="3.4" height="74.2"/>
				
					<rect x="46.8" y="96.7" transform="matrix(0.9063 0.4226 -0.4226 0.9063 61.0904 -7.9444)" class="st5" width="3.4" height="74.2"/>
				
					<rect x="56.1" y="96.7" transform="matrix(0.9063 0.4226 -0.4226 0.9063 61.9598 -11.8657)" class="st5" width="3.4" height="74.2"/>
				
					<rect x="65.3" y="96.7" transform="matrix(0.9063 0.4226 -0.4226 0.9063 62.8291 -15.787)" class="st5" width="3.4" height="74.2"/>
				
					<rect x="74.6" y="96.7" transform="matrix(0.9063 0.4226 -0.4226 0.9063 63.6984 -19.7083)" class="st5" width="3.4" height="74.2"/>
				
					<rect x="18.9" y="96.7" transform="matrix(0.9063 0.4226 -0.4226 0.9063 58.4824 3.8196)" class="st5" width="3.4" height="74.2"/>
				
					<rect x="83.9" y="96.7" transform="matrix(0.9063 0.4226 -0.4226 0.9063 64.5678 -23.6297)" class="st5" width="3.4" height="74.2"/>
				
					<rect x="93.2" y="96.7" transform="matrix(0.9063 0.4226 -0.4226 0.9063 65.4371 -27.551)" class="st5" width="3.4" height="74.2"/>
				
					<rect x="102.5" y="96.7" transform="matrix(0.9063 0.4226 -0.4226 0.9063 66.3064 -31.4723)" class="st5" width="3.4" height="74.2"/>
				
					<rect x="111.7" y="96.7" transform="matrix(0.9063 0.4226 -0.4226 0.9063 67.1758 -35.3936)" class="st5" width="3.4" height="74.2"/>
				
					<rect x="121" y="96.7" transform="matrix(0.9063 0.4226 -0.4226 0.9063 68.0451 -39.315)" class="st5" width="3.4" height="74.2"/>
				
					<rect x="130.3" y="96.7" transform="matrix(0.9063 0.4226 -0.4226 0.9063 68.9145 -43.2363)" class="st5" width="3.4" height="74.2"/>
				
					<rect x="139.6" y="96.7" transform="matrix(0.9063 0.4226 -0.4226 0.9063 69.7838 -47.1576)" class="st5" width="3.4" height="74.2"/>
				
					<rect x="148.8" y="96.7" transform="matrix(0.9063 0.4226 -0.4226 0.9063 70.6531 -51.0789)" class="st5" width="3.4" height="74.2"/>
				
					<rect x="158.1" y="96.7" transform="matrix(0.9063 0.4226 -0.4226 0.9063 71.5225 -55.0003)" class="st5" width="3.4" height="74.2"/>
				
					<rect x="167.4" y="96.7" transform="matrix(0.9063 0.4226 -0.4226 0.9063 72.3918 -58.9216)" class="st5" width="3.4" height="74.2"/>
				
					<rect x="176.7" y="96.7" transform="matrix(0.9063 0.4226 -0.4226 0.9063 73.2611 -62.8429)" class="st5" width="3.4" height="74.2"/>
				
					<rect x="186" y="96.7" transform="matrix(0.9063 0.4226 -0.4226 0.9063 74.1305 -66.7642)" class="st5" width="3.4" height="74.2"/>
				
					<rect x="195.2" y="96.7" transform="matrix(0.9063 0.4226 -0.4226 0.9063 74.9998 -70.6855)" class="st5" width="3.4" height="74.2"/>
				
					<rect x="204.5" y="96.7" transform="matrix(0.9063 0.4226 -0.4226 0.9063 75.8691 -74.6069)" class="st5" width="3.4" height="74.2"/>
				
					<rect x="213.8" y="96.7" transform="matrix(0.9063 0.4226 -0.4226 0.9063 76.7385 -78.5282)" class="st5" width="3.4" height="74.2"/>
				
					<rect x="223.1" y="96.7" transform="matrix(0.9063 0.4226 -0.4226 0.9063 77.6078 -82.4495)" class="st5" width="3.4" height="74.2"/>
				
					<rect x="232.4" y="96.7" transform="matrix(0.9063 0.4226 -0.4226 0.9063 78.4771 -86.3708)" class="st5" width="3.4" height="74.2"/>
				
					<rect x="241.6" y="96.7" transform="matrix(0.9063 0.4226 -0.4226 0.9063 79.3465 -90.2922)" class="st5" width="3.4" height="74.2"/>
				
					<rect x="250.9" y="96.7" transform="matrix(0.9063 0.4226 -0.4226 0.9063 80.2158 -94.2135)" class="st5" width="3.4" height="74.2"/>
				
					<rect x="260.2" y="96.7" transform="matrix(0.9063 0.4226 -0.4226 0.9063 81.0852 -98.1348)" class="st5" width="3.4" height="74.2"/>
				
					<rect x="269.5" y="96.7" transform="matrix(0.9063 0.4226 -0.4226 0.9063 81.9545 -102.0561)" class="st5" width="3.4" height="74.2"/>
				
					<rect x="278.8" y="96.7" transform="matrix(0.9063 0.4226 -0.4226 0.9063 82.8238 -105.9775)" class="st5" width="3.4" height="74.2"/>
				
					<rect x="288" y="96.7" transform="matrix(0.9063 0.4226 -0.4226 0.9063 83.6932 -109.8988)" class="st5" width="3.4" height="74.2"/>
				
					<rect x="297.3" y="96.7" transform="matrix(0.9063 0.4226 -0.4226 0.9063 84.5625 -113.8201)" class="st5" width="3.4" height="74.2"/>
				
					<rect x="306.6" y="96.7" transform="matrix(0.9063 0.4226 -0.4226 0.9063 85.4318 -117.7414)" class="st5" width="3.4" height="74.2"/>
			</g>
		</g>
	</g>
	<g>
		<path class="st10" d="M243.5,108.3c-7.4,0-14.1,3-19,7.9h37.9C257.7,111.3,250.9,108.3,243.5,108.3z"/>
		<path class="st10" d="M226.4,155.7c4.6,3.9,10.6,6.2,17.1,6.2c6.5,0,12.5-2.3,17.1-6.2H226.4z"/>
		<path class="st11" d="M270.4,135.1c0-7.4-3-14.1-7.9-19h-37.9c-4.9,4.9-7.9,11.6-7.9,19c0,8.3,3.8,15.7,9.7,20.6h34.2
			C266.6,150.8,270.4,143.4,270.4,135.1z"/>
	</g>
	<circle class="st12" cx="243.5" cy="135.1" r="28.6"/>
	<g>
		<path class="st0" d="M243.5,108.6c14.6,0,26.5,11.9,26.5,26.5c0,14.6-11.9,26.5-26.5,26.5c-14.6,0-26.5-11.9-26.5-26.5
			C217.1,120.5,229,108.6,243.5,108.6 M243.5,107.6c-15.2,0-27.5,12.3-27.5,27.5s12.3,27.5,27.5,27.5c15.2,0,27.5-12.3,27.5-27.5
			S258.7,107.6,243.5,107.6L243.5,107.6z"/>
	</g>
	<g>
		<path class="st3" d="M236.2,140.4h-1.6v-10.3l-3.1,1.1v-1.4l4.4-1.7h0.2V140.4z"/>
		<path class="st3" d="M248.7,140.4h-8v-1.1l4.2-4.7c0.6-0.7,1.1-1.3,1.3-1.7c0.2-0.4,0.4-0.9,0.4-1.4c0-0.6-0.2-1.2-0.6-1.6
			c-0.4-0.4-0.9-0.6-1.5-0.6c-0.8,0-1.4,0.2-1.8,0.7c-0.4,0.4-0.6,1-0.6,1.8h-1.5c0-1.1,0.4-2,1.1-2.7c0.7-0.7,1.7-1,2.9-1
			c1.1,0,2,0.3,2.7,0.9c0.7,0.6,1,1.4,1,2.4c0,1.2-0.8,2.6-2.3,4.3l-3.3,3.5h6.1V140.4z"/>
		<path class="st3" d="M252.6,133.6h1.2c0.7,0,1.3-0.2,1.7-0.6s0.6-0.9,0.6-1.5c0-1.4-0.7-2.1-2.1-2.1c-0.7,0-1.2,0.2-1.6,0.6
			c-0.4,0.4-0.6,0.9-0.6,1.5h-1.5c0-1,0.4-1.8,1.1-2.4c0.7-0.6,1.6-1,2.7-1c1.1,0,2,0.3,2.7,0.9c0.7,0.6,1,1.5,1,2.5
			c0,0.5-0.2,1-0.5,1.5c-0.3,0.5-0.8,0.9-1.4,1.1c0.7,0.2,1.2,0.6,1.6,1.1c0.4,0.5,0.5,1.1,0.5,1.8c0,1.1-0.4,2-1.1,2.6
			c-0.7,0.6-1.6,1-2.8,1c-1.1,0-2.1-0.3-2.8-0.9c-0.7-0.6-1.1-1.4-1.1-2.4h1.6c0,0.6,0.2,1.2,0.6,1.5c0.4,0.4,1,0.6,1.7,0.6
			c0.7,0,1.3-0.2,1.7-0.6c0.4-0.4,0.6-1,0.6-1.7c0-0.7-0.2-1.3-0.7-1.6c-0.4-0.4-1.1-0.6-1.9-0.6h-1.2V133.6z"/>
	</g>
	<line class="st12" x1="243.7" y1="175.3" x2="243.7" y2="165.2"/>
</g>
<path class="st13" d="M133.3,185.2H90c-0.5,0-1-0.4-1-1v-17.8c0-0.5,0.4-1,1-1h43.3c0.5,0,1,0.4,1,1v17.8
	C134.3,184.7,133.9,185.2,133.3,185.2z"/>
<g>
	<path class="st3" d="M102,178.8c0.6,0,1.1-0.2,1.5-0.5s0.7-0.8,0.7-1.3h1.5c0,0.5-0.2,1.1-0.6,1.5c-0.3,0.5-0.8,0.9-1.4,1.2
		c-0.6,0.3-1.2,0.4-1.8,0.4c-1.3,0-2.3-0.4-3.1-1.3c-0.8-0.9-1.1-2-1.1-3.5v-0.3c0-0.9,0.2-1.7,0.5-2.5c0.3-0.7,0.8-1.3,1.5-1.7
		c0.6-0.4,1.4-0.6,2.2-0.6c1.1,0,1.9,0.3,2.6,1c0.7,0.6,1.1,1.5,1.1,2.5h-1.5c0-0.6-0.3-1.1-0.7-1.5c-0.4-0.4-0.9-0.6-1.5-0.6
		c-0.8,0-1.5,0.3-1.9,0.9c-0.5,0.6-0.7,1.4-0.7,2.6v0.3c0,1.1,0.2,1.9,0.7,2.5C100.5,178.6,101.1,178.8,102,178.8z"/>
	<path class="st3" d="M110.7,177.8l2.3-7.3h1.7l-3.4,9.5H110l-3.4-9.5h1.7L110.7,177.8z"/>
	<path class="st3" d="M119.3,177.8l2.3-7.3h1.7l-3.4,9.5h-1.2l-3.4-9.5h1.7L119.3,177.8z"/>
</g>
<line class="st12" x1="134.3" y1="175.3" x2="243.5" y2="175.3"/>
</svg>
