<?xml version="1.0" encoding="utf-8"?>
<!-- Generator: Adobe Illustrator 21.0.0, SVG Export Plug-In . SVG Version: 6.00 Build 0)  -->
<svg version="1.1" id="Слой_1" xmlns="http://www.w3.org/2000/svg" xmlns:xlink="http://www.w3.org/1999/xlink" x="0px" y="0px"
	 viewBox="0 0 33.5 33.5" style="enable-background:new 0 0 33.5 33.5;" xml:space="preserve">
<style type="text/css">
	.st0{fill:#FFFFFF;stroke:#F04D23;stroke-width:1.5;stroke-miterlimit:10;}
	.st1{fill:#F04D23;}
	.st2{fill:#FFFFFF;stroke:#FFFFFF;stroke-width:1.5;stroke-miterlimit:10;}
</style>
<path class="st0" d="M16.7,0.8c-8.8,0-16,7.2-16,16c0,8.8,7.2,16,16,16c8.8,0,16-7.2,16-16C32.8,7.9,25.6,0.8,16.7,0.8L16.7,0.8z"/>
<path class="st1" d="M16.7,0.8c-8.8,0-16,7.2-16,16c0,8.8,7.2,16,16,16c8.8,0,16-7.2,16-16C32.8,7.9,25.6,0.8,16.7,0.8L16.7,0.8z"/>
<line class="st2" x1="10.4" y1="10.4" x2="23.1" y2="23.1"/>
<line class="st2" x1="23.1" y1="10.4" x2="10.4" y2="23.1"/>
</svg>
