<?xml version="1.0" encoding="utf-8"?>
<!-- Generator: Adobe Illustrator 18.0.0, SVG Export Plug-In . SVG Version: 6.00 Build 0)  -->
<!DOCTYPE svg PUBLIC "-//W3C//DTD SVG 1.1//EN" "http://www.w3.org/Graphics/SVG/1.1/DTD/svg11.dtd">
<svg version="1.1" id="Layer_1" xmlns="http://www.w3.org/2000/svg" xmlns:xlink="http://www.w3.org/1999/xlink" x="0px" y="0px"
	 viewBox="0 0 170.9 57.3" enable-background="new 0 0 170.9 57.3" xml:space="preserve">
<g>
	<path fill="#116BB5" d="M162.4,57.3H8.5c-4.7,0-8.5-3.8-8.5-8.5V8.5C0,3.8,3.8,0,8.5,0h154c4.7,0,8.5,3.8,8.5,8.5v40.3
		C170.9,53.5,167.1,57.3,162.4,57.3z M8.5,2C4.9,2,2,4.9,2,8.5v40.3c0,3.6,2.9,6.5,6.5,6.5h154c3.6,0,6.5-2.9,6.5-6.5V8.5
		c0-3.6-2.9-6.5-6.5-6.5H8.5z"/>
</g>
<g>
	<path fill="#116BB5" d="M56.8,16.7h-1.1c0-0.2-0.1-0.6-0.3-1.3h-1.6c-0.2,0.7-0.3,1.2-0.3,1.3h-1.1c0-0.1,0.3-0.8,0.8-2.3
		c0.6-1.4,0.8-2.2,0.8-2.3h1.3c0,0.1,0.3,0.9,0.8,2.3C56.5,15.8,56.8,16.6,56.8,16.7z M55.2,14.7c-0.4-1.2-0.6-1.9-0.6-2h-0.1
		c0,0.1-0.2,0.8-0.6,2H55.2z"/>
	<path fill="#116BB5" d="M61.4,16.7h-0.9c0-0.1-0.3-0.6-1-1.5c-0.7-1-1.1-1.6-1.2-2h-0.1c0.1,0.5,0.1,1,0.1,1.4c0,0.6,0,1.3,0,2.1
		h-0.9c0-0.7,0.1-1.5,0.1-2.4c0-0.9,0-1.6-0.1-2.2h1.1c0,0.1,0.3,0.6,0.9,1.5c0.6,0.9,1,1.6,1.1,1.9h0.1c-0.1-0.5-0.1-1-0.1-1.4
		c0-0.6,0-1.3,0-2h0.9c0,0.6,0,1.3,0,2.2C61.3,15.2,61.3,16,61.4,16.7z"/>
	<path fill="#116BB5" d="M66.5,14.2c0,0.7-0.2,1.3-0.6,1.8c-0.4,0.5-1,0.8-1.8,0.8c-0.3,0-0.8,0-1.4,0c0-0.7,0-1.5,0-2.4
		c0-0.9,0-1.6,0-2.2h0.6c0.1,0,0.3,0,0.5,0c0.2,0,0.3,0,0.4,0c0.9,0,1.5,0.2,1.9,0.6C66.3,13.1,66.5,13.6,66.5,14.2z M65.5,14.4
		c0-0.5-0.1-0.8-0.4-1.1c-0.3-0.3-0.7-0.5-1.2-0.5c-0.1,0-0.2,0-0.4,0c0,0.5,0,1,0,1.5c0,0.6,0,1.1,0,1.7c0.2,0,0.3,0,0.5,0
		c0.5,0,0.9-0.2,1.1-0.5C65.4,15.2,65.5,14.8,65.5,14.4z"/>
	<path fill="#116BB5" d="M71.3,16.7h-1c-0.3-0.8-0.5-1.4-0.6-1.6c-0.1-0.2-0.4-0.3-0.7-0.3c-0.1,0-0.3,0-0.4,0c0,0.6,0,1.2,0,1.8h-1
		c0-0.7,0-1.5,0-2.4c0-0.9,0-1.6,0-2.2h0.6c0.1,0,0.2,0,0.4,0c0.2,0,0.4,0,0.6,0c1.1,0,1.6,0.4,1.6,1.1c0,0.6-0.3,1-0.9,1.2v0.1
		c0.2,0.1,0.4,0.3,0.6,0.6C70.7,15.3,70.9,15.9,71.3,16.7z M69.9,13.4c0-0.5-0.3-0.7-0.9-0.7c-0.2,0-0.4,0-0.6,0c0,0.4,0,0.8,0,1.4
		c0.1,0,0.2,0,0.3,0C69.5,14.2,69.9,14,69.9,13.4z"/>
	<path fill="#116BB5" d="M76.3,14.3c0,0.7-0.2,1.3-0.7,1.8c-0.4,0.5-1,0.7-1.6,0.7c-0.6,0-1.1-0.2-1.6-0.7c-0.4-0.4-0.6-1-0.6-1.7
		c0-0.7,0.2-1.3,0.7-1.8c0.4-0.5,1-0.7,1.6-0.7c0.6,0,1.1,0.2,1.6,0.7C76.1,13.1,76.3,13.6,76.3,14.3z M75.4,14.4
		c0-0.5-0.1-0.9-0.4-1.2c-0.3-0.3-0.6-0.5-0.9-0.5c-0.3,0-0.6,0.2-0.9,0.5c-0.2,0.3-0.4,0.7-0.4,1.2c0,0.5,0.1,0.9,0.4,1.2
		c0.3,0.3,0.6,0.5,0.9,0.5c0.3,0,0.6-0.2,0.9-0.5C75.2,15.3,75.4,14.9,75.4,14.4z"/>
	<path fill="#116BB5" d="M78.3,16.7h-1c0-0.7,0-1.5,0-2.4c0-0.9,0-1.6,0-2.2h1c0,0.6,0,1.3,0,2.2C78.3,15.2,78.3,16,78.3,16.7z"/>
	<path fill="#116BB5" d="M83.5,14.2c0,0.7-0.2,1.3-0.6,1.8c-0.4,0.5-1,0.8-1.8,0.8c-0.3,0-0.8,0-1.4,0c0-0.7,0-1.5,0-2.4
		c0-0.9,0-1.6,0-2.2h0.6c0.1,0,0.3,0,0.5,0c0.2,0,0.3,0,0.4,0c0.9,0,1.5,0.2,1.9,0.6C83.3,13.1,83.5,13.6,83.5,14.2z M82.5,14.4
		c0-0.5-0.1-0.8-0.4-1.1c-0.3-0.3-0.7-0.5-1.2-0.5c-0.1,0-0.2,0-0.4,0c0,0.5,0,1,0,1.5c0,0.6,0,1.1,0,1.7c0.2,0,0.3,0,0.5,0
		c0.5,0,0.9-0.2,1.1-0.5C82.4,15.2,82.5,14.8,82.5,14.4z"/>
	<path fill="#116BB5" d="M90.3,16.7h-1.1c0-0.2-0.1-0.6-0.3-1.3h-1.6c-0.2,0.7-0.3,1.2-0.3,1.3h-1.1c0-0.1,0.3-0.8,0.8-2.3
		c0.6-1.4,0.8-2.2,0.8-2.3h1.3c0,0.1,0.3,0.9,0.8,2.3C90.1,15.8,90.3,16.6,90.3,16.7z M88.7,14.7c-0.4-1.2-0.6-1.9-0.6-2H88
		c0,0.1-0.2,0.8-0.6,2H88.7z"/>
	<path fill="#116BB5" d="M94.4,13.3c0,0.6-0.2,1-0.6,1.3c-0.4,0.3-0.9,0.4-1.5,0.4c-0.1,0-0.2,0-0.2,0c0,0.4,0,1,0,1.8h-1
		c0-0.7,0-1.5,0-2.4c0-0.9,0-1.6,0-2.2h0.6c0.1,0,0.3,0,0.5,0c0.2,0,0.5,0,0.6,0c0.4,0,0.8,0.1,1.1,0.3
		C94.3,12.6,94.4,12.9,94.4,13.3z M93.5,13.5c0-0.5-0.3-0.8-1-0.8c-0.2,0-0.3,0-0.5,0.1c0,0.4,0,1,0,1.5c0.1,0,0.1,0,0.2,0
		C93.1,14.3,93.5,14,93.5,13.5z"/>
	<path fill="#116BB5" d="M98.7,13.3c0,0.6-0.2,1-0.6,1.3c-0.4,0.3-0.9,0.4-1.5,0.4c-0.1,0-0.2,0-0.2,0c0,0.4,0,1,0,1.8h-1
		c0-0.7,0-1.5,0-2.4c0-0.9,0-1.6,0-2.2h0.6c0.1,0,0.3,0,0.5,0c0.2,0,0.5,0,0.6,0c0.4,0,0.8,0.1,1.1,0.3
		C98.5,12.6,98.7,12.9,98.7,13.3z M97.8,13.5c0-0.5-0.3-0.8-1-0.8c-0.2,0-0.3,0-0.5,0.1c0,0.4,0,1,0,1.5c0.1,0,0.1,0,0.2,0
		C97.4,14.3,97.8,14,97.8,13.5z"/>
	<path fill="#116BB5" d="M105.7,14.3c0,0.7-0.2,1.3-0.7,1.8c-0.4,0.5-1,0.7-1.6,0.7c-0.6,0-1.1-0.2-1.6-0.7c-0.4-0.4-0.6-1-0.6-1.7
		c0-0.7,0.2-1.3,0.7-1.8c0.4-0.5,1-0.7,1.6-0.7c0.6,0,1.1,0.2,1.6,0.7C105.4,13.1,105.7,13.6,105.7,14.3z M104.7,14.4
		c0-0.5-0.1-0.9-0.4-1.2c-0.3-0.3-0.6-0.5-0.9-0.5c-0.3,0-0.6,0.2-0.9,0.5c-0.2,0.3-0.4,0.7-0.4,1.2c0,0.5,0.1,0.9,0.4,1.2
		c0.3,0.3,0.6,0.5,0.9,0.5c0.3,0,0.6-0.2,0.9-0.5C104.6,15.3,104.7,14.9,104.7,14.4z"/>
	<path fill="#116BB5" d="M110.5,16.7h-0.9c0-0.1-0.3-0.6-1-1.5c-0.7-1-1.1-1.6-1.2-2h-0.1c0.1,0.5,0.1,1,0.1,1.4c0,0.6,0,1.3,0,2.1
		h-0.9c0-0.7,0.1-1.5,0.1-2.4c0-0.9,0-1.6-0.1-2.2h1.1c0,0.1,0.3,0.6,0.9,1.5c0.6,0.9,1,1.6,1.1,1.9h0.1c-0.1-0.5-0.1-1-0.1-1.4
		c0-0.6,0-1.3,0-2h0.9c0,0.6,0,1.3,0,2.2C110.4,15.2,110.4,16,110.5,16.7z"/>
</g>
<g>
	<path fill="#116BB5" d="M68.6,31.5c0,2.3-0.7,4.1-2,5.5c-1.5,1.6-3.6,2.4-6,2.4c-2.4,0-4.4-0.8-6-2.5c-1.7-1.6-2.5-3.7-2.5-6.1
		c0-2.4,0.8-4.5,2.5-6.1c1.7-1.6,3.7-2.5,6-2.5c1.2,0,2.3,0.2,3.4,0.7c1.1,0.5,1.9,1.1,2.6,1.8L65,26.2c-1.1-1.3-2.6-1.9-4.5-1.9
		c-1.7,0-3.2,0.6-4.5,1.8c-1.3,1.2-1.9,2.8-1.9,4.7c0,1.9,0.6,3.5,1.9,4.7c1.3,1.2,2.8,1.8,4.5,1.8c1.8,0,3.4-0.6,4.6-1.8
		c0.8-0.8,1.3-1.9,1.4-3.3h-6v-2h8C68.6,30.7,68.6,31.1,68.6,31.5z"/>
	<path fill="#116BB5" d="M71.1,29.2c1.1-1.1,2.5-1.7,4.1-1.7c1.7,0,3.1,0.6,4.1,1.7c1.1,1.1,1.6,2.6,1.6,4.3c0,1.7-0.5,3.1-1.6,4.3
		c-1.1,1.1-2.5,1.7-4.1,1.7c-1.7,0-3.1-0.6-4.1-1.7c-1.1-1.1-1.6-2.6-1.6-4.3C69.5,31.7,70,30.3,71.1,29.2z M72.7,36.4
		c0.7,0.7,1.6,1.1,2.6,1.1c1,0,1.9-0.4,2.6-1.1c0.7-0.7,1.1-1.7,1.1-2.9c0-1.2-0.4-2.2-1.1-2.9c-0.7-0.7-1.6-1.1-2.6-1.1
		c-1,0-1.9,0.4-2.6,1.1c-0.7,0.7-1.1,1.7-1.1,2.9C71.6,34.7,72,35.6,72.7,36.4z"/>
	<path fill="#116BB5" d="M83.4,29.2c1.1-1.1,2.5-1.7,4.1-1.7c1.7,0,3.1,0.6,4.1,1.7c1.1,1.1,1.6,2.6,1.6,4.3c0,1.7-0.5,3.1-1.6,4.3
		c-1.1,1.1-2.5,1.7-4.1,1.7c-1.7,0-3.1-0.6-4.1-1.7c-1.1-1.1-1.6-2.6-1.6-4.3C81.7,31.7,82.3,30.3,83.4,29.2z M84.9,36.4
		c0.7,0.7,1.6,1.1,2.6,1.1c1,0,1.9-0.4,2.6-1.1c0.7-0.7,1.1-1.7,1.1-2.9c0-1.2-0.4-2.2-1.1-2.9c-0.7-0.7-1.6-1.1-2.6-1.1
		c-1,0-1.9,0.4-2.6,1.1c-0.7,0.7-1.1,1.7-1.1,2.9C83.9,34.7,84.2,35.6,84.9,36.4z"/>
	<path fill="#116BB5" d="M99.5,44.4c-1.3,0-2.4-0.3-3.3-1c-0.8-0.7-1.4-1.4-1.8-2.3l1.9-0.8c0.2,0.6,0.6,1.1,1.2,1.5
		c0.6,0.4,1.2,0.6,2,0.6c1.2,0,2.1-0.3,2.7-1c0.7-0.7,1-1.6,1-2.8v-1.1h-0.1c-0.4,0.5-0.9,1-1.6,1.4c-0.7,0.4-1.4,0.6-2.3,0.6
		c-1.5,0-2.7-0.6-3.8-1.7c-1.1-1.1-1.6-2.6-1.6-4.3s0.5-3.1,1.6-4.3c1.1-1.1,2.3-1.7,3.8-1.7c0.8,0,1.6,0.2,2.3,0.5
		c0.7,0.4,1.2,0.8,1.6,1.4h0.1v-1.6h2v10.7c0,1.9-0.6,3.4-1.7,4.4C102.5,43.9,101.1,44.4,99.5,44.4z M99.7,37.5c1,0,1.8-0.4,2.5-1.1
		c0.7-0.7,1-1.7,1-3c0-1.2-0.3-2.2-1-3c-0.7-0.7-1.5-1.1-2.5-1.1c-1,0-1.8,0.4-2.5,1.1c-0.7,0.7-1.1,1.7-1.1,2.9
		c0,1.2,0.4,2.2,1.1,2.9C97.9,37.1,98.7,37.5,99.7,37.5z"/>
	<path fill="#116BB5" d="M109.4,39.1h-2.1V22.6h2.1V39.1z"/>
	<path fill="#116BB5" d="M116.4,39.4c-1.7,0-3.1-0.6-4.1-1.7c-1.1-1.1-1.6-2.6-1.6-4.3c0-1.6,0.5-3,1.5-4.2c1-1.2,2.3-1.8,4-1.8
		c1.7,0,3,0.5,4,1.6c1,1.1,1.5,2.5,1.5,4.4l0,0.4h-8.9c0.1,1.1,0.4,2,1.1,2.7c0.7,0.7,1.5,1,2.4,1c1.5,0,2.5-0.6,3.1-1.9l1.9,0.8
		c-0.4,0.9-1,1.6-1.8,2.2C118.6,39.1,117.6,39.4,116.4,39.4z M119.4,32.1c0-0.6-0.3-1.3-0.9-1.8c-0.5-0.6-1.3-0.9-2.4-0.9
		c-0.8,0-1.5,0.2-2,0.7c-0.6,0.5-1,1.1-1.2,2H119.4z"/>
	<path fill="#116BB5" d="M129.9,39.1h-2.1V22.6h5.6c1.4,0,2.6,0.5,3.6,1.4c1,0.9,1.5,2.1,1.5,3.5c0,1.4-0.5,2.6-1.5,3.5
		c-1,0.9-2.2,1.4-3.6,1.4h-3.5V39.1z M129.9,30.4h3.5c0.9,0,1.6-0.3,2.1-0.9c0.5-0.6,0.8-1.3,0.8-2c0-0.7-0.3-1.4-0.8-2
		c-0.5-0.6-1.2-0.9-2.1-0.9h-3.5V30.4z"/>
	<path fill="#116BB5" d="M142,39.1h-2.1V22.6h2.1V39.1z"/>
	<path fill="#116BB5" d="M147.5,39.4c-1.2,0-2.2-0.3-3-1c-0.8-0.7-1.2-1.6-1.2-2.7c0-1.2,0.5-2.2,1.4-2.9c0.9-0.7,2.1-1,3.5-1
		c1.2,0,2.3,0.2,3,0.7v-0.3c0-0.8-0.3-1.5-0.8-2c-0.6-0.5-1.3-0.7-2.1-0.7c-0.6,0-1.2,0.1-1.7,0.4c-0.5,0.3-0.8,0.7-1,1.2l-1.9-0.8
		c0.3-0.7,0.8-1.3,1.5-1.9c0.8-0.6,1.8-0.9,3-0.9c1.4,0,2.6,0.4,3.6,1.3c0.9,0.8,1.4,2,1.4,3.6v6.8h-2v-1.6h-0.1
		C150.3,38.8,149.1,39.4,147.5,39.4z M147.8,37.5c0.9,0,1.7-0.3,2.4-1c0.7-0.6,1.1-1.4,1.1-2.3c-0.6-0.5-1.5-0.7-2.7-0.7
		c-1,0-1.8,0.2-2.3,0.7c-0.5,0.4-0.8,1-0.8,1.6c0,0.5,0.2,1,0.7,1.3C146.7,37.3,147.2,37.5,147.8,37.5z"/>
	<path fill="#116BB5" d="M157.9,44h-2.2l2.6-5.7l-4.6-10.5h2.3l3.3,8.1h0l3.3-8.1h2.3L157.9,44z"/>
</g>
<g>
	<path fill="#116BB5" d="M12.7,30.6c0-5.2,0-10.5,0-15.7c0-0.6,0.1-1.2,0.6-1.7c0.2-0.2,0.3-0.2,0.5,0c3.5,3.6,7.1,7.2,10.6,10.8
		c2.3,2.3,4.6,4.7,6.9,7c0.2,0.2,0.2,0.3,0,0.6C25.6,37,20,42.6,14.4,48.2c-0.3,0.3-0.6,0.3-0.9,0.1c-0.6-0.5-0.8-1.1-0.8-1.8
		c0-3.1,0-6.2,0-9.3C12.7,35,12.7,32.8,12.7,30.6C12.7,30.6,12.7,30.6,12.7,30.6z"/>
	<path fill="#116BB5" d="M14.7,12.5c0.4,0,0.7,0.1,1,0.3c7.2,4,14.4,8,21.5,12.1c0.3,0.2,0.3,0.3,0.1,0.5c-1.6,1.6-3.2,3.2-4.8,4.8
		c-0.2,0.2-0.3,0.3-0.5,0c-5.7-5.8-11.4-11.6-17.2-17.5C14.8,12.7,14.8,12.6,14.7,12.5z"/>
	<path fill="#116BB5" d="M16.3,48.1c5.2-5.3,10.4-10.5,15.6-15.8c0.3-0.3,0.5-0.3,0.8,0c1.3,1.4,2.7,2.7,4,4.1
		c0.2,0.2,0.3,0.3-0.1,0.5c-6.7,3.7-13.4,7.3-20.1,11C16.5,48,16.4,48.1,16.3,48.1z"/>
	<path fill="#116BB5" d="M46.1,30.7c0,0.6-0.3,1-0.7,1.3c-0.3,0.2-0.7,0.4-1,0.6c-2,1.1-4.1,2.2-6.1,3.4c-0.3,0.2-0.4,0.1-0.7-0.1
		c-1.4-1.5-2.9-3-4.3-4.4c-0.2-0.2-0.2-0.3,0-0.5c1.7-1.7,3.4-3.4,5.1-5c0.2-0.2,0.3-0.2,0.6-0.1c2,1.1,4,2.2,6,3.4
		C45.6,29.5,46,30,46.1,30.7z"/>
</g>
</svg>
