<?xml version="1.0" encoding="utf-8"?>
<!-- Generator: Adobe Illustrator 21.0.0, SVG Export Plug-In . SVG Version: 6.00 Build 0)  -->
<svg version="1.1" id="Layer_1" xmlns="http://www.w3.org/2000/svg" xmlns:xlink="http://www.w3.org/1999/xlink" x="0px" y="0px"
	 viewBox="0 0 29 41" enable-background="new 0 0 29 41" xml:space="preserve">
<circle fill="none" stroke="#066AB7" stroke-linecap="round" stroke-linejoin="round" stroke-miterlimit="10" cx="14.5" cy="14.1" r="6.7"/>
<path opacity="0.1" fill="#066AB7" d="M14.5,0.5c-7.7,0-14,6.3-14,14c0,7.7,14,26,14,26s14-18.3,14-26C28.5,6.8,22.2,0.5,14.5,0.5z
	 M14.5,20.7c-3.7,0-6.7-3-6.7-6.7c0-3.7,3-6.7,6.7-6.7s6.7,3,6.7,6.7C21.2,17.8,18.2,20.7,14.5,20.7z"/>
<path fill="none" stroke="#066AB7" stroke-linecap="round" stroke-linejoin="round" stroke-miterlimit="10" d="M28.5,14.5
	c0,7.7-14,26-14,26s-14-18.3-14-26c0-7.7,6.3-14,14-14S28.5,6.8,28.5,14.5z"/>
</svg>
