<svg xmlns="http://www.w3.org/2000/svg" viewBox="0 0 80.74 92.38" width='57' height='66'>
  <defs>
    <style>
      .cls-1{fill:none;stroke:#1dafec;stroke-linecap:round;stroke-linejoin:round;}.cls-2{fill:#1dafec;opacity:0.25;}
    </style>
  </defs>
  <title>
    Ресурс 1
  </title>
  <g id="Слой_2" data-name="Слой 2">
    <g id="Layer_1" data-name="Layer 1">
      <circle cx="40.45" cy="29.53" r="14.25" class="cls-1"/>
      <path d="M42.67 43.59a14.46 14.46 0 0 1-2.3.18 14.25 14.25 0 0 1 0-28.5 14.59 14.59 0 0 1 2.3.18 14.25 14.25 0 0 0 0 28.13z" class="cls-2"/>
      <path d="M44.57 80.41c20 .3 35.67 2.74 35.67 5.71 0 3.18-17.85 5.76-39.87 5.76S.5 89.3.5 86.12c0-3 15.71-5.42 35.83-5.71" class="cls-1"/>
      <path d="M80.62 85.94c0 3.18-17.85 5.76-39.87 5.76S.88 89.13.88 86c0-1 1.62-1.85 4.5-2.65.07 3.12 17.9 5.65 39.87 5.65 15.38 0 28.75-1.22 35.37-3.06z" class="cls-2"/>
      <path d="M70.38 30.43C70.38 47 40.45 86 40.45 86S10.53 47 10.53 30.43a29.92 29.92 0 1 1 59.85 0z" class="cls-1"/>
      <path d="M17.8 30.42C17.8 43.33 36.06 70 44 81c-2.24 3.1-3.68 5-3.68 5S10.44 47 10.44 30.42A29.93 29.93 0 0 1 40.37.5 30.31 30.31 0 0 1 44 .72a29.93 29.93 0 0 0-26.2 29.7z" class="cls-2"/>
    </g>
  </g>
</svg>