<?xml version="1.0" encoding="utf-8"?>
<!-- Generator: Adobe Illustrator 18.0.0, SVG Export Plug-In . SVG Version: 6.00 Build 0)  -->
<!DOCTYPE svg PUBLIC "-//W3C//DTD SVG 1.1//EN" "http://www.w3.org/Graphics/SVG/1.1/DTD/svg11.dtd">
<svg version="1.1" id="Layer_1" xmlns="http://www.w3.org/2000/svg" xmlns:xlink="http://www.w3.org/1999/xlink" x="0px" y="0px"
	 viewBox="0 0 35.5 22" enable-background="new 0 0 35.5 22" xml:space="preserve">
<g>
	<defs>
		<rect id="SVGID_1_" width="35.5" height="22"/>
	</defs>
	<clipPath id="SVGID_2_">
		<use xlink:href="#SVGID_1_"  overflow="visible"/>
	</clipPath>
	<path clip-path="url(#SVGID_2_)" fill="#F79F00" d="M24.5,0c-2.5,0-4.9,0.9-6.8,2.3c2.6,2,4.3,5.2,4.3,8.7s-1.7,6.7-4.3,8.7
		c1.9,1.5,4.2,2.3,6.8,2.3c6.1,0,11-4.9,11-11S30.6,0,24.5,0"/>
	<path clip-path="url(#SVGID_2_)" fill="#EB0C08" d="M13.5,11c0-3.5,1.7-6.7,4.3-8.7C15.9,0.9,13.5,0,11,0C4.9,0,0,4.9,0,11
		s4.9,11,11,11c2.5,0,4.9-0.9,6.8-2.3C15.2,17.7,13.5,14.5,13.5,11"/>
	<path clip-path="url(#SVGID_2_)" fill="#FF6100" d="M22,11c0-3.5-1.7-6.7-4.3-8.7c-2.6,2-4.3,5.2-4.3,8.7s1.7,6.7,4.3,8.7
		C20.3,17.7,22,14.5,22,11"/>
</g>
</svg>
