<?xml version="1.0" encoding="utf-8"?>
<!-- Generator: Adobe Illustrator 18.0.0, SVG Export Plug-In . SVG Version: 6.00 Build 0)  -->
<!DOCTYPE svg PUBLIC "-//W3C//DTD SVG 1.1//EN" "http://www.w3.org/Graphics/SVG/1.1/DTD/svg11.dtd">
<svg version="1.1" id="Layer_1" xmlns="http://www.w3.org/2000/svg" xmlns:xlink="http://www.w3.org/1999/xlink" x="0px" y="0px"
	 viewBox="0 0 238.6 268" enable-background="new 0 0 238.6 268" xml:space="preserve">
<g>
	<path fill="#FBD38C" d="M225.8,111.5L38.7,3.5C34.8,1.2,30.3,0,25.8,0h0C11.7,0,0.1,11.5,0.1,25.7v216.1
		c0,14.2,11.5,25.7,25.7,25.7c4.5,0,8.9-1.2,12.8-3.4l187.1-108c4-2.3,7.4-5.7,9.6-9.8c2.1-3.8,3.2-8.1,3.2-12.5
		c0-4.4-1.1-8.7-3.2-12.5C233.2,117.2,229.8,113.8,225.8,111.5L225.8,111.5z M216.2,139.3L29,247.3c-1,0.6-2.1,0.9-3.2,0.9
		c-3.3,0-6.4-2.7-6.4-6.4V25.7c0-3.7,3.1-6.4,6.4-6.4c1.1,0,2.2,0.3,3.2,0.9l187.1,108C220.4,130.7,220.4,136.8,216.2,139.3
		L216.2,139.3z M216.2,139.3"/>
	<g>
		<defs>
			<rect id="SVGID_1_" y="0" width="239" height="268"/>
		</defs>
		<clipPath id="SVGID_2_">
			<use xlink:href="#SVGID_1_"  overflow="visible"/>
		</clipPath>
	</g>
</g>
</svg>
