<?xml version="1.0" encoding="utf-8"?>
<!-- Generator: Adobe Illustrator 21.0.0, SVG Export Plug-In . SVG Version: 6.00 Build 0)  -->
<svg version="1.1" id="Слой_1" xmlns="http://www.w3.org/2000/svg" xmlns:xlink="http://www.w3.org/1999/xlink" x="0px" y="0px"
	 viewBox="0 0 36.7 41" enable-background="new 0 0 36.7 41" xml:space="preserve">
<path opacity="0.1" fill="#126BB5" d="M11.5,15.2c0,0-11,4.8-11,17.6l0,0c4.5,4.7,10.8,7.7,17.8,7.7c7,0,13.4-2.9,17.8-7.7l0,0
	c0-12.7-11-17.6-11-17.6l0,0c-1.6,1.9-4.1,3.2-6.8,3.2C15.6,18.4,13.2,17.2,11.5,15.2L11.5,15.2z"/>
<path fill="none" stroke="#126BB5" stroke-linecap="round" stroke-linejoin="round" stroke-miterlimit="10" d="M11.5,15.2
	c0,0-11,4.8-11,17.6l0,0c4.5,4.7,10.8,7.7,17.8,7.7c7,0,13.4-2.9,17.8-7.7l0,0c0-12.7-11-17.6-11-17.6l0,0c-1.6,1.9-4.1,3.2-6.8,3.2
	C15.6,18.4,13.2,17.2,11.5,15.2L11.5,15.2z"/>
<circle fill="none" stroke="#126BB5" stroke-linecap="round" stroke-linejoin="round" stroke-miterlimit="10" cx="18.3" cy="9.4" r="8.9"/>
</svg>
