<?xml version="1.0" encoding="utf-8"?>
<!-- Generator: Adobe Illustrator 21.0.0, SVG Export Plug-In . SVG Version: 6.00 Build 0)  -->
<svg version="1.1" id="Layer_1" xmlns="http://www.w3.org/2000/svg" xmlns:xlink="http://www.w3.org/1999/xlink" x="0px" y="0px"
	 viewBox="0 0 79.5 91" enable-background="new 0 0 79.5 91" xml:space="preserve">
<circle fill="none" stroke="#1DAFEC" stroke-linecap="round" stroke-linejoin="round" stroke-miterlimit="10" cx="39.9" cy="29.1" r="14"/>
<path opacity="0.25" fill="#1DAFEC" d="M42,42.9c-0.7,0.1-1.5,0.2-2.3,0.2c-7.8,0-14-6.3-14-14c0-7.8,6.3-14,14-14
	c0.8,0,1.5,0.1,2.3,0.2c-6.7,1.1-11.8,6.9-11.8,13.9S35.4,41.9,42,42.9z"/>
<path fill="none" stroke="#1DAFEC" stroke-linecap="round" stroke-linejoin="round" stroke-miterlimit="10" d="M43.9,79.2
	C63.6,79.5,79,81.9,79,84.8c0,3.1-17.6,5.7-39.3,5.7S0.5,88,0.5,84.8c0-2.9,15.5-5.3,35.3-5.6"/>
<path opacity="0.25" fill="#1DAFEC" d="M79.4,84.7L79.4,84.7c0,3.1-17.6,5.7-39.3,5.7c-21.7,0-39.3-2.5-39.3-5.7
	c0-0.9,1.6-1.8,4.4-2.6c0.1,3.1,17.6,5.7,39.3,5.7C59.7,87.7,72.9,86.5,79.4,84.7z"/>
<path fill="none" stroke="#1DAFEC" stroke-linecap="round" stroke-linejoin="round" stroke-miterlimit="10" d="M69.3,30
	c0,16.3-29.5,54.7-29.5,54.7S10.4,46.2,10.4,30c0-16.3,13.2-29.5,29.5-29.5S69.3,13.7,69.3,30z"/>
<path opacity="0.25" fill="#1DAFEC" d="M17.5,30c0,12.7,18,39,25.9,49.8c-2.2,3.1-3.6,4.9-3.6,4.9S10.3,46.3,10.3,30
	c0-16.3,13.2-29.5,29.5-29.5c1.2,0,2.4,0.1,3.6,0.2C28.8,2.5,17.5,14.9,17.5,30z"/>
</svg>
