<?xml version="1.0" encoding="utf-8"?>
<!-- Generator: Adobe Illustrator 21.0.0, SVG Export Plug-In . SVG Version: 6.00 Build 0)  -->
<svg version="1.1" id="Слой_1" xmlns="http://www.w3.org/2000/svg" xmlns:xlink="http://www.w3.org/1999/xlink" x="0px" y="0px"
	 viewBox="0 0 26.9 32" style="enable-background:new 0 0 26.9 32;" xml:space="preserve">
<style type="text/css">
	.st0{fill:#C7CFD6;}
	.st1{fill:#FFFFFF;}
</style>
<g>
	<path class="st0" d="M22.5,8.5L24.1,7c0,0,0.1-0.1,0.1-0.1l1,1C25.3,8,25.4,8,25.5,8s0.3,0,0.4-0.1c0.2-0.2,0.2-0.5,0-0.7l-2.7-2.7
		c-0.2-0.2-0.5-0.2-0.7,0c-0.2,0.2-0.2,0.5,0,0.7l1,1c0,0-0.1,0-0.1,0.1l-1.6,1.6c-1.7-1.3-3.8-2.3-6-2.6V3.6h1.4
		c0.3,0,0.5-0.2,0.5-0.5V0.5c0-0.3-0.2-0.5-0.5-0.5h-7.1C9.8,0,9.6,0.2,9.6,0.5v2.6c0,0.3,0.2,0.5,0.5,0.5h1.4v1.6
		C5,6.2,0,11.8,0,18.5C0,26,6,32,13.5,32s13.5-6,13.5-13.5C26.9,14.6,25.2,11,22.5,8.5L22.5,8.5z"/>
	<rect x="10.6" y="1" class="st0" width="6.1" height="1.6"/>
	<path class="st1" d="M12.5,3.6h2.2v1.6c-0.4,0-0.8-0.1-1.3-0.1c-0.3,0-0.6,0-1,0V3.6z"/>
	<path class="st1" d="M13.5,31C6.6,31,1,25.4,1,18.5C1,12.1,5.8,6.9,12,6.2h2.8c6.2,0.7,11.1,6,11.1,12.4C25.9,25.4,20.3,31,13.5,31
		L13.5,31z"/>
	<path class="st0" d="M12.2,18.1H4.1c-0.3,0-0.5,0.2-0.5,0.5c0,0.3,0.2,0.5,0.5,0.5h8.1c0.2,0.6,0.8,1,1.4,1c0.8,0,1.5-0.7,1.5-1.5
		c0-0.8-0.7-1.5-1.5-1.5C12.9,17.1,12.4,17.6,12.2,18.1L12.2,18.1z M12.2,18.1"/>
</g>
</svg>
