<?xml version="1.0" encoding="utf-8"?>
<!-- Generator: Adobe Illustrator 18.0.0, SVG Export Plug-In . SVG Version: 6.00 Build 0)  -->
<!DOCTYPE svg PUBLIC "-//W3C//DTD SVG 1.1//EN" "http://www.w3.org/Graphics/SVG/1.1/DTD/svg11.dtd">
<svg version="1.1" id="Layer_1" xmlns="http://www.w3.org/2000/svg" xmlns:xlink="http://www.w3.org/1999/xlink" x="0px" y="0px"
	 viewBox="0 0 30 16" enable-background="new 0 0 30 16" xml:space="preserve">
<g>
	<defs>
		<path id="SVGID_1_" d="M2.2,16.5c6.1-2.6,14.6-5,25.9-2.6l0.1-2.9C16.3,9.7,7.7,13.5,2.2,16.2V16.5z"/>
	</defs>
	<clipPath id="SVGID_2_">
		<use xlink:href="#SVGID_1_"  overflow="visible"/>
	</clipPath>
	<rect x="-2.8" y="5.7" clip-path="url(#SVGID_2_)" fill="#FFFFFF" width="36.1" height="15.7"/>
</g>
<g>
	<defs>
		<polygon id="SVGID_3_" points="8.5,8.9 11.2,0.2 13.5,0.2 10.9,8.9 		"/>
	</defs>
	<clipPath id="SVGID_4_">
		<use xlink:href="#SVGID_3_"  overflow="visible"/>
	</clipPath>
	<rect x="3.5" y="-4.8" clip-path="url(#SVGID_4_)" fill="#FFFFFF" width="15" height="18.7"/>
</g>
<g>
	<defs>
		<path id="SVGID_5_" d="M7.5,0.2L5.4,3.9c-0.5,1-0.9,1.5-1,2.1h0c0-0.8-0.1-1.7-0.1-2.3L4,0.2H0l0,0.2c1,0,1.6,0.5,1.8,1.6l0.8,6.9
			H5l4.9-8.7H7.5z"/>
	</defs>
	<clipPath id="SVGID_6_">
		<use xlink:href="#SVGID_5_"  overflow="visible"/>
	</clipPath>
	<rect x="-5" y="-4.8" clip-path="url(#SVGID_6_)" fill="#FFFFFF" width="19.9" height="18.7"/>
</g>
<g>
	<defs>
		<path id="SVGID_7_" d="M25.5,3.8c0-0.6,0-1.5,0-2h0c-0.1,0.4-0.8,1.7-1,2.4L23.6,6h2.1L25.5,3.8z M25.8,8.9l-0.1-1.3l-2.9,0
			l-0.6,1.3h-2.6l4.6-8.7h3.1l0.8,8.7L25.8,8.9L25.8,8.9z"/>
	</defs>
	<clipPath id="SVGID_8_">
		<use xlink:href="#SVGID_7_"  overflow="visible"/>
	</clipPath>
	<rect x="14.6" y="-4.8" clip-path="url(#SVGID_8_)" fill="#FFFFFF" width="18.6" height="18.7"/>
</g>
<g>
	<defs>
		<path id="SVGID_9_" d="M16,9.1c-1.7,0-2.8-0.5-3.6-1l1.1-1.7c0.7,0.4,1.3,0.9,2.5,0.9c0.4,0,0.8-0.1,1-0.5c0.3-0.6-0.1-0.9-1-1.4
			l-0.5-0.3c-1.4-0.9-2-1.8-1.3-3.4c0.4-1,1.5-1.7,3.3-1.7c1.2,0,2.4,0.5,3.1,1.1l-1.3,1.5c-0.7-0.5-1.2-0.8-1.8-0.8
			c-0.5,0-0.9,0.2-1,0.4c-0.2,0.5,0.1,0.8,0.8,1.3l0.5,0.3c1.7,1,2,2.1,1.6,3.2C18.8,8.7,17.4,9.1,16,9.1z"/>
	</defs>
	<clipPath id="SVGID_10_">
		<use xlink:href="#SVGID_9_"  overflow="visible"/>
	</clipPath>
	<rect x="7.4" y="-5" clip-path="url(#SVGID_10_)" fill="#FFFFFF" width="18.3" height="19.1"/>
</g>
<g>
	<defs>
		<path id="SVGID_11_" d="M29,0.3c-0.4,0-0.7,0.3-0.7,0.7c0,0.4,0.3,0.7,0.7,0.7c0.4,0,0.7-0.3,0.7-0.7C29.6,0.6,29.3,0.3,29,0.3z
			 M29,1.9c-0.5,0-0.8-0.4-0.8-0.9c0-0.5,0.4-0.9,0.8-0.9c0.4,0,0.8,0.3,0.8,0.9C29.8,1.6,29.4,1.9,29,1.9z M29,1
			c0.1,0,0.2,0,0.2-0.1c0-0.1-0.1-0.1-0.2-0.1h-0.2V1H29z M28.8,1.5h-0.2V0.6H29c0.2,0,0.3,0.1,0.3,0.3c0,0.2-0.1,0.2-0.2,0.3
			l0.3,0.4h-0.2L29,1.1h-0.1V1.5z"/>
	</defs>
	<clipPath id="SVGID_12_">
		<use xlink:href="#SVGID_11_"  overflow="visible"/>
	</clipPath>
	<rect x="23.1" y="-4.8" clip-path="url(#SVGID_12_)" fill="#FFFFFF" width="11.7" height="11.7"/>
</g>
</svg>
