<?xml version="1.0" encoding="utf-8"?>
<!-- Generator: Adobe Illustrator 18.0.0, SVG Export Plug-In . SVG Version: 6.00 Build 0)  -->
<!DOCTYPE svg PUBLIC "-//W3C//DTD SVG 1.1//EN" "http://www.w3.org/Graphics/SVG/1.1/DTD/svg11.dtd">
<svg version="1.1" id="Layer_1" xmlns="http://www.w3.org/2000/svg" xmlns:xlink="http://www.w3.org/1999/xlink" x="0px" y="0px"
	 viewBox="0 0 68 22" enable-background="new 0 0 68 22" xml:space="preserve">
<g>
	<defs>
		<rect id="SVGID_1_" y="0" width="68" height="22"/>
	</defs>
	<clipPath id="SVGID_2_">
		<use xlink:href="#SVGID_1_"  overflow="visible"/>
	</clipPath>
	<path clip-path="url(#SVGID_2_)" fill="#FFFFFF" d="M25.8,0.4l-8.9,21.2h-5.8l-4.4-17c-0.3-1-0.5-1.4-1.3-1.9C4.1,2.1,1.9,1.4,0,1
		l0.1-0.6h9.4c1.2,0,2.3,0.8,2.5,2.2l2.3,12.3L20,0.4H25.8z M48.6,14.7c0-5.6-7.8-5.9-7.7-8.4c0-0.8,0.7-1.6,2.3-1.8
		c0.8-0.1,3-0.2,5.4,1l1-4.5c-1.3-0.5-3-0.9-5.1-0.9c-5.4,0-9.3,2.9-9.3,7c0,3.1,2.7,4.8,4.8,5.8c2.1,1,2.9,1.7,2.8,2.6
		c0,1.4-1.7,2.1-3.3,2.1c-2.8,0-4.4-0.7-5.6-1.3l-1,4.7c1.3,0.6,3.7,1.1,6.1,1.1C44.8,22,48.6,19.1,48.6,14.7 M62.9,21.6H68
		L63.6,0.4h-4.7c-1.1,0-1.9,0.6-2.3,1.6l-8.2,19.7h5.8l1.1-3.2h7L62.9,21.6z M56.8,14.1l2.9-8l1.7,8H56.8z M33.7,0.4l-4.5,21.2h-5.5
		l4.5-21.2H33.7z"/>
</g>
</svg>
