<?xml version="1.0" encoding="utf-8"?>
<!-- Generator: Adobe Illustrator 18.0.0, SVG Export Plug-In . SVG Version: 6.00 Build 0)  -->
<!DOCTYPE svg PUBLIC "-//W3C//DTD SVG 1.1//EN" "http://www.w3.org/Graphics/SVG/1.1/DTD/svg11.dtd">
<svg version="1.1" id="Layer_1" xmlns="http://www.w3.org/2000/svg" xmlns:xlink="http://www.w3.org/1999/xlink" x="0px" y="0px"
	 viewBox="0 0 579 283" enable-background="new 0 0 579 283" xml:space="preserve">
<g>
	<defs>
		<path id="SVGID_1_" d="M13,263.1c-1.2,0-2.2,1-2.2,2.2v9.1c0,1.2,1,2.2,2.2,2.2h14.1v-13.4H13z"/>
	</defs>
	<clipPath id="SVGID_2_">
		<use xlink:href="#SVGID_1_"  overflow="visible"/>
	</clipPath>
	<rect x="5.9" y="258.1" clip-path="url(#SVGID_2_)" fill="#E5E7E9" width="26.3" height="23.4"/>
</g>
<g>
	<defs>
		<rect id="SVGID_3_" x="27.2" y="263.2" width="17.4" height="13.4"/>
	</defs>
	<clipPath id="SVGID_4_">
		<use xlink:href="#SVGID_3_"  overflow="visible"/>
	</clipPath>
	<rect x="22.2" y="258.2" clip-path="url(#SVGID_4_)" fill="#E5E7E9" width="27.4" height="23.4"/>
</g>
<g>
	<defs>
		<path id="SVGID_5_" d="M73.9,263.1H61.9v13.4h11.9c1.2,0,2.2-1,2.2-2.2v-9.1C76,264.1,75.1,263.1,73.9,263.1"/>
	</defs>
	<clipPath id="SVGID_6_">
		<use xlink:href="#SVGID_5_"  overflow="visible"/>
	</clipPath>
	<rect x="56.9" y="258.1" clip-path="url(#SVGID_6_)" fill="#E5E7E9" width="24.1" height="23.4"/>
</g>
<g>
	<defs>
		<rect id="SVGID_7_" x="44.5" y="263.2" width="17.4" height="13.4"/>
	</defs>
	<clipPath id="SVGID_8_">
		<use xlink:href="#SVGID_7_"  overflow="visible"/>
	</clipPath>
	<rect x="39.5" y="258.2" clip-path="url(#SVGID_8_)" fill="#E5E7E9" width="27.4" height="23.4"/>
</g>
<g>
	<defs>
		<path id="SVGID_9_" d="M2.2,250C1,250,0,251,0,252.2v9.1c0,1.2,1,2.2,2.2,2.2h14.1V250H2.2z"/>
	</defs>
	<clipPath id="SVGID_10_">
		<use xlink:href="#SVGID_9_"  overflow="visible"/>
	</clipPath>
	<rect x="-5" y="245" clip-path="url(#SVGID_10_)" fill="#F4F6F9" width="26.3" height="23.4"/>
</g>
<g>
	<defs>
		<rect id="SVGID_11_" x="16.3" y="250" width="17.4" height="13.4"/>
	</defs>
	<clipPath id="SVGID_12_">
		<use xlink:href="#SVGID_11_"  overflow="visible"/>
	</clipPath>
	<rect x="11.3" y="245" clip-path="url(#SVGID_12_)" fill="#F4F6F9" width="27.4" height="23.4"/>
</g>
<g>
	<defs>
		<path id="SVGID_13_" d="M63,250H51v13.4H63c1.2,0,2.2-1,2.2-2.2v-9.1C65.2,251,64.2,250,63,250"/>
	</defs>
	<clipPath id="SVGID_14_">
		<use xlink:href="#SVGID_13_"  overflow="visible"/>
	</clipPath>
	<rect x="46" y="245" clip-path="url(#SVGID_14_)" fill="#F4F6F9" width="24.1" height="23.4"/>
</g>
<g>
	<defs>
		<rect id="SVGID_15_" x="33.7" y="250" width="17.4" height="13.4"/>
	</defs>
	<clipPath id="SVGID_16_">
		<use xlink:href="#SVGID_15_"  overflow="visible"/>
	</clipPath>
	<rect x="28.7" y="245" clip-path="url(#SVGID_16_)" fill="#F4F6F9" width="27.4" height="23.4"/>
</g>
<g>
	<defs>
		<path id="SVGID_17_" d="M146.6,244.6c0,18-14.6,32.6-32.6,32.6c-18,0-32.6-14.6-32.6-32.6S96,212,114,212
			C132,212,146.6,226.6,146.6,244.6"/>
	</defs>
	<clipPath id="SVGID_18_">
		<use xlink:href="#SVGID_17_"  overflow="visible"/>
	</clipPath>
	<rect x="76.5" y="207" clip-path="url(#SVGID_18_)" fill="#F4F6F9" width="75.2" height="75.2"/>
</g>
<path fill="none" stroke="#E4E5E8" stroke-width="3" stroke-miterlimit="10" d="M146.6,244.6c0,18-14.6,32.6-32.6,32.6
	s-32.6-14.6-32.6-32.6S96,212,114,212S146.6,226.6,146.6,244.6"/>
<g>
	<defs>
		<path id="SVGID_19_" d="M347.1,94.8l-174.2,32.3c-4.7,0.9-9.3-2.2-10.1-7l-14.1-76.1c-0.9-4.7,2.2-9.3,7-10.1L329.8,1.6
			c4.7-0.9,9.3,2.2,10.1,7L354,84.7C354.9,89.4,351.8,94,347.1,94.8"/>
	</defs>
	<clipPath id="SVGID_20_">
		<use xlink:href="#SVGID_19_"  overflow="visible"/>
	</clipPath>
	<rect x="143.4" y="-3.5" clip-path="url(#SVGID_20_)" fill="#F37254" width="215.7" height="135.8"/>
</g>
<g>
	<defs>
		<path id="SVGID_21_" d="M347.1,94.8l-174.2,32.3c-4.7,0.9-9.3-2.2-10.1-7l-14.1-76.1c-0.9-4.7,2.2-9.3,7-10.1L329.8,1.6
			c4.7-0.9,9.3,2.2,10.1,7L354,84.7C354.9,89.4,351.8,94,347.1,94.8"/>
	</defs>
	<clipPath id="SVGID_22_">
		<use xlink:href="#SVGID_21_"  overflow="visible"/>
	</clipPath>
	<rect x="143.4" y="-3.5" clip-path="url(#SVGID_22_)" fill="#FFFFFF" width="215.7" height="135.8"/>
</g>
<path fill="#FBFCFD" stroke="#E5E7E9" stroke-width="3" stroke-miterlimit="10" d="M347.1,94.8l-174.2,32.3c-4.7,0.9-9.3-2.2-10.1-7
	l-14.1-76.1c-0.9-4.7,2.2-9.3,7-10.1L329.8,1.6c4.7-0.9,9.3,2.2,10.1,7L354,84.7C354.9,89.4,351.8,94,347.1,94.8"/>
<g>
	<defs>
		<path id="SVGID_23_" d="M280.6,60.4c2.8,14.8-7,29.1-21.9,31.8c-14.8,2.8-29.1-7-31.8-21.9c-2.8-14.8,7-29.1,21.9-31.8
			C263.6,35.8,277.9,45.5,280.6,60.4"/>
	</defs>
	<clipPath id="SVGID_24_">
		<use xlink:href="#SVGID_23_"  overflow="visible"/>
	</clipPath>
	<rect x="221.5" y="33" clip-path="url(#SVGID_24_)" fill="#F4F6F9" width="64.6" height="64.6"/>
</g>
<g>
	<defs>
		
			<rect id="SVGID_25_" x="245.5" y="55.3" transform="matrix(-0.9832 0.1825 -0.1825 -0.9832 512.597 82.2805)" width="14" height="18.9"/>
	</defs>
	<clipPath id="SVGID_26_">
		<use xlink:href="#SVGID_25_"  overflow="visible"/>
	</clipPath>
	<rect x="238.9" y="49.2" clip-path="url(#SVGID_26_)" fill="#E85D46" width="27.2" height="31.1"/>
</g>
<g>
	<defs>
		
			<rect id="SVGID_27_" x="232.5" y="55.1" transform="matrix(-0.9832 0.1825 -0.1825 -0.9832 515.1674 85.3722)" width="42.3" height="22.7"/>
	</defs>
	<clipPath id="SVGID_28_">
		<use xlink:href="#SVGID_27_"  overflow="visible"/>
	</clipPath>
	<rect x="225.8" y="46.4" clip-path="url(#SVGID_28_)" fill="#E85D46" width="55.7" height="40"/>
</g>
<g>
	<defs>
		<path id="SVGID_29_" d="M369.3,134.3L185.9,150c-4.8,0.4-9-3.1-9.4-7.9l-6.9-80.4c-0.4-4.8,3.1-9,7.9-9.4l183.4-15.7
			c4.8-0.4,9,3.1,9.4,7.9l6.9,80.4C377.6,129.7,374.1,133.9,369.3,134.3"/>
	</defs>
	<clipPath id="SVGID_30_">
		<use xlink:href="#SVGID_29_"  overflow="visible"/>
	</clipPath>
	<rect x="164.6" y="31.5" clip-path="url(#SVGID_30_)" fill="#F37254" width="217.6" height="123.5"/>
</g>
<g>
	<defs>
		<path id="SVGID_31_" d="M369.3,134.3L185.9,150c-4.8,0.4-9-3.1-9.4-7.9l-6.9-80.4c-0.4-4.8,3.1-9,7.9-9.4l183.4-15.7
			c4.8-0.4,9,3.1,9.4,7.9l6.9,80.4C377.6,129.7,374.1,133.9,369.3,134.3"/>
	</defs>
	<clipPath id="SVGID_32_">
		<use xlink:href="#SVGID_31_"  overflow="visible"/>
	</clipPath>
	<rect x="164.6" y="31.5" clip-path="url(#SVGID_32_)" fill="#FBFCFD" width="217.6" height="123.5"/>
</g>
<path fill="none" stroke="#E5E7E9" stroke-width="3" stroke-miterlimit="10" d="M369.3,134.3L185.9,150c-4.8,0.4-9-3.1-9.4-7.9
	l-6.9-80.4c-0.4-4.8,3.1-9,7.9-9.4l183.4-15.7c4.8-0.4,9,3.1,9.4,7.9l6.9,80.4C377.6,129.7,374.1,133.9,369.3,134.3"/>
<g>
	<defs>
		<path id="SVGID_33_" d="M304,92.1c1.3,15.6-10.2,29.2-25.8,30.6c-15.6,1.3-29.2-10.2-30.6-25.8c-1.3-15.6,10.2-29.2,25.8-30.6
			C289,65,302.7,76.5,304,92.1"/>
	</defs>
	<clipPath id="SVGID_34_">
		<use xlink:href="#SVGID_33_"  overflow="visible"/>
	</clipPath>
	<rect x="242.6" y="61.2" clip-path="url(#SVGID_34_)" fill="#EDEFF1" width="66.5" height="66.5"/>
</g>
<g>
	<defs>
		
			<rect id="SVGID_35_" x="267.4" y="83.9" transform="matrix(-0.9964 8.512450e-002 -8.512450e-002 -0.9964 556.2903 163.6959)" width="14.5" height="19.5"/>
	</defs>
	<clipPath id="SVGID_36_">
		<use xlink:href="#SVGID_35_"  overflow="visible"/>
	</clipPath>
	<rect x="261.6" y="78.4" clip-path="url(#SVGID_36_)" fill="#E85D46" width="26.1" height="30.7"/>
</g>
<g>
	<defs>
		
			<rect id="SVGID_37_" x="253.8" y="83.8" transform="matrix(-0.9964 8.518341e-002 -8.518341e-002 -0.9964 558.4608 167.265)" width="43.8" height="23.5"/>
	</defs>
	<clipPath id="SVGID_38_">
		<use xlink:href="#SVGID_37_"  overflow="visible"/>
	</clipPath>
	<rect x="247.8" y="77" clip-path="url(#SVGID_38_)" fill="#E85D46" width="55.7" height="37.1"/>
</g>
<g>
	<defs>
		<path id="SVGID_39_" d="M128.5,88.3v177c0,7.5,6,13.5,13.5,13.5h247c7.5,0,13.5-6,13.5-13.5v-177c0-7.5-6-13.5-13.5-13.5H142
			C134.5,74.8,128.5,80.8,128.5,88.3z"/>
	</defs>
	<defs>
		<path id="SVGID_40_" d="M131.5,88.3c0-5.8,4.7-10.5,10.5-10.5h247c5.8,0,10.5,4.7,10.5,10.5v177c0,5.8-4.7,10.5-10.5,10.5H142
			c-5.8,0-10.5-4.7-10.5-10.5V88.3z"/>
	</defs>
	<defs>
		<rect id="SVGID_41_" x="108.5" y="54.8" width="314" height="244"/>
	</defs>
	<clipPath id="SVGID_42_">
		<use xlink:href="#SVGID_39_"  overflow="visible"/>
	</clipPath>
	<clipPath id="SVGID_43_" clip-path="url(#SVGID_42_)">
		<use xlink:href="#SVGID_40_"  overflow="visible"/>
	</clipPath>
	<clipPath id="SVGID_44_" clip-path="url(#SVGID_43_)">
		<use xlink:href="#SVGID_41_"  overflow="visible"/>
	</clipPath>
	<g clip-path="url(#SVGID_44_)">
		<defs>
			<path id="SVGID_45_" d="M130,88.3c0-6.6,5.4-12,12-12h247c6.6,0,12,5.4,12,12v177c0,6.6-5.4,12-12,12H142c-6.6,0-12-5.4-12-12
				V88.3z"/>
		</defs>
		<clipPath id="SVGID_46_">
			<use xlink:href="#SVGID_45_"  overflow="visible"/>
		</clipPath>
		<path clip-path="url(#SVGID_46_)" fill="#FBFCFD" d="M130,88.3c0-6.6,5.4-12,12-12h247c6.6,0,12,5.4,12,12v177c0,6.6-5.4,12-12,12
			H142c-6.6,0-12-5.4-12-12V88.3z"/>
	</g>
</g>
<g>
	<defs>
		<path id="SVGID_47_" d="M130,88.3c0-6.6,5.4-12,12-12h247c6.6,0,12,5.4,12,12v177c0,6.6-5.4,12-12,12H142c-6.6,0-12-5.4-12-12
			V88.3z"/>
	</defs>
	<clipPath id="SVGID_48_">
		<use xlink:href="#SVGID_47_"  overflow="visible"/>
	</clipPath>
	<path clip-path="url(#SVGID_48_)" fill="none" stroke="#E5E7E9" stroke-width="6" stroke-miterlimit="10" d="M130,88.3
		c0-6.6,5.4-12,12-12h247c6.6,0,12,5.4,12,12v177c0,6.6-5.4,12-12,12H142c-6.6,0-12-5.4-12-12V88.3z"/>
</g>
<g>
	<defs>
		<path id="SVGID_49_" d="M399.9,148.3h-56c-15.7,0-28.6,12.9-28.6,28.6c0,15.7,12.9,28.6,28.6,28.6h56c4.8,0,8.7-3.9,8.7-8.7V157
			C408.6,152.2,404.7,148.3,399.9,148.3"/>
	</defs>
	<clipPath id="SVGID_50_">
		<use xlink:href="#SVGID_49_"  overflow="visible"/>
	</clipPath>
	<rect x="310.4" y="143.3" clip-path="url(#SVGID_50_)" fill="#FBFCFD" width="103.3" height="67.2"/>
</g>
<path fill="none" stroke="#E5E7E9" stroke-width="3" stroke-miterlimit="10" d="M399.9,148.3h-56c-15.7,0-28.6,12.9-28.6,28.6
	c0,15.7,12.9,28.6,28.6,28.6h56c4.8,0,8.7-3.9,8.7-8.7V157C408.6,152.2,404.7,148.3,399.9,148.3"/>
<g>
	<defs>
		<path id="SVGID_51_" d="M360.2,176.9c0,8.4-6.8,15.2-15.2,15.2c-8.4,0-15.2-6.8-15.2-15.2c0-8.4,6.8-15.2,15.2-15.2
			C353.4,161.7,360.2,168.5,360.2,176.9"/>
	</defs>
	<clipPath id="SVGID_52_">
		<use xlink:href="#SVGID_51_"  overflow="visible"/>
	</clipPath>
	<rect x="324.8" y="156.7" clip-path="url(#SVGID_52_)" fill="#EDEFF1" width="40.4" height="40.4"/>
</g>
<g>
	<defs>
		<path id="SVGID_53_" d="M481.2,248.9c0,18-14.6,32.6-32.6,32.6c-18,0-32.6-14.6-32.6-32.6c0-18,14.6-32.6,32.6-32.6
			C466.6,216.4,481.2,230.9,481.2,248.9"/>
	</defs>
	<clipPath id="SVGID_54_">
		<use xlink:href="#SVGID_53_"  overflow="visible"/>
	</clipPath>
	<rect x="411" y="211.4" clip-path="url(#SVGID_54_)" fill="#F4F6F9" width="75.2" height="75.2"/>
</g>
<path fill="none" stroke="#E4E5E8" stroke-width="3" stroke-miterlimit="10" d="M481.2,248.9c0,18-14.6,32.6-32.6,32.6
	S416,266.9,416,248.9s14.6-32.6,32.6-32.6S481.2,230.9,481.2,248.9"/>
<g>
	<defs>
		<path id="SVGID_55_" d="M506.1,267.5c-1.2,0-2.2,1-2.2,2.2v9.1c0,1.2,1,2.2,2.2,2.2h14.1v-13.4H506.1z"/>
	</defs>
	<clipPath id="SVGID_56_">
		<use xlink:href="#SVGID_55_"  overflow="visible"/>
	</clipPath>
	<rect x="499" y="262.5" clip-path="url(#SVGID_56_)" fill="#ECEEF1" width="26.3" height="23.4"/>
</g>
<g>
	<defs>
		<path id="SVGID_57_" d="M397.7,92.3c0-7.2-5.7-13-12.7-13H145.7c-7,0-12.7,5.8-12.7,13v0.5h264.7V92.3z"/>
	</defs>
	<clipPath id="SVGID_58_">
		<use xlink:href="#SVGID_57_"  overflow="visible"/>
	</clipPath>
	<rect x="128" y="74.3" clip-path="url(#SVGID_58_)" fill="#F4F6F9" width="274.7" height="23.5"/>
</g>
<g>
	<defs>
		<path id="SVGID_59_" d="M397.7,261.8c0,7.2-5.7,13-12.7,13H145.7c-7,0-12.7-5.8-12.7-13v-0.5h264.7V261.8z"/>
	</defs>
	<clipPath id="SVGID_60_">
		<use xlink:href="#SVGID_59_"  overflow="visible"/>
	</clipPath>
	<rect x="128" y="256.3" clip-path="url(#SVGID_60_)" fill="#F4F6F9" width="274.7" height="23.5"/>
</g>
<g>
	<defs>
		<rect id="SVGID_61_" x="520.3" y="267.5" width="17.4" height="13.4"/>
	</defs>
	<clipPath id="SVGID_62_">
		<use xlink:href="#SVGID_61_"  overflow="visible"/>
	</clipPath>
	<rect x="515.3" y="262.5" clip-path="url(#SVGID_62_)" fill="#ECEEF1" width="27.4" height="23.4"/>
</g>
<g>
	<defs>
		<path id="SVGID_63_" d="M567,267.5H555v13.4H567c1.2,0,2.2-1,2.2-2.2v-9.1C569.1,268.5,568.2,267.5,567,267.5"/>
	</defs>
	<clipPath id="SVGID_64_">
		<use xlink:href="#SVGID_63_"  overflow="visible"/>
	</clipPath>
	<rect x="550" y="262.5" clip-path="url(#SVGID_64_)" fill="#ECEEF1" width="24.1" height="23.4"/>
</g>
<g>
	<defs>
		<rect id="SVGID_65_" x="537.6" y="267.5" width="17.4" height="13.4"/>
	</defs>
	<clipPath id="SVGID_66_">
		<use xlink:href="#SVGID_65_"  overflow="visible"/>
	</clipPath>
	<rect x="532.6" y="262.5" clip-path="url(#SVGID_66_)" fill="#ECEEF1" width="27.4" height="23.4"/>
</g>
<g>
	<defs>
		<path id="SVGID_67_" d="M74.9,218.5c0,18-14.6,32.6-32.6,32.6S9.8,236.5,9.8,218.5s14.6-32.6,32.6-32.6S74.9,200.5,74.9,218.5"/>
	</defs>
	<clipPath id="SVGID_68_">
		<use xlink:href="#SVGID_67_"  overflow="visible"/>
	</clipPath>
	<rect x="4.8" y="180.9" clip-path="url(#SVGID_68_)" fill="#F4F6F9" width="75.2" height="75.2"/>
</g>
<path fill="none" stroke="#E4E5E8" stroke-width="3" stroke-miterlimit="10" d="M74.9,218.5c0,18-14.6,32.6-32.6,32.6
	S9.8,236.5,9.8,218.5s14.6-32.6,32.6-32.6S74.9,200.5,74.9,218.5"/>
<g>
	<defs>
		<path id="SVGID_69_" d="M515.9,255.1c-1.2,0-2.2,1-2.2,2.2v9.1c0,1.2,1,2.2,2.2,2.2H530v-13.4H515.9z"/>
	</defs>
	<clipPath id="SVGID_70_">
		<use xlink:href="#SVGID_69_"  overflow="visible"/>
	</clipPath>
	<rect x="508.7" y="250.1" opacity="0.6" clip-path="url(#SVGID_70_)" fill="#ECEEF1" width="26.3" height="23.4"/>
</g>
<g>
	<defs>
		<rect id="SVGID_71_" x="530" y="255.1" width="17.4" height="13.4"/>
	</defs>
	<clipPath id="SVGID_72_">
		<use xlink:href="#SVGID_71_"  overflow="visible"/>
	</clipPath>
	<rect x="525" y="250.1" opacity="0.6" clip-path="url(#SVGID_72_)" fill="#ECEEF1" width="27.4" height="23.4"/>
</g>
<g>
	<defs>
		<path id="SVGID_73_" d="M576.7,255.1h-11.9v13.4h11.9c1.2,0,2.2-1,2.2-2.2v-9.1C578.9,256.1,577.9,255.1,576.7,255.1"/>
	</defs>
	<clipPath id="SVGID_74_">
		<use xlink:href="#SVGID_73_"  overflow="visible"/>
	</clipPath>
	<rect x="559.8" y="250.1" opacity="0.6" clip-path="url(#SVGID_74_)" fill="#ECEEF1" width="24.1" height="23.4"/>
</g>
<g>
	<defs>
		<rect id="SVGID_75_" x="547.4" y="255.1" width="17.4" height="13.4"/>
	</defs>
	<clipPath id="SVGID_76_">
		<use xlink:href="#SVGID_75_"  overflow="visible"/>
	</clipPath>
	<rect x="542.4" y="250.1" opacity="0.6" clip-path="url(#SVGID_76_)" fill="#ECEEF1" width="27.4" height="23.4"/>
</g>
<g>
	<defs>
		<path id="SVGID_77_" d="M494.2,242.7c-1.2,0-2.2,1-2.2,2.2v9.1c0,1.2,1,2.2,2.2,2.2h14.1v-13.4H494.2z"/>
	</defs>
	<clipPath id="SVGID_78_">
		<use xlink:href="#SVGID_77_"  overflow="visible"/>
	</clipPath>
	<rect x="487" y="237.7" clip-path="url(#SVGID_78_)" fill="#F4F6F9" width="26.3" height="23.4"/>
</g>
<g>
	<defs>
		<rect id="SVGID_79_" x="508.3" y="242.7" width="17.4" height="13.4"/>
	</defs>
	<clipPath id="SVGID_80_">
		<use xlink:href="#SVGID_79_"  overflow="visible"/>
	</clipPath>
	<rect x="503.3" y="237.7" clip-path="url(#SVGID_80_)" fill="#F4F6F9" width="27.4" height="23.4"/>
</g>
<g>
	<defs>
		<path id="SVGID_81_" d="M555,242.7h-11.9v13.4H555c1.2,0,2.2-1,2.2-2.2v-9.1C557.2,243.7,556.2,242.7,555,242.7"/>
	</defs>
	<clipPath id="SVGID_82_">
		<use xlink:href="#SVGID_81_"  overflow="visible"/>
	</clipPath>
	<rect x="538.1" y="237.7" clip-path="url(#SVGID_82_)" fill="#F4F6F9" width="24.1" height="23.4"/>
</g>
<g>
	<defs>
		<rect id="SVGID_83_" x="525.7" y="242.7" width="17.4" height="13.4"/>
	</defs>
	<clipPath id="SVGID_84_">
		<use xlink:href="#SVGID_83_"  overflow="visible"/>
	</clipPath>
	<rect x="520.7" y="237.7" clip-path="url(#SVGID_84_)" fill="#F4F6F9" width="27.4" height="23.4"/>
</g>
<g>
	<defs>
		<path id="SVGID_85_" d="M498.5,229.7c-1.2,0-2.2,1-2.2,2.2v9.1c0,1.2,1,2.2,2.2,2.2h14.1v-13.4H498.5z"/>
	</defs>
	<clipPath id="SVGID_86_">
		<use xlink:href="#SVGID_85_"  overflow="visible"/>
	</clipPath>
	<rect x="491.4" y="224.7" opacity="0.6" clip-path="url(#SVGID_86_)" fill="#ECEEF1" width="26.3" height="23.4"/>
</g>
<g>
	<defs>
		<rect id="SVGID_87_" x="512.7" y="229.7" width="17.4" height="13.4"/>
	</defs>
	<clipPath id="SVGID_88_">
		<use xlink:href="#SVGID_87_"  overflow="visible"/>
	</clipPath>
	<rect x="507.7" y="224.7" opacity="0.6" clip-path="url(#SVGID_88_)" fill="#ECEEF1" width="27.4" height="23.4"/>
</g>
<g>
	<defs>
		<path id="SVGID_89_" d="M559.4,229.7h-11.9v13.4h11.9c1.2,0,2.2-1,2.2-2.2v-9.1C561.5,230.7,560.6,229.7,559.4,229.7"/>
	</defs>
	<clipPath id="SVGID_90_">
		<use xlink:href="#SVGID_89_"  overflow="visible"/>
	</clipPath>
	<rect x="542.4" y="224.7" opacity="0.6" clip-path="url(#SVGID_90_)" fill="#ECEEF1" width="24.1" height="23.4"/>
</g>
<g>
	<defs>
		<rect id="SVGID_91_" x="530" y="229.7" width="17.4" height="13.4"/>
	</defs>
	<clipPath id="SVGID_92_">
		<use xlink:href="#SVGID_91_"  overflow="visible"/>
	</clipPath>
	<rect x="525" y="224.7" opacity="0.6" clip-path="url(#SVGID_92_)" fill="#ECEEF1" width="27.4" height="23.4"/>
</g>
</svg>
