<?xml version="1.0" encoding="utf-8"?>
<!-- Generator: Adobe Illustrator 18.0.0, SVG Export Plug-In . SVG Version: 6.00 Build 0)  -->
<!DOCTYPE svg PUBLIC "-//W3C//DTD SVG 1.1//EN" "http://www.w3.org/Graphics/SVG/1.1/DTD/svg11.dtd">
<svg version="1.1" id="Layer_1" xmlns="http://www.w3.org/2000/svg" xmlns:xlink="http://www.w3.org/1999/xlink" x="0px" y="0px"
	 viewBox="0 202.8 612 390.1" enable-background="new 0 202.8 612 390.1" xml:space="preserve">
<g>
	<g>
		<g>
			<path fill="#C7CFD6" d="M382.5,348.2H183.6V440h99.5c-11.5,38.3-45.9,61.2-88,61.2c-57.4,0-103.3-49.7-103.3-103.3
				s49.7-103.3,103.3-103.3c26.8,0,49.7,7.6,65,26.8l7.6,7.7l68.9-68.9l-7.6-7.7c-30.6-34.4-76.5-49.7-133.9-49.7
				C88,202.8,0,290.8,0,397.9S88,593,195.1,593c103.3,0,172.1-61.2,187.4-156.8c3.8-11.5,3.8-26.8,3.8-38.3
				c0-15.3-3.8-30.6-3.8-42.1V348.2z"/>
			<polygon fill="#C7CFD6" points="550.8,348.2 550.8,287 482,287 482,348.2 416.9,348.2 416.9,417 482,417 482,478.2 550.8,478.2 
				550.8,417 612,417 612,348.2 			"/>
		</g>
	</g>
</g>
</svg>
