<?xml version="1.0" encoding="utf-8"?>
<!-- Generator: Adobe Illustrator 18.0.0, SVG Export Plug-In . SVG Version: 6.00 Build 0)  -->
<!DOCTYPE svg PUBLIC "-//W3C//DTD SVG 1.1//EN" "http://www.w3.org/Graphics/SVG/1.1/DTD/svg11.dtd">
<svg version="1.1" id="Layer_1" xmlns="http://www.w3.org/2000/svg" xmlns:xlink="http://www.w3.org/1999/xlink" x="0px" y="0px"
	 viewBox="0 221.9 612 348.1" enable-background="new 0 221.9 612 348.1" xml:space="preserve">
<g id="XMLID_1_">
	<path id="XMLID_807_" fill="#C7CFD6" d="M530.3,440c19.1,19.1,42.1,38.3,57.4,61.2c7.6,7.6,15.3,19.1,19.1,30.6
		c11.5,15.3,3.8,34.4-7.7,34.4h-88c-23,0-42.1-7.7-57.4-23c-11.5-11.5-23-26.8-34.4-38.3c-3.8-3.8-7.6-7.6-15.3-11.5
		c-19.1-7.6-30.6-7.6-38.3,7.7c-7.6,11.5-11.5,26.8-11.5,42.1c0,19.1-7.6,26.8-26.8,26.8c-45.9,0-88-3.8-130.1-26.8
		c-34.4-19.1-61.2-49.7-88-80.3C71,397.9,32.8,329,2.2,260.2c-7.7-15.3,0-23,15.3-23c26.8,0,57.4,0,88,0c11.5,0,19.1,7.6,23,15.3
		c15.3,38.2,34.4,72.7,57.4,107.1c7.6,7.6,15.3,19.1,26.8,23c11.5,7.6,22.9,3.8,26.8-7.6c3.8-7.7,3.8-15.3,3.8-23
		c0-26.8,0-53.5,0-80.3c0-15.3-11.5-26.8-26.8-30.6c-7.6,0-7.6-3.8-3.8-7.7c3.8-7.7,7.6-11.5,22.9-11.5H335
		c15.3,3.8,19.1,7.7,19.1,26.8v110.9c0,3.8,3.8,23,11.5,26.8c7.6,3.8,15.3-3.8,19.1-7.7c23-22.9,42.1-53.5,57.4-88
		c7.6-11.5,11.5-26.8,19.1-42.1c3.8-11.5,11.5-15.3,23-15.3h95.6c3.8,0,3.8,0,7.7,0c15.3,0,19.1,7.6,15.3,22.9
		c-7.7,23-23,45.9-38.3,65c-15.3,23-34.4,42.1-49.7,65C511.2,413.2,515,424.7,530.3,440L530.3,440z"/>
</g>
</svg>
