<?xml version="1.0" encoding="utf-8"?>
<svg version="1.1" xmlns="http://www.w3.org/2000/svg" xmlns:xlink="http://www.w3.org/1999/xlink" x="0px" y="0px"
	viewBox="0 0 87.1 90.5" enable-background="new 0 0 87.1 90.5" xml:space="preserve">
<g>
	<circle fill="#F4F9FD" cx="42.8" cy="20.2" r="5.2"/>
	<path fill="#FFFFFF" d="M47.6,20.2c0,1.4-0.7,2.7-1.7,3.6c0.7-0.9,1-1.9,1-3c0-2.6-2.2-4.7-4.6-4.7c-1.1,0-2.2,0.4-3,1
		c0.9-1,2.2-1.7,3.6-1.7C45.4,15.4,47.6,17.6,47.6,20.2z"/>
	<path opacity="0.25" fill="#1DAFEC" enable-background="new    " d="M46.4,23c-0.9,1.1-2.2,1.7-3.6,1.7c-2.6,0-4.7-2.2-4.7-4.7
		c0-1.4,0.7-2.7,1.7-3.6c-0.7,0.9-1,1.9-1,3c0,2.6,2.2,4.7,4.7,4.7C44.7,24,45.7,23.8,46.4,23z"/>
	<rect x="10.3" y="89.1" opacity="0.25" fill="#1DAFEC" enable-background="new    " width="64.6" height="1.4"/>
	<polyline fill="none" stroke="#1DAFEC" stroke-linecap="round" stroke-linejoin="round" stroke-miterlimit="10" points="86.6,43.8 
		75.3,32.4 60.5,17.6 43.4,0.5 26.2,17.6 12.4,31.5 0.5,43.4 	"/>
	
		<line fill="none" stroke="#1DAFEC" stroke-linecap="round" stroke-linejoin="round" stroke-miterlimit="10" x1="10.3" y1="88.3" x2="74.9" y2="88.3"/>
	
		<circle fill="none" stroke="#1DAFEC" stroke-linecap="round" stroke-linejoin="round" stroke-miterlimit="10" cx="42.8" cy="20.2" r="5.2"/>
	<path fill="#F4F9FD" stroke="#1DAFEC" stroke-miterlimit="10" d="M23.9,79.3c0,1.7-1.3,3.4-3,3.4h-2.6c-1.7,0-3-1.7-3-3.4V40.8
		c0-1.7,1.3-2.7,3-2.7h2.6c1.7,0,3,1,3,2.7V79.3z"/>
	<path opacity="0.25" fill="#1DAFEC" enable-background="new    " d="M20.3,81.9h-1.6c-1.7,0-2.7-1.6-2.7-3.3V40.8
		c0-1.7,2.7-3.3,2.7-3.3h1.6c-1.7,0-2.9,1.6-2.9,3.3v37.9C17.4,80.3,18.6,81.9,20.3,81.9z"/>
	<path fill="#F4F9FD" stroke="#1DAFEC" stroke-miterlimit="10" d="M46.9,79.3c0,1.7-1.3,3.4-3,3.4h-2.6c-1.7,0-3-1.7-3-3.4V40.8
		c0-1.7,1.3-2.7,3-2.7h2.6c1.7,0,3,1,3,2.7V79.3z"/>
	<path opacity="0.25" fill="#1DAFEC" enable-background="new    " d="M43.3,81.9h-1.6c-1.7,0-2.7-1.6-2.7-3.3V40.8
		c0-1.7,2.7-3.3,2.7-3.3h1.6c-1.7,0-2.9,1.6-2.9,3.3v37.9C40.4,80.3,41.6,81.9,43.3,81.9z"/>
	<path fill="#F4F9FD" stroke="#1DAFEC" stroke-miterlimit="10" d="M69.8,79.3c0,1.7-1.3,3.4-3,3.4h-2.6c-1.7,0-3-1.7-3-3.4V40.8
		c0-1.7,1.3-2.7,3-2.7h2.6c1.7,0,3,1,3,2.7V79.3z"/>
	<path opacity="0.25" fill="#1DAFEC" enable-background="new    " d="M66.2,81.9h-1.6c-1.7,0-2.7-1.6-2.7-3.3V40.8
		c0-1.7,2.7-3.3,2.7-3.3h1.6c-1.7,0-2.9,1.6-2.9,3.3v37.9C63.4,80.3,64.5,81.9,66.2,81.9z"/>
</g>
</svg>
