<?xml version="1.0" encoding="utf-8"?>
<!-- Generator: Adobe Illustrator 18.0.0, SVG Export Plug-In . SVG Version: 6.00 Build 0)  -->
<!DOCTYPE svg PUBLIC "-//W3C//DTD SVG 1.1//EN" "http://www.w3.org/Graphics/SVG/1.1/DTD/svg11.dtd">
<svg version="1.1" id="Layer_1" xmlns="http://www.w3.org/2000/svg" xmlns:xlink="http://www.w3.org/1999/xlink" x="0px" y="0px"
	 viewBox="0 0 27.5 22" enable-background="new 0 0 27.5 22" xml:space="preserve">
<g>
	<defs>
		<path id="SVGID_1_" d="M0,2.8C0,1.2,1.2,0,2.7,0h22.1c1.5,0,2.7,1.2,2.7,2.8v16.5c0,1.5-1.2,2.8-2.7,2.8H2.7C1.2,22,0,20.8,0,19.2
			V2.8z M0.5,2.8v16.5c0,1.2,1,2.2,2.2,2.2h22.1c1.2,0,2.2-1,2.2-2.2V2.8c0-1.2-1-2.2-2.2-2.2H2.7C1.5,0.5,0.5,1.5,0.5,2.8z"/>
	</defs>
	<clipPath id="SVGID_2_">
		<use xlink:href="#SVGID_1_"  overflow="visible"/>
	</clipPath>
	<rect x="-5" y="-5" clip-path="url(#SVGID_2_)" fill="#1DAFEC" width="37.5" height="32"/>
</g>
<g>
	<defs>
		<path id="SVGID_3_" d="M0,2.8C0,1.2,1.2,0,2.7,0h22.1c1.5,0,2.7,1.2,2.7,2.8v16.5c0,1.5-1.2,2.8-2.7,2.8H2.7C1.2,22,0,20.8,0,19.2
			V2.8z M0.5,2.8v16.5c0,1.2,1,2.2,2.2,2.2h22.1c1.2,0,2.2-1,2.2-2.2V2.8c0-1.2-1-2.2-2.2-2.2H2.7C1.5,0.5,0.5,1.5,0.5,2.8z"/>
	</defs>
	<clipPath id="SVGID_4_">
		<use xlink:href="#SVGID_3_"  overflow="visible"/>
	</clipPath>
	<rect x="-5" y="-5" clip-path="url(#SVGID_4_)" fill="#498CC6" width="37.5" height="32"/>
</g>
<g>
	<defs>
		<rect id="SVGID_5_" y="5" width="27.5" height="0.7"/>
	</defs>
	<clipPath id="SVGID_6_">
		<use xlink:href="#SVGID_5_"  overflow="visible"/>
	</clipPath>
	<rect y="5" clip-path="url(#SVGID_6_)" fill="#498CC6" width="27.5" height="0.7"/>
</g>
<g>
	<defs>
		<rect id="SVGID_7_" y="5" width="27.5" height="0.7"/>
	</defs>
	<clipPath id="SVGID_8_">
		<use xlink:href="#SVGID_7_"  overflow="visible"/>
	</clipPath>
	
		<rect y="5" clip-path="url(#SVGID_8_)" fill="none" stroke="#498CC6" stroke-width="2" stroke-miterlimit="10" width="27.5" height="0.7"/>
</g>
<g>
	<defs>
		<path id="SVGID_9_" d="M6.5,2.8c0,0.5-0.4,0.8-0.8,0.8c-0.4,0-0.8-0.4-0.8-0.8s0.4-0.8,0.8-0.8C6.1,1.9,6.5,2.3,6.5,2.8"/>
	</defs>
	<clipPath id="SVGID_10_">
		<use xlink:href="#SVGID_9_"  overflow="visible"/>
	</clipPath>
	<rect x="-0.1" y="-3.1" clip-path="url(#SVGID_10_)" fill="#498CC6" width="11.6" height="11.7"/>
</g>
<g>
	<defs>
		<path id="SVGID_11_" d="M22.6,2.8c0,0.5-0.4,0.8-0.8,0.8c-0.4,0-0.8-0.4-0.8-0.8s0.4-0.8,0.8-0.8C22.3,1.9,22.6,2.3,22.6,2.8"/>
	</defs>
	<clipPath id="SVGID_12_">
		<use xlink:href="#SVGID_11_"  overflow="visible"/>
	</clipPath>
	<rect x="16" y="-3.1" clip-path="url(#SVGID_12_)" fill="#498CC6" width="11.6" height="11.7"/>
</g>
<g>
	<defs>
		<path id="SVGID_13_" d="M3.8,8.8c0-0.3,0.2-0.5,0.5-0.5h4.9v5.5H3.8V8.8z M4.3,13.2h4.3V8.8H4.3C4.3,8.8,4.3,13.2,4.3,13.2z
			 M4.3,8.8C4.3,8.8,4.3,8.8,4.3,8.8L4.3,8.8z"/>
	</defs>
	<clipPath id="SVGID_14_">
		<use xlink:href="#SVGID_13_"  overflow="visible"/>
	</clipPath>
	<rect x="-1.2" y="3.3" clip-path="url(#SVGID_14_)" fill="#498CC6" width="15.4" height="15.5"/>
</g>
<g>
	<defs>
		<path id="SVGID_15_" d="M8.6,13.2H14v5.5H8.6V13.2z M9.2,18.1h4.3v-4.4H9.2V18.1z"/>
	</defs>
	<clipPath id="SVGID_16_">
		<use xlink:href="#SVGID_15_"  overflow="visible"/>
	</clipPath>
	<rect x="3.6" y="8.2" clip-path="url(#SVGID_16_)" fill="#498CC6" width="15.4" height="15.5"/>
</g>
<g>
	<defs>
		<path id="SVGID_17_" d="M8.6,8.8c0-0.3,0.2-0.5,0.5-0.5H14v5.5H8.6V8.8z M9.2,13.2h4.3V8.8H9.2C9.2,8.8,9.2,13.2,9.2,13.2z
			 M9.2,8.8C9.2,8.8,9.2,8.8,9.2,8.8L9.2,8.8z"/>
	</defs>
	<clipPath id="SVGID_18_">
		<use xlink:href="#SVGID_17_"  overflow="visible"/>
	</clipPath>
	<rect x="3.6" y="3.3" clip-path="url(#SVGID_18_)" fill="#498CC6" width="15.4" height="15.5"/>
</g>
<g>
	<defs>
		<path id="SVGID_19_" d="M3.8,13.2h5.4v5.5H4.3c-0.3,0-0.5-0.3-0.5-0.5V13.2z M4.3,18.2c0,0,4.3,0,4.3,0v-4.4H4.3V18.2z"/>
	</defs>
	<clipPath id="SVGID_20_">
		<use xlink:href="#SVGID_19_"  overflow="visible"/>
	</clipPath>
	<rect x="-1.2" y="8.2" clip-path="url(#SVGID_20_)" fill="#FFA500" width="15.4" height="15.5"/>
</g>
<g>
	<defs>
		<path id="SVGID_21_" d="M18.3,8.3h4.9c0.3,0,0.5,0.3,0.5,0.5v4.4c0,0.3-0.2,0.5-0.5,0.5h-4.3c-0.3,0-0.5-0.3-0.5-0.5V8.3z
			 M18.9,13.2c0,0,4.3,0,4.3,0c0,0,0-4.4,0-4.4c0,0-4.3,0-4.3,0V13.2z"/>
	</defs>
	<clipPath id="SVGID_22_">
		<use xlink:href="#SVGID_21_"  overflow="visible"/>
	</clipPath>
	<rect x="13.3" y="3.3" clip-path="url(#SVGID_22_)" fill="#498CC6" width="15.4" height="15.5"/>
</g>
<g>
	<defs>
		<path id="SVGID_23_" d="M13.5,13.2h5.4v5c0,0.3-0.2,0.5-0.5,0.5h-4.9V13.2z M14,18.1h4.3c0,0,0-4.4,0-4.4H14V18.1z"/>
	</defs>
	<clipPath id="SVGID_24_">
		<use xlink:href="#SVGID_23_"  overflow="visible"/>
	</clipPath>
	<rect x="8.5" y="8.2" clip-path="url(#SVGID_24_)" fill="#498CC6" width="15.4" height="15.5"/>
</g>
<g>
	<defs>
		<path id="SVGID_25_" d="M13.5,8.3h5.4v5.5h-5.4V8.3z M14,8.8v4.4h4.3V8.8H14z"/>
	</defs>
	<clipPath id="SVGID_26_">
		<use xlink:href="#SVGID_25_"  overflow="visible"/>
	</clipPath>
	<rect x="8.5" y="3.3" clip-path="url(#SVGID_26_)" fill="#FFA500" width="15.4" height="15.5"/>
</g>
</svg>
