<?xml version="1.0" encoding="utf-8"?>
<!-- Generator: Adobe Illustrator 18.0.0, SVG Export Plug-In . SVG Version: 6.00 Build 0)  -->
<!DOCTYPE svg PUBLIC "-//W3C//DTD SVG 1.1//EN" "http://www.w3.org/Graphics/SVG/1.1/DTD/svg11.dtd">
<svg version="1.1" id="Layer_1" xmlns="http://www.w3.org/2000/svg" xmlns:xlink="http://www.w3.org/1999/xlink" x="0px" y="0px"
	 viewBox="0 0 29 20" enable-background="new 0 0 29 20" xml:space="preserve">
<g>
	<defs>
		<path id="SVGID_1_" d="M25,18.5c0,0.8-0.7,1.5-1.5,1.5H2c-0.8,0-1.5-0.7-1.5-1.5V5c0-0.8,0.7-1.5,1.5-1.5h21.5
			C24.3,3.6,25,4.2,25,5V18.5z"/>
	</defs>
	<clipPath id="SVGID_2_">
		<use xlink:href="#SVGID_1_"  overflow="visible"/>
	</clipPath>
	<rect x="-4.5" y="-1.4" clip-path="url(#SVGID_2_)" fill="#F6FBFF" width="34.5" height="26.4"/>
</g>
<g>
	<defs>
		<path id="SVGID_3_" d="M23.2,20H1.8c-1,0-1.8-0.8-1.8-1.8V4.8C0,3.8,0.8,3,1.8,3h21.5c1,0,1.8,0.8,1.8,1.8v13.5
			C25,19.2,24.2,20,23.2,20z M1.7,3.6C1,3.6,0.5,4.1,0.5,4.7v13.6c0,0.6,0.5,1.2,1.2,1.2h21.6c0.7,0,1.2-0.5,1.2-1.2V4.7
			c0-0.6-0.5-1.2-1.2-1.2H1.7z"/>
	</defs>
	<clipPath id="SVGID_4_">
		<use xlink:href="#SVGID_3_"  overflow="visible"/>
	</clipPath>
	<rect x="-5" y="-2" clip-path="url(#SVGID_4_)" fill="#498CC6" width="35" height="27"/>
</g>
<g>
	<defs>
		<path id="SVGID_5_" d="M24.8,7.3c0,0.2-0.1,0.3-0.3,0.3H0.3C0.1,7.5,0,7.4,0,7.3S0.1,7,0.3,7h24.2C24.7,7,24.8,7.1,24.8,7.3"/>
	</defs>
	<clipPath id="SVGID_6_">
		<use xlink:href="#SVGID_5_"  overflow="visible"/>
	</clipPath>
	<rect x="-5" y="2" clip-path="url(#SVGID_6_)" fill="#498CC6" width="34.8" height="10.6"/>
</g>
<g>
	<defs>
		<line id="SVGID_7_" x1="17" y1="16" x2="21.5" y2="16"/>
	</defs>
	<clipPath id="SVGID_8_">
		<use xlink:href="#SVGID_7_"  overflow="visible"/>
	</clipPath>
	<rect x="12" y="11" clip-path="url(#SVGID_8_)" fill="#FFFFFF" width="14.5" height="10"/>
</g>
<g>
	<defs>
		<path id="SVGID_9_" d="M21.7,16.6h-4.5c-0.1,0-0.3-0.1-0.3-0.3c0-0.2,0.1-0.3,0.3-0.3h4.5c0.1,0,0.3,0.1,0.3,0.3
			C22,16.5,21.9,16.6,21.7,16.6"/>
	</defs>
	<clipPath id="SVGID_10_">
		<use xlink:href="#SVGID_9_"  overflow="visible"/>
	</clipPath>
	<rect x="12" y="11" clip-path="url(#SVGID_10_)" fill="#FFA500" width="15" height="10.6"/>
</g>
<g>
	<defs>
		<path id="SVGID_11_" d="M4.8,10.1c0-0.6,0.4-1,1-1c0.6,0,1,0.4,1,1v0.3c0,0.6-0.4,1-1,1c-0.6,0-1-0.4-1-1V10.1z"/>
	</defs>
	<clipPath id="SVGID_12_">
		<use xlink:href="#SVGID_11_"  overflow="visible"/>
	</clipPath>
	<rect x="-0.3" y="4.1" clip-path="url(#SVGID_12_)" fill="#FFA500" width="12" height="12.3"/>
</g>
<g>
	<defs>
		<path id="SVGID_13_" d="M29,15.5c0,0.8-0.7,1.5-1.5,1.5H6c-0.8,0-1.5-0.7-1.5-1.5V2c0-0.8,0.7-1.5,1.5-1.5h21.5
			C28.3,0.6,29,1.2,29,2V15.5z"/>
	</defs>
	<clipPath id="SVGID_14_">
		<use xlink:href="#SVGID_13_"  overflow="visible"/>
	</clipPath>
	<rect x="-0.5" y="-4.4" clip-path="url(#SVGID_14_)" fill="#F6FBFF" width="34.5" height="26.4"/>
</g>
<g>
	<defs>
		<path id="SVGID_15_" d="M27.2,17H5.8c-1,0-1.8-0.8-1.8-1.8V1.8C4,0.8,4.8,0,5.8,0h21.5c1,0,1.8,0.8,1.8,1.8v13.5
			C29,16.2,28.2,17,27.2,17z M5.7,0.6C5,0.6,4.5,1.1,4.5,1.7v13.6c0,0.6,0.5,1.2,1.2,1.2h21.6c0.7,0,1.2-0.5,1.2-1.2V1.7
			c0-0.6-0.5-1.2-1.2-1.2H5.7z"/>
	</defs>
	<clipPath id="SVGID_16_">
		<use xlink:href="#SVGID_15_"  overflow="visible"/>
	</clipPath>
	<rect x="-1" y="-5" clip-path="url(#SVGID_16_)" fill="#498CC6" width="35" height="27"/>
</g>
<g>
	<defs>
		<path id="SVGID_17_" d="M28.8,4.3c0,0.2-0.1,0.3-0.3,0.3H4.3C4.1,4.5,4,4.4,4,4.3S4.1,4,4.3,4h24.2C28.7,4,28.8,4.1,28.8,4.3"/>
	</defs>
	<clipPath id="SVGID_18_">
		<use xlink:href="#SVGID_17_"  overflow="visible"/>
	</clipPath>
	<rect x="-1" y="-1" clip-path="url(#SVGID_18_)" fill="#498CC6" width="34.8" height="10.6"/>
</g>
<g>
	<defs>
		<line id="SVGID_19_" x1="21" y1="13" x2="25.5" y2="13"/>
	</defs>
	<clipPath id="SVGID_20_">
		<use xlink:href="#SVGID_19_"  overflow="visible"/>
	</clipPath>
	<rect x="16" y="8" clip-path="url(#SVGID_20_)" fill="#FFFFFF" width="14.5" height="10"/>
</g>
<g>
	<defs>
		<path id="SVGID_21_" d="M25.7,13.6h-4.5c-0.1,0-0.3-0.1-0.3-0.3c0-0.2,0.1-0.3,0.3-0.3h4.5c0.1,0,0.3,0.1,0.3,0.3
			C26,13.5,25.9,13.6,25.7,13.6"/>
	</defs>
	<clipPath id="SVGID_22_">
		<use xlink:href="#SVGID_21_"  overflow="visible"/>
	</clipPath>
	<rect x="16" y="8" clip-path="url(#SVGID_22_)" fill="#FFA500" width="15" height="10.6"/>
</g>
<g>
	<defs>
		<path id="SVGID_23_" d="M8.8,7.1c0-0.6,0.4-1,1-1c0.6,0,1,0.4,1,1v0.3c0,0.6-0.4,1-1,1c-0.6,0-1-0.4-1-1V7.1z"/>
	</defs>
	<clipPath id="SVGID_24_">
		<use xlink:href="#SVGID_23_"  overflow="visible"/>
	</clipPath>
	<rect x="3.8" y="1.1" clip-path="url(#SVGID_24_)" fill="#FFA500" width="12" height="12.3"/>
</g>
</svg>
