<?xml version="1.0" encoding="utf-8"?>
<!-- Generator: Adobe Illustrator 18.0.0, SVG Export Plug-In . SVG Version: 6.00 Build 0)  -->
<!DOCTYPE svg PUBLIC "-//W3C//DTD SVG 1.1//EN" "http://www.w3.org/Graphics/SVG/1.1/DTD/svg11.dtd">
<svg version="1.1" id="Layer_1" xmlns="http://www.w3.org/2000/svg" xmlns:xlink="http://www.w3.org/1999/xlink" x="0px" y="0px"
	 viewBox="0 0 20.7 22" enable-background="new 0 0 20.7 22" xml:space="preserve">
<g>
	<defs>
		<path id="SVGID_1_" d="M20.4,0.2V20l-2.3,1.7c-0.1,0.1-0.2,0.1-0.3,0L15.5,20l-2.3,1.7c-0.1,0-0.1,0-0.2,0c-0.1,0-0.1,0-0.2,0
			L10.5,20l-2.3,1.7c-0.1,0.1-0.2,0.1-0.3,0L5.5,20l-2.3,1.7c-0.1,0.1-0.2,0.1-0.3,0l-2.5-1.8c0,0-0.1-0.1-0.1-0.1V0.2H20.4z"/>
	</defs>
	<clipPath id="SVGID_2_">
		<use xlink:href="#SVGID_1_"  overflow="visible"/>
	</clipPath>
	<rect x="-4.7" y="-4.8" clip-path="url(#SVGID_2_)" fill="#F6FBFF" width="30.2" height="31.5"/>
</g>
<g>
	<defs>
		<path id="SVGID_3_" d="M18,22c-0.1,0-0.2,0-0.3-0.1l-2.2-1.6l-2.2,1.6c-0.2,0.1-0.5,0.1-0.6,0l-2.2-1.6l-2.2,1.6
			c-0.2,0.1-0.5,0.1-0.6,0l-2.2-1.6l-2.2,1.6c-0.2,0.1-0.5,0.1-0.6,0l-2.5-1.8C0.1,20,0.1,20,0,19.9c0,0,0-0.1,0-0.1V0.2
			C0,0.1,0.1,0,0.3,0h20.2c0.1,0,0.3,0.1,0.3,0.2V20c0,0.1,0,0.1-0.1,0.2l-2.3,1.7C18.2,21.9,18.1,22,18,22 M5.5,19.8
			c0.1,0,0.1,0,0.2,0.1L8,21.5l2.3-1.7c0.1-0.1,0.2-0.1,0.3,0l2.3,1.7l2.3-1.7c0.1-0.1,0.2-0.1,0.3,0l2.3,1.7l2.2-1.6V0.4H0.5v19.3
			L3,21.5l2.3-1.7C5.4,19.8,5.4,19.8,5.5,19.8"/>
	</defs>
	<clipPath id="SVGID_4_">
		<use xlink:href="#SVGID_3_"  overflow="visible"/>
	</clipPath>
	<rect x="-5" y="-5" clip-path="url(#SVGID_4_)" fill="#498CC6" width="30.7" height="32"/>
</g>
<g>
	<defs>
		<path id="SVGID_5_" d="M8.2,14.6H4.5c-0.1,0-0.2-0.1-0.2-0.3c0-0.2,0.1-0.3,0.2-0.3h3.7c0.1,0,0.2,0.1,0.2,0.3
			C8.5,14.5,8.4,14.6,8.2,14.6"/>
	</defs>
	<clipPath id="SVGID_6_">
		<use xlink:href="#SVGID_5_"  overflow="visible"/>
	</clipPath>
	<rect x="-0.7" y="9" clip-path="url(#SVGID_6_)" fill="#FFA500" width="14.2" height="10.7"/>
</g>
<g>
	<defs>
		<path id="SVGID_7_" d="M12.3,8.7H4.4c-0.1,0-0.2-0.1-0.2-0.3C4.2,8.1,4.3,8,4.4,8h7.9c0.1,0,0.2,0.1,0.2,0.3
			C12.5,8.5,12.4,8.7,12.3,8.7"/>
	</defs>
	<clipPath id="SVGID_8_">
		<use xlink:href="#SVGID_7_"  overflow="visible"/>
	</clipPath>
	<rect x="-0.8" y="3" clip-path="url(#SVGID_8_)" fill="#498CC6" width="18.3" height="10.7"/>
</g>
<g>
	<defs>
		<path id="SVGID_9_" d="M12.3,6.7H4.4c-0.1,0-0.2-0.1-0.2-0.3C4.2,6.1,4.3,6,4.4,6h7.9c0.1,0,0.2,0.1,0.2,0.3
			C12.5,6.5,12.4,6.7,12.3,6.7"/>
	</defs>
	<clipPath id="SVGID_10_">
		<use xlink:href="#SVGID_9_"  overflow="visible"/>
	</clipPath>
	<rect x="-0.8" y="1" clip-path="url(#SVGID_10_)" fill="#498CC6" width="18.3" height="10.7"/>
</g>
<g>
	<defs>
		<path id="SVGID_11_" d="M16.7,8.7h-2.8c-0.1,0-0.2-0.1-0.2-0.3c0-0.2,0.1-0.3,0.2-0.3h2.8c0.1,0,0.2,0.1,0.2,0.3
			C16.9,8.5,16.8,8.7,16.7,8.7"/>
	</defs>
	<clipPath id="SVGID_12_">
		<use xlink:href="#SVGID_11_"  overflow="visible"/>
	</clipPath>
	<rect x="8.6" y="3" clip-path="url(#SVGID_12_)" fill="#498CC6" width="13.3" height="10.7"/>
</g>
<g>
	<defs>
		<path id="SVGID_13_" d="M16.7,6.7h-2.8c-0.1,0-0.2-0.1-0.2-0.3c0-0.2,0.1-0.3,0.2-0.3h2.8c0.1,0,0.2,0.1,0.2,0.3
			C16.9,6.5,16.8,6.7,16.7,6.7"/>
	</defs>
	<clipPath id="SVGID_14_">
		<use xlink:href="#SVGID_13_"  overflow="visible"/>
	</clipPath>
	<rect x="8.6" y="1" clip-path="url(#SVGID_14_)" fill="#498CC6" width="13.3" height="10.7"/>
</g>
<g>
	<defs>
		<line id="SVGID_15_" x1="4.4" y1="10" x2="12.2" y2="10"/>
	</defs>
	<clipPath id="SVGID_16_">
		<use xlink:href="#SVGID_15_"  overflow="visible"/>
	</clipPath>
	<rect x="-0.6" y="5" clip-path="url(#SVGID_16_)" fill="#498CC6" width="17.9" height="10"/>
</g>
<g>
	<defs>
		<path id="SVGID_17_" d="M12.2,10.7H4.4c-0.1,0-0.2-0.1-0.2-0.3c0-0.2,0.1-0.3,0.2-0.3h7.9c0.1,0,0.2,0.1,0.2,0.3
			C12.5,10.5,12.4,10.7,12.2,10.7"/>
	</defs>
	<clipPath id="SVGID_18_">
		<use xlink:href="#SVGID_17_"  overflow="visible"/>
	</clipPath>
	<rect x="-0.9" y="5" clip-path="url(#SVGID_18_)" fill="#498CC6" width="18.3" height="10.7"/>
</g>
<g>
	<defs>
		<path id="SVGID_19_" d="M16.7,10.7h-2.8c-0.1,0-0.2-0.1-0.2-0.3c0-0.2,0.1-0.3,0.2-0.3h2.8c0.1,0,0.2,0.1,0.2,0.3
			C16.9,10.5,16.8,10.7,16.7,10.7"/>
	</defs>
	<clipPath id="SVGID_20_">
		<use xlink:href="#SVGID_19_"  overflow="visible"/>
	</clipPath>
	<rect x="8.6" y="5" clip-path="url(#SVGID_20_)" fill="#498CC6" width="13.3" height="10.7"/>
</g>
</svg>
