<?xml version="1.0" encoding="utf-8"?>
<!-- Generator: Adobe Illustrator 18.0.0, SVG Export Plug-In . SVG Version: 6.00 Build 0)  -->
<!DOCTYPE svg PUBLIC "-//W3C//DTD SVG 1.1//EN" "http://www.w3.org/Graphics/SVG/1.1/DTD/svg11.dtd">
<svg version="1.1" id="Layer_1" xmlns="http://www.w3.org/2000/svg" xmlns:xlink="http://www.w3.org/1999/xlink" x="0px" y="0px"
	 viewBox="0 0 12 14.7" enable-background="new 0 0 12 14.7" xml:space="preserve">
<g>
	<g>
		<g>
			<path fill="#498CC6" d="M8.3,14.4c0-0.1-0.1-0.2-0.2-0.2H0.8c-0.1,0-0.2-0.1-0.2-0.2V0.7c0-0.1,0.1-0.2,0.2-0.2h7.3
				c0.1,0,0.2-0.1,0.2-0.2V0.3c0-0.1-0.1-0.2-0.2-0.2H0.3c-0.1,0-0.2,0.1-0.2,0.2v14.2c0,0.1,0.1,0.2,0.2,0.2h7.8
				C8.2,14.6,8.3,14.6,8.3,14.4L8.3,14.4z"/>
			<path fill="none" stroke="#498CC6" stroke-width="0.1" stroke-miterlimit="10" d="M8.3,14.4c0-0.1-0.1-0.2-0.2-0.2H0.8
				c-0.1,0-0.2-0.1-0.2-0.2V0.7c0-0.1,0.1-0.2,0.2-0.2h7.3c0.1,0,0.2-0.1,0.2-0.2V0.3c0-0.1-0.1-0.2-0.2-0.2H0.3
				c-0.1,0-0.2,0.1-0.2,0.2v14.2c0,0.1,0.1,0.2,0.2,0.2h7.8C8.2,14.6,8.3,14.6,8.3,14.4L8.3,14.4z"/>
		</g>
		<g>
			<path fill="#498CC6" d="M11.8,7.2c-0.1-0.1-0.2-0.2-0.3-0.3L9.6,4.9c-0.1-0.1-0.2-0.1-0.3,0L9.2,5c-0.1,0.1-0.1,0.2,0,0.3L10.9,7
				C11,7,11,7.1,10.9,7.1H4.8c-0.1,0-0.2,0.1-0.2,0.2v0.1c0,0.1,0.1,0.2,0.2,0.2h6.1c0.1,0,0.1,0.1,0.1,0.1L9.2,9.4
				c-0.1,0.1-0.1,0.2,0,0.3l0.1,0.1c0.1,0.1,0.2,0.1,0.3,0l1.9-1.9c0.1-0.1,0.2-0.2,0.3-0.3l0.1-0.1C11.9,7.4,11.9,7.3,11.8,7.2
				L11.8,7.2z"/>
			<path fill="none" stroke="#498CC6" stroke-width="0.1" stroke-miterlimit="10" d="M11.8,7.2c-0.1-0.1-0.2-0.2-0.3-0.3L9.6,4.9
				c-0.1-0.1-0.2-0.1-0.3,0L9.2,5c-0.1,0.1-0.1,0.2,0,0.3L10.9,7C11,7,11,7.1,10.9,7.1H4.8c-0.1,0-0.2,0.1-0.2,0.2v0.1
				c0,0.1,0.1,0.2,0.2,0.2h6.1c0.1,0,0.1,0.1,0.1,0.1L9.2,9.4c-0.1,0.1-0.1,0.2,0,0.3l0.1,0.1c0.1,0.1,0.2,0.1,0.3,0l1.9-1.9
				c0.1-0.1,0.2-0.2,0.3-0.3l0.1-0.1C11.9,7.4,11.9,7.3,11.8,7.2L11.8,7.2z"/>
		</g>
	</g>
</g>
</svg>
