<?xml version="1.0" encoding="utf-8"?>
<!-- Generator: Adobe Illustrator 18.0.0, SVG Export Plug-In . SVG Version: 6.00 Build 0)  -->
<!DOCTYPE svg PUBLIC "-//W3C//DTD SVG 1.1//EN" "http://www.w3.org/Graphics/SVG/1.1/DTD/svg11.dtd">
<svg version="1.1" id="Layer_1" xmlns="http://www.w3.org/2000/svg" xmlns:xlink="http://www.w3.org/1999/xlink" x="0px" y="0px"
	 viewBox="0 0 19 22.3" enable-background="new 0 0 19 22.3" xml:space="preserve">
<g>
	<defs>
		<rect id="SVGID_1_" x="-3" y="-1" width="24" height="24"/>
	</defs>
	<clipPath id="SVGID_2_">
		<use xlink:href="#SVGID_1_"  overflow="visible"/>
	</clipPath>
	<path clip-path="url(#SVGID_2_)" fill="none" stroke="#FFA500" stroke-width="0.7971" stroke-miterlimit="10" d="M6.5,19.3
		c0,1.4,1.3,2.6,3,2.6s3-1.2,3-2.6H6.5z"/>
</g>
<g>
	<defs>
		<path id="SVGID_3_" d="M6.1,3.7L8,3h3l2.1,0.7l1.6,1.5l1,2.5l0.2,4.7l0.7,3.3l2.1,2v1.6H0.3c0,0-0.2-0.4-0.1-0.9
			c0-0.4,0.3-0.8,0.3-0.8s1.6-1.3,1.9-1.8C2.7,15,2.7,13.9,3,13.2l0.2-2.5l0.2-3.3l0.9-2.2L6.1,3.7z"/>
	</defs>
	<clipPath id="SVGID_4_">
		<use xlink:href="#SVGID_3_"  overflow="visible"/>
	</clipPath>
	<g clip-path="url(#SVGID_4_)">
		<defs>
			<rect id="SVGID_5_" x="-3" y="-1" width="24" height="24"/>
		</defs>
		<clipPath id="SVGID_6_">
			<use xlink:href="#SVGID_5_"  overflow="visible"/>
		</clipPath>
		<rect x="-4.8" y="-2" clip-path="url(#SVGID_6_)" fill="#F7FBFF" width="28.4" height="26.3"/>
	</g>
</g>
<g>
	<defs>
		<path id="SVGID_7_" d="M18.5,18.7c0,0.2-0.2,0.4-0.4,0.4H0.9c-0.2,0-0.4-0.2-0.4-0.4V18c0-0.1,0.1-0.3,0.2-0.3
			c0.8-0.3,2.7-1.5,2.7-6.1V9.5c0-5.2,3.4-6.3,6.1-6.3c2.8,0,6.1,1.2,6.1,6.3v2.1c0,4.6,1.8,5.7,2.7,6.1c0.1,0,0.2,0.2,0.2,0.3V18.7
			z M8.3,1.8c0-0.7,0.4-1.3,1.3-1.3c0.8,0,1.3,0.6,1.3,1.3c0,0.4-0.1,0.6-0.4,0.9c-0.4,0-1.3,0-1.6,0C8.4,2.4,8.3,2.1,8.3,1.8z
			 M18.5,17.2c-0.7-0.3-2.3-1.3-2.3-5.6V9.5c0-4.9-2.8-6.4-5.2-6.7c0.2-0.3,0.3-0.6,0.3-1c0-1-0.8-1.8-1.7-1.8S7.8,0.8,7.8,1.8
			c0,0.4,0.1,0.7,0.3,1C5.7,3.2,2.9,4.6,2.9,9.5v2.1c0,4.2-1.6,5.3-2.3,5.6C0.2,17.3,0,17.6,0,18v1.2c0,0.2,0.2,0.4,0.4,0.4h6.3h5.6
			h6.3c0.2,0,0.4-0.2,0.4-0.4V18C19,17.6,18.8,17.3,18.5,17.2z"/>
	</defs>
	<clipPath id="SVGID_8_">
		<use xlink:href="#SVGID_7_"  overflow="visible"/>
	</clipPath>
	<g clip-path="url(#SVGID_8_)">
		<defs>
			<rect id="SVGID_9_" x="-3" y="-1" width="24" height="24"/>
		</defs>
		<clipPath id="SVGID_10_">
			<use xlink:href="#SVGID_9_"  overflow="visible"/>
		</clipPath>
		<rect x="-5" y="-5" clip-path="url(#SVGID_10_)" fill="#498CC6" width="29" height="29.6"/>
	</g>
</g>
</svg>
