<?xml version="1.0" encoding="utf-8"?>
<!-- Generator: Adobe Illustrator 18.0.0, SVG Export Plug-In . SVG Version: 6.00 Build 0)  -->
<!DOCTYPE svg PUBLIC "-//W3C//DTD SVG 1.1//EN" "http://www.w3.org/Graphics/SVG/1.1/DTD/svg11.dtd">
<svg version="1.1" id="Layer_1" xmlns="http://www.w3.org/2000/svg" xmlns:xlink="http://www.w3.org/1999/xlink" x="0px" y="0px"
	 viewBox="0 0 27.8 20.2" enable-background="new 0 0 27.8 20.2" xml:space="preserve">
<g>
	<defs>
		<path id="SVGID_1_" d="M18.9,18.3c0,0.9-0.7,1.7-1.7,1.7H1.9c-0.9,0-1.7-0.8-1.7-1.7V5C0.3,4,1,3.3,1.9,3.3h15.4
			c0.9,0,1.7,0.8,1.7,1.7V18.3z"/>
	</defs>
	<clipPath id="SVGID_2_">
		<use xlink:href="#SVGID_1_"  overflow="visible"/>
	</clipPath>
	<rect x="-4.8" y="-1.7" clip-path="url(#SVGID_2_)" fill="#F6FBFF" width="28.7" height="26.7"/>
</g>
<path fill="none" stroke="#498CC6" stroke-width="0.5" stroke-linecap="round" stroke-linejoin="round" stroke-miterlimit="10" d="
	M18.9,18.3c0,0.9-0.7,1.7-1.7,1.7H1.9c-0.9,0-1.7-0.8-1.7-1.7V5C0.3,4,1,3.3,1.9,3.3h15.4c0.9,0,1.7,0.8,1.7,1.7V18.3z"/>
<g>
	<defs>
		<path id="SVGID_3_" d="M21.5,15.3c0,0.9-0.7,1.7-1.7,1.7H4.5c-0.9,0-1.7-0.8-1.7-1.7V1.9c0-0.9,0.7-1.7,1.7-1.7h15.4
			c0.9,0,1.7,0.8,1.7,1.7V15.3z"/>
	</defs>
	<clipPath id="SVGID_4_">
		<use xlink:href="#SVGID_3_"  overflow="visible"/>
	</clipPath>
	<rect x="-2.2" y="-4.8" clip-path="url(#SVGID_4_)" fill="#F6FBFF" width="28.7" height="26.7"/>
</g>
<path fill="none" stroke="#498CC6" stroke-width="0.5" stroke-linecap="round" stroke-linejoin="round" stroke-miterlimit="10" d="
	M21.5,15.3c0,0.9-0.7,1.7-1.7,1.7H4.5c-0.9,0-1.7-0.8-1.7-1.7V1.9c0-0.9,0.7-1.7,1.7-1.7h15.4c0.9,0,1.7,0.8,1.7,1.7V15.3z"/>
<g>
	<defs>
		<path id="SVGID_5_" d="M26.9,5.8l-3.4-2.4c-0.1-0.1-0.3-0.1-0.4-0.1c-0.1,0-0.2,0-0.2,0c-0.2,0.1-0.3,0.3-0.3,0.5v0.8h-5.8
			c-0.5,0-0.9,0.4-0.9,0.8v1.6c0,0.5,0.4,0.8,0.9,0.8h5.8v0.8c0,0.2,0.1,0.4,0.3,0.5c0.2,0.1,0.4,0.1,0.6-0.1l3.4-2.4
			c0.2-0.1,0.3-0.3,0.3-0.5C27.2,6.1,27.1,5.9,26.9,5.8"/>
	</defs>
	<clipPath id="SVGID_6_">
		<use xlink:href="#SVGID_5_"  overflow="visible"/>
	</clipPath>
	<rect x="10.8" y="-1.7" clip-path="url(#SVGID_6_)" fill="#FFFFFF" width="21.4" height="16.1"/>
</g>
<g>
	<defs>
		<path id="SVGID_7_" d="M23.3,9.4L23.3,9.4c-0.1,0-0.2,0-0.4-0.1c-0.3-0.1-0.5-0.4-0.5-0.8V8H17c-0.6,0-1.2-0.5-1.2-1.1V5.3
			c0-0.6,0.5-1.1,1.2-1.1h5.5V3.6c0-0.3,0.2-0.6,0.5-0.8c0.3-0.1,0.6-0.1,0.9,0.1l3.4,2.3c0.3,0.2,0.4,0.5,0.4,0.8
			c0,0.3-0.2,0.6-0.4,0.8l-3.4,2.3C23.7,9.3,23.5,9.4,23.3,9.4z M16.9,4.7c-0.3,0-0.6,0.2-0.6,0.6v1.6c0,0.3,0.3,0.6,0.6,0.6h6.2
			v1.1c0,0.1,0,0.2,0.1,0.3c0,0,0.1,0,0.1,0c0.1,0,0.2,0,0.2-0.1L27,6.4c0.1-0.1,0.2-0.2,0.2-0.3c0-0.1-0.1-0.2-0.2-0.3l-3.5-2.4
			c-0.1-0.1-0.3-0.1-0.3-0.1c-0.1,0.1-0.1,0.2-0.1,0.3v1.1H16.9z"/>
	</defs>
	<clipPath id="SVGID_8_">
		<use xlink:href="#SVGID_7_"  overflow="visible"/>
	</clipPath>
	<rect x="10.8" y="-2.2" clip-path="url(#SVGID_8_)" fill="#FFA500" width="21.9" height="16.6"/>
</g>
</svg>
