<?xml version="1.0" encoding="utf-8"?>
<!-- Generator: Adobe Illustrator 18.0.0, SVG Export Plug-In . SVG Version: 6.00 Build 0)  -->
<!DOCTYPE svg PUBLIC "-//W3C//DTD SVG 1.1//EN" "http://www.w3.org/Graphics/SVG/1.1/DTD/svg11.dtd">
<svg version="1.1" id="Layer_1" xmlns="http://www.w3.org/2000/svg" xmlns:xlink="http://www.w3.org/1999/xlink" x="0px" y="0px"
	 viewBox="0 0 18 18" enable-background="new 0 0 18 18" xml:space="preserve">
<g>
	<defs>
		<path id="SVGID_1_" d="M7.8,0.5c-0.1,0-0.1,0.1-0.2,0.1L7,2.6C6.6,2.7,6.2,2.8,5.9,3L4,2.1c-0.1,0-0.2,0-0.2,0L3.5,2.4L2.4,3.5
			L2.1,3.8C2.1,3.9,2.1,4,2.1,4L3,5.9C2.8,6.2,2.7,6.6,2.6,7l-2,0.7c-0.1,0-0.1,0.1-0.1,0.2v0.4v1.6v0.4c0,0.1,0.1,0.2,0.1,0.2
			l2,0.7c0.1,0.4,0.3,0.7,0.4,1.1L2.1,14c0,0.1,0,0.2,0,0.2l0.3,0.3l1.1,1.1l0.3,0.3c0.1,0.1,0.2,0.1,0.2,0L5.9,15
			c0.3,0.2,0.7,0.3,1.1,0.4l0.7,2c0,0.1,0.1,0.1,0.2,0.1h0.4h1.6h0.4c0.1,0,0.2-0.1,0.2-0.1l0.7-2c0.4-0.1,0.7-0.3,1.1-0.4l1.9,0.9
			c0.1,0,0.2,0,0.2,0l0.3-0.3l1.1-1.1l0.3-0.3c0.1-0.1,0.1-0.2,0-0.2L15,12.1c0.2-0.3,0.3-0.7,0.4-1.1l2-0.7c0.1,0,0.1-0.1,0.1-0.2
			V9.8V8.2V7.8c0-0.1-0.1-0.2-0.1-0.2l-2-0.7c-0.1-0.4-0.3-0.7-0.4-1.1L15.9,4c0-0.1,0-0.2,0-0.2l-0.3-0.3l-1.1-1.1l-0.3-0.3
			c-0.1-0.1-0.2-0.1-0.2,0L12.1,3c-0.3-0.2-0.7-0.3-1.1-0.4l-0.7-2c0-0.1-0.1-0.1-0.2-0.1H9.8H8.2H7.8C7.8,0.5,7.8,0.5,7.8,0.5z"/>
	</defs>
	<clipPath id="SVGID_2_">
		<use xlink:href="#SVGID_1_"  overflow="visible"/>
	</clipPath>
	<path clip-path="url(#SVGID_2_)" fill="none" stroke="#498CC6" stroke-miterlimit="10" d="M7.8,0.5c-0.1,0-0.1,0.1-0.2,0.1L7,2.6
		C6.6,2.7,6.2,2.8,5.9,3L4,2.1c-0.1,0-0.2,0-0.2,0L3.5,2.4L2.4,3.5L2.1,3.8C2.1,3.9,2.1,4,2.1,4L3,5.9C2.8,6.2,2.7,6.6,2.6,7l-2,0.7
		c-0.1,0-0.1,0.1-0.1,0.2v0.4v1.6v0.4c0,0.1,0.1,0.2,0.1,0.2l2,0.7c0.1,0.4,0.3,0.7,0.4,1.1L2.1,14c0,0.1,0,0.2,0,0.2l0.3,0.3
		l1.1,1.1l0.3,0.3c0.1,0.1,0.2,0.1,0.2,0L5.9,15c0.3,0.2,0.7,0.3,1.1,0.4l0.7,2c0,0.1,0.1,0.1,0.2,0.1h0.4h1.6h0.4
		c0.1,0,0.2-0.1,0.2-0.1l0.7-2c0.4-0.1,0.7-0.3,1.1-0.4l1.9,0.9c0.1,0,0.2,0,0.2,0l0.3-0.3l1.1-1.1l0.3-0.3c0.1-0.1,0.1-0.2,0-0.2
		L15,12.1c0.2-0.3,0.3-0.7,0.4-1.1l2-0.7c0.1,0,0.1-0.1,0.1-0.2V9.8V8.2V7.8c0-0.1-0.1-0.2-0.1-0.2l-2-0.7c-0.1-0.4-0.3-0.7-0.4-1.1
		L15.9,4c0-0.1,0-0.2,0-0.2l-0.3-0.3l-1.1-1.1l-0.3-0.3c-0.1-0.1-0.2-0.1-0.2,0L12.1,3c-0.3-0.2-0.7-0.3-1.1-0.4l-0.7-2
		c0-0.1-0.1-0.1-0.2-0.1H9.8H8.2H7.8C7.8,0.5,7.8,0.5,7.8,0.5z"/>
</g>
<g>
	<defs>
		<circle id="SVGID_3_" cx="9" cy="9" r="4"/>
	</defs>
	<clipPath id="SVGID_4_">
		<use xlink:href="#SVGID_3_"  overflow="visible"/>
	</clipPath>
	<circle clip-path="url(#SVGID_4_)" fill="none" stroke="#498CC6" stroke-miterlimit="10" cx="9" cy="9" r="4"/>
</g>
</svg>
