<?xml version="1.0" encoding="utf-8"?>
<!-- Generator: Adobe Illustrator 18.0.0, SVG Export Plug-In . SVG Version: 6.00 Build 0)  -->
<!DOCTYPE svg PUBLIC "-//W3C//DTD SVG 1.1//EN" "http://www.w3.org/Graphics/SVG/1.1/DTD/svg11.dtd">
<svg version="1.1" id="Layer_1" xmlns="http://www.w3.org/2000/svg" xmlns:xlink="http://www.w3.org/1999/xlink" x="0px" y="0px"
	 viewBox="0 0 30 22.3" enable-background="new 0 0 30 22.3" xml:space="preserve">
<g>
	<defs>
		<path id="SVGID_1_" d="M23.5,20.2c0,1-0.9,1.9-2.1,1.9H2.3c-1.1,0-2.1-0.8-2.1-1.9v-15c0-1,0.9-1.9,2.1-1.9h19.1
			c1.1,0,2.1,0.8,2.1,1.9V20.2z"/>
	</defs>
	<clipPath id="SVGID_2_">
		<use xlink:href="#SVGID_1_"  overflow="visible"/>
	</clipPath>
	<rect x="-4.7" y="-1.7" clip-path="url(#SVGID_2_)" fill="#F6FBFF" width="33.2" height="28.7"/>
</g>
<g>
	<defs>
		<path id="SVGID_3_" d="M21.4,22.3H2.3c-1.3,0-2.3-1-2.3-2.1v-15C0,4,1,3.1,2.3,3.1h19.1c1.3,0,2.3,1,2.3,2.1v15
			C23.8,21.4,22.7,22.3,21.4,22.3z M2.3,3.6c-1,0-1.8,0.7-1.8,1.6v15c0,0.9,0.8,1.6,1.8,1.6h19.1c1,0,1.8-0.7,1.8-1.6v-15
			c0-0.9-0.8-1.6-1.8-1.6H2.3z"/>
	</defs>
	<clipPath id="SVGID_4_">
		<use xlink:href="#SVGID_3_"  overflow="visible"/>
	</clipPath>
	<rect x="-5" y="-1.9" clip-path="url(#SVGID_4_)" fill="#498CC6" width="33.8" height="29.3"/>
</g>
<g>
	<defs>
		<path id="SVGID_5_" d="M21.3,10.2c-1.5,0-2.7,1-2.7,2.3v0.3c0,1.3,1.2,2.3,2.7,2.3h4.3v-4.9H21.3z"/>
	</defs>
	<clipPath id="SVGID_6_">
		<use xlink:href="#SVGID_5_"  overflow="visible"/>
	</clipPath>
	<rect x="13.6" y="5.2" clip-path="url(#SVGID_6_)" fill="#F6FBFF" width="17" height="14.9"/>
</g>
<g>
	<defs>
		<path id="SVGID_7_" d="M25.6,15.4h-4.3c-1.7,0-3-1.1-3-2.6v-0.3c0-1.4,1.4-2.6,3-2.6h4.3c0.1,0,0.3,0.1,0.3,0.3v4.9
			C25.9,15.3,25.7,15.4,25.6,15.4z M21.3,10.5c-1.4,0-2.5,0.9-2.5,2v0.3c0,1.1,1.1,2,2.5,2h4v-4.4H21.3z"/>
	</defs>
	<clipPath id="SVGID_8_">
		<use xlink:href="#SVGID_7_"  overflow="visible"/>
	</clipPath>
	<rect x="13.3" y="5" clip-path="url(#SVGID_8_)" fill="#1DAFEC" width="17.6" height="15.4"/>
</g>
<g>
	<defs>
		<path id="SVGID_9_" d="M22.1,12.6c0,0.4-0.3,0.7-0.7,0.7c-0.4,0-0.7-0.3-0.7-0.7c0-0.4,0.3-0.7,0.7-0.7
			C21.8,11.9,22.1,12.2,22.1,12.6"/>
	</defs>
	<clipPath id="SVGID_10_">
		<use xlink:href="#SVGID_9_"  overflow="visible"/>
	</clipPath>
	<rect x="15.7" y="6.9" clip-path="url(#SVGID_10_)" fill="#FFA500" width="11.5" height="11.4"/>
</g>
<g>
	<defs>
		<path id="SVGID_11_" d="M23.8,5.2c0,0.1-0.1,0.3-0.3,0.3H4.9c-0.1,0-0.3-0.1-0.3-0.3c0-0.1,0.1-0.3,0.3-0.3h18.6
			C23.6,4.9,23.8,5,23.8,5.2"/>
	</defs>
	<clipPath id="SVGID_12_">
		<use xlink:href="#SVGID_11_"  overflow="visible"/>
	</clipPath>
	<rect x="-0.3" y="-0.1" clip-path="url(#SVGID_12_)" fill="#1DAFEC" width="29.1" height="10.5"/>
</g>
<g>
	<defs>
		<path id="SVGID_13_" d="M27.6,17.1c0,1-0.9,1.9-2.1,1.9H6.5c-1.1,0-2.1-0.8-2.1-1.9v-15c0-1,0.9-1.9,2.1-1.9h19.1
			c1.1,0,2.1,0.8,2.1,1.9V17.1z"/>
	</defs>
	<clipPath id="SVGID_14_">
		<use xlink:href="#SVGID_13_"  overflow="visible"/>
	</clipPath>
	<rect x="-0.6" y="-4.7" clip-path="url(#SVGID_14_)" fill="#F6FBFF" width="33.2" height="28.7"/>
</g>
<g>
	<defs>
		<path id="SVGID_15_" d="M25.6,19.3H6.5c-1.3,0-2.3-1-2.3-2.1v-15C4.1,1,5.2,0,6.5,0h19.1c1.3,0,2.3,1,2.3,2.1v15
			C27.9,18.3,26.9,19.3,25.6,19.3z M6.5,0.5c-1,0-1.8,0.7-1.8,1.6v15c0,0.9,0.8,1.6,1.8,1.6h19.1c1,0,1.8-0.7,1.8-1.6v-15
			c0-0.9-0.8-1.6-1.8-1.6H6.5z"/>
	</defs>
	<clipPath id="SVGID_16_">
		<use xlink:href="#SVGID_15_"  overflow="visible"/>
	</clipPath>
	<rect x="-0.9" y="-5" clip-path="url(#SVGID_16_)" fill="#498CC6" width="33.8" height="29.3"/>
</g>
<g>
	<defs>
		<path id="SVGID_17_" d="M25.5,7.2c-1.5,0-2.7,1-2.7,2.3v0.3c0,1.3,1.2,2.3,2.7,2.3h4.3V7.2H25.5z"/>
	</defs>
	<clipPath id="SVGID_18_">
		<use xlink:href="#SVGID_17_"  overflow="visible"/>
	</clipPath>
	<rect x="17.7" y="2.2" clip-path="url(#SVGID_18_)" fill="#F6FBFF" width="17" height="14.9"/>
</g>
<g>
	<defs>
		<path id="SVGID_19_" d="M29.7,12.3h-4.3c-1.7,0-3-1.1-3-2.6V9.5c0-1.4,1.4-2.6,3-2.6h4.3C29.9,6.9,30,7,30,7.2v4.9
			C30,12.2,29.9,12.3,29.7,12.3z M25.5,7.4c-1.4,0-2.5,0.9-2.5,2v0.3c0,1.1,1.1,2,2.5,2h4V7.4H25.5z"/>
	</defs>
	<clipPath id="SVGID_20_">
		<use xlink:href="#SVGID_19_"  overflow="visible"/>
	</clipPath>
	<rect x="17.4" y="1.9" clip-path="url(#SVGID_20_)" fill="#498CC6" width="17.6" height="15.4"/>
</g>
<g>
	<defs>
		<path id="SVGID_21_" d="M26.3,9.6c0,0.4-0.3,0.7-0.7,0.7c-0.4,0-0.7-0.3-0.7-0.7c0-0.4,0.3-0.7,0.7-0.7
			C25.9,8.8,26.3,9.2,26.3,9.6"/>
	</defs>
	<clipPath id="SVGID_22_">
		<use xlink:href="#SVGID_21_"  overflow="visible"/>
	</clipPath>
	<rect x="19.8" y="3.8" clip-path="url(#SVGID_22_)" fill="#FFA500" width="11.5" height="11.4"/>
</g>
<g>
	<defs>
		<path id="SVGID_23_" d="M27.9,2.6c0,0.1-0.1,0.3-0.3,0.3H9.1c-0.1,0-0.3-0.1-0.3-0.3c0-0.1,0.1-0.3,0.3-0.3h18.6
			C27.8,2.4,27.9,2.5,27.9,2.6"/>
	</defs>
	<clipPath id="SVGID_24_">
		<use xlink:href="#SVGID_23_"  overflow="visible"/>
	</clipPath>
	<rect x="3.8" y="-2.6" clip-path="url(#SVGID_24_)" fill="#498CC6" width="29.1" height="10.5"/>
</g>
</svg>
