<?xml version="1.0" encoding="utf-8"?>
<!-- Generator: Adobe Illustrator 18.0.0, SVG Export Plug-In . SVG Version: 6.00 Build 0)  -->
<!DOCTYPE svg PUBLIC "-//W3C//DTD SVG 1.1//EN" "http://www.w3.org/Graphics/SVG/1.1/DTD/svg11.dtd">
<svg version="1.1" id="Layer_1" xmlns="http://www.w3.org/2000/svg" xmlns:xlink="http://www.w3.org/1999/xlink" x="0px" y="0px"
	 viewBox="0 0 51 40" enable-background="new 0 0 51 40" xml:space="preserve">
<g>
	<defs>
		<path id="SVGID_1_" d="M-0.5,5v30c0,3,2.5,5.5,5.5,5.5h41c3,0,5.5-2.5,5.5-5.5V5c0-3-2.5-5.5-5.5-5.5H5C2-0.5-0.5,2-0.5,5z M0.5,5
			c0-2.5,2-4.5,4.5-4.5h41c2.5,0,4.5,2,4.5,4.5v30c0,2.5-2,4.5-4.5,4.5H5c-2.5,0-4.5-2-4.5-4.5V5z M-20.5-20.5h92v81h-92V-20.5z"/>
	</defs>
	<clipPath id="SVGID_2_">
		<use xlink:href="#SVGID_1_"  overflow="visible"/>
	</clipPath>
	<g clip-path="url(#SVGID_2_)">
		<defs>
			<path id="SVGID_3_" d="M0,5c0-2.8,2.2-5,5-5h41c2.8,0,5,2.2,5,5v30c0,2.8-2.2,5-5,5H5c-2.8,0-5-2.2-5-5V5z"/>
		</defs>
		<clipPath id="SVGID_4_">
			<use xlink:href="#SVGID_3_"  overflow="visible"/>
		</clipPath>
		<g clip-path="url(#SVGID_4_)">
			<defs>
				<rect id="SVGID_5_" x="-158" y="-221" width="234" height="296"/>
			</defs>
			<clipPath id="SVGID_6_">
				<use xlink:href="#SVGID_5_"  overflow="visible"/>
			</clipPath>
			<path clip-path="url(#SVGID_6_)" fill="#F6FBFF" d="M0,5c0-2.8,2.2-5,5-5h41c2.8,0,5,2.2,5,5v30c0,2.8-2.2,5-5,5H5
				c-2.8,0-5-2.2-5-5V5z"/>
		</g>
	</g>
</g>
<g>
	<defs>
		<path id="SVGID_7_" d="M0,5c0-2.8,2.2-5,5-5h41c2.8,0,5,2.2,5,5v30c0,2.8-2.2,5-5,5H5c-2.8,0-5-2.2-5-5V5z"/>
	</defs>
	<clipPath id="SVGID_8_">
		<use xlink:href="#SVGID_7_"  overflow="visible"/>
	</clipPath>
	<g clip-path="url(#SVGID_8_)">
		<defs>
			<rect id="SVGID_9_" x="-158" y="-221" width="234" height="296"/>
		</defs>
		<clipPath id="SVGID_10_">
			<use xlink:href="#SVGID_9_"  overflow="visible"/>
		</clipPath>
		<path clip-path="url(#SVGID_10_)" fill="none" stroke="#1DAFEC" stroke-width="2" stroke-miterlimit="10" d="M0,5c0-2.8,2.2-5,5-5
			h41c2.8,0,5,2.2,5,5v30c0,2.8-2.2,5-5,5H5c-2.8,0-5-2.2-5-5V5z"/>
	</g>
</g>
<g>
	<defs>
		<path id="SVGID_11_" d="M12,4.5C12,5.3,11.3,6,10.5,6C9.7,6,9,5.3,9,4.5S9.7,3,10.5,3C11.3,3,12,3.7,12,4.5"/>
	</defs>
	<clipPath id="SVGID_12_">
		<use xlink:href="#SVGID_11_"  overflow="visible"/>
	</clipPath>
	<g clip-path="url(#SVGID_12_)">
		<defs>
			<rect id="SVGID_13_" x="-158" y="-221" width="234" height="296"/>
		</defs>
		<clipPath id="SVGID_14_">
			<use xlink:href="#SVGID_13_"  overflow="visible"/>
		</clipPath>
		<rect x="4" y="-2" clip-path="url(#SVGID_14_)" fill="#1DAFEC" width="13" height="13"/>
	</g>
</g>
<g>
	<defs>
		<path id="SVGID_15_" d="M42,4.5C42,5.3,41.3,6,40.5,6C39.7,6,39,5.3,39,4.5S39.7,3,40.5,3C41.3,3,42,3.7,42,4.5"/>
	</defs>
	<clipPath id="SVGID_16_">
		<use xlink:href="#SVGID_15_"  overflow="visible"/>
	</clipPath>
	<g clip-path="url(#SVGID_16_)">
		<defs>
			<rect id="SVGID_17_" x="-158" y="-221" width="234" height="296"/>
		</defs>
		<clipPath id="SVGID_18_">
			<use xlink:href="#SVGID_17_"  overflow="visible"/>
		</clipPath>
		<rect x="34" y="-2" clip-path="url(#SVGID_18_)" fill="#1DAFEC" width="13" height="13"/>
	</g>
</g>
<g>
	<defs>
		<rect id="SVGID_19_" y="9" width="50" height="1"/>
	</defs>
	<clipPath id="SVGID_20_">
		<use xlink:href="#SVGID_19_"  overflow="visible"/>
	</clipPath>
	<g clip-path="url(#SVGID_20_)">
		<defs>
			<rect id="SVGID_21_" x="-158" y="-221" width="234" height="296"/>
		</defs>
		<clipPath id="SVGID_22_">
			<use xlink:href="#SVGID_21_"  overflow="visible"/>
		</clipPath>
		<rect y="9" clip-path="url(#SVGID_22_)" fill="#979797" width="50" height="1"/>
	</g>
</g>
<g>
	<defs>
		<rect id="SVGID_23_" y="9" width="50" height="1"/>
	</defs>
	<clipPath id="SVGID_24_">
		<use xlink:href="#SVGID_23_"  overflow="visible"/>
	</clipPath>
	<g clip-path="url(#SVGID_24_)">
		<defs>
			<rect id="SVGID_25_" x="-158" y="-221" width="234" height="296"/>
		</defs>
		<clipPath id="SVGID_26_">
			<use xlink:href="#SVGID_25_"  overflow="visible"/>
		</clipPath>
		
			<rect y="9" clip-path="url(#SVGID_26_)" fill="none" stroke="#1DAFEC" stroke-width="2" stroke-miterlimit="10" width="50" height="1"/>
	</g>
</g>
<g>
	<defs>
		<path id="SVGID_27_" d="M6.5,16v9v0.5H7h10h0.5V25V15v-0.5H17H8C7.2,14.5,6.5,15.2,6.5,16z M7.5,16c0-0.3,0.2-0.5,0.5-0.5h9
			L16.5,15v10l0.5-0.5H7L7.5,25V16z M-13.5-5.5h51v51h-51V-5.5z"/>
	</defs>
	<clipPath id="SVGID_28_">
		<use xlink:href="#SVGID_27_"  overflow="visible"/>
	</clipPath>
	<g clip-path="url(#SVGID_28_)">
		<defs>
			<path id="SVGID_29_" d="M7,16c0-0.5,0.5-1,1-1h9v10H7V16z"/>
		</defs>
		<clipPath id="SVGID_30_">
			<use xlink:href="#SVGID_29_"  overflow="visible"/>
		</clipPath>
		<g clip-path="url(#SVGID_30_)">
			<defs>
				<rect id="SVGID_31_" x="-158" y="-221" width="234" height="296"/>
			</defs>
			<clipPath id="SVGID_32_">
				<use xlink:href="#SVGID_31_"  overflow="visible"/>
			</clipPath>
			<path clip-path="url(#SVGID_32_)" fill="#FFFFFF" d="M7,16c0-0.5,0.5-1,1-1h9v10H7V16z"/>
		</g>
	</g>
</g>
<g>
	<defs>
		<path id="SVGID_33_" d="M7,16c0-0.5,0.5-1,1-1h9v10H7V16z"/>
	</defs>
	<clipPath id="SVGID_34_">
		<use xlink:href="#SVGID_33_"  overflow="visible"/>
	</clipPath>
	<g clip-path="url(#SVGID_34_)">
		<defs>
			<rect id="SVGID_35_" x="-158" y="-221" width="234" height="296"/>
		</defs>
		<clipPath id="SVGID_36_">
			<use xlink:href="#SVGID_35_"  overflow="visible"/>
		</clipPath>
		<path clip-path="url(#SVGID_36_)" fill="none" stroke="#1DAFEC" stroke-width="2" stroke-miterlimit="10" d="M7,16
			c0-0.5,0.5-1,1-1h9v10H7V16z"/>
	</g>
</g>
<g>
	<defs>
		<rect id="SVGID_37_" x="16" y="24" width="10" height="10"/>
	</defs>
	<clipPath id="SVGID_38_">
		<use xlink:href="#SVGID_37_"  overflow="visible"/>
	</clipPath>
	<g clip-path="url(#SVGID_38_)">
		<defs>
			<rect id="SVGID_39_" x="-158" y="-221" width="234" height="296"/>
		</defs>
		<clipPath id="SVGID_40_">
			<use xlink:href="#SVGID_39_"  overflow="visible"/>
		</clipPath>
		<rect x="16" y="24" clip-path="url(#SVGID_40_)" fill="#FFFFFF" width="10" height="10"/>
	</g>
</g>
<g>
	<defs>
		<rect id="SVGID_41_" x="16" y="24" width="10" height="10"/>
	</defs>
	<clipPath id="SVGID_42_">
		<use xlink:href="#SVGID_41_"  overflow="visible"/>
	</clipPath>
	<g clip-path="url(#SVGID_42_)">
		<defs>
			<rect id="SVGID_43_" x="-158" y="-221" width="234" height="296"/>
		</defs>
		<clipPath id="SVGID_44_">
			<use xlink:href="#SVGID_43_"  overflow="visible"/>
		</clipPath>
		
			<rect x="16" y="24" clip-path="url(#SVGID_44_)" fill="none" stroke="#1DAFEC" stroke-width="2" stroke-miterlimit="10" width="10" height="10"/>
	</g>
</g>
<g>
	<defs>
		<path id="SVGID_45_" d="M16,16c0-0.5,0.5-1,1-1h9v10H16V16z"/>
	</defs>
	<clipPath id="SVGID_46_">
		<use xlink:href="#SVGID_45_"  overflow="visible"/>
	</clipPath>
	<g clip-path="url(#SVGID_46_)">
		<defs>
			<rect id="SVGID_47_" x="-158" y="-221" width="234" height="296"/>
		</defs>
		<clipPath id="SVGID_48_">
			<use xlink:href="#SVGID_47_"  overflow="visible"/>
		</clipPath>
		<path clip-path="url(#SVGID_48_)" fill="none" stroke="#1DAFEC" stroke-width="2" stroke-miterlimit="10" d="M16,16
			c0-0.5,0.5-1,1-1h9v10H16V16z"/>
	</g>
</g>
<g>
	<defs>
		<path id="SVGID_49_" d="M7,24h10v10H8c-0.5,0-1-0.5-1-1V24z"/>
	</defs>
	<clipPath id="SVGID_50_">
		<use xlink:href="#SVGID_49_"  overflow="visible"/>
	</clipPath>
	<g clip-path="url(#SVGID_50_)">
		<defs>
			<rect id="SVGID_51_" x="-158" y="-221" width="234" height="296"/>
		</defs>
		<clipPath id="SVGID_52_">
			<use xlink:href="#SVGID_51_"  overflow="visible"/>
		</clipPath>
		<path clip-path="url(#SVGID_52_)" fill="#FFFFFF" d="M7,24h10v10H8c-0.5,0-1-0.5-1-1V24z"/>
	</g>
</g>
<g>
	<defs>
		<path id="SVGID_53_" d="M7,24h10v10H8c-0.5,0-1-0.5-1-1V24z"/>
	</defs>
	<clipPath id="SVGID_54_">
		<use xlink:href="#SVGID_53_"  overflow="visible"/>
	</clipPath>
	<g clip-path="url(#SVGID_54_)">
		<defs>
			<rect id="SVGID_55_" x="-158" y="-221" width="234" height="296"/>
		</defs>
		<clipPath id="SVGID_56_">
			<use xlink:href="#SVGID_55_"  overflow="visible"/>
		</clipPath>
		<path clip-path="url(#SVGID_56_)" fill="none" stroke="#FFA500" stroke-width="2" stroke-miterlimit="10" d="M7,24h10v10H8
			c-0.5,0-1-0.5-1-1V24z"/>
	</g>
</g>
<g>
	<defs>
		<path id="SVGID_57_" d="M34,15h9c0.5,0,1,0.5,1,1v8c0,0.5-0.5,1-1,1h-8c-0.5,0-1-0.5-1-1V15z"/>
	</defs>
	<clipPath id="SVGID_58_">
		<use xlink:href="#SVGID_57_"  overflow="visible"/>
	</clipPath>
	<g clip-path="url(#SVGID_58_)">
		<defs>
			<rect id="SVGID_59_" x="-158" y="-221" width="234" height="296"/>
		</defs>
		<clipPath id="SVGID_60_">
			<use xlink:href="#SVGID_59_"  overflow="visible"/>
		</clipPath>
		<path clip-path="url(#SVGID_60_)" fill="#FFFFFF" d="M34,15h9c0.5,0,1,0.5,1,1v8c0,0.5-0.5,1-1,1h-8c-0.5,0-1-0.5-1-1V15z"/>
	</g>
</g>
<g>
	<defs>
		<path id="SVGID_61_" d="M34,15h9c0.5,0,1,0.5,1,1v8c0,0.5-0.5,1-1,1h-8c-0.5,0-1-0.5-1-1V15z"/>
	</defs>
	<clipPath id="SVGID_62_">
		<use xlink:href="#SVGID_61_"  overflow="visible"/>
	</clipPath>
	<g clip-path="url(#SVGID_62_)">
		<defs>
			<rect id="SVGID_63_" x="-158" y="-221" width="234" height="296"/>
		</defs>
		<clipPath id="SVGID_64_">
			<use xlink:href="#SVGID_63_"  overflow="visible"/>
		</clipPath>
		<path clip-path="url(#SVGID_64_)" fill="none" stroke="#1DAFEC" stroke-width="2" stroke-miterlimit="10" d="M34,15h9
			c0.5,0,1,0.5,1,1v8c0,0.5-0.5,1-1,1h-8c-0.5,0-1-0.5-1-1V15z"/>
	</g>
</g>
<g>
	<defs>
		<path id="SVGID_65_" d="M25,24h10v9c0,0.5-0.5,1-1,1h-9V24z"/>
	</defs>
	<clipPath id="SVGID_66_">
		<use xlink:href="#SVGID_65_"  overflow="visible"/>
	</clipPath>
	<g clip-path="url(#SVGID_66_)">
		<defs>
			<rect id="SVGID_67_" x="-158" y="-221" width="234" height="296"/>
		</defs>
		<clipPath id="SVGID_68_">
			<use xlink:href="#SVGID_67_"  overflow="visible"/>
		</clipPath>
		<path clip-path="url(#SVGID_68_)" fill="none" stroke="#1DAFEC" stroke-width="2" stroke-miterlimit="10" d="M25,24h10v9
			c0,0.5-0.5,1-1,1h-9V24z"/>
	</g>
</g>
<g>
	<defs>
		<rect id="SVGID_69_" x="25" y="15" width="10" height="10"/>
	</defs>
	<clipPath id="SVGID_70_">
		<use xlink:href="#SVGID_69_"  overflow="visible"/>
	</clipPath>
	<g clip-path="url(#SVGID_70_)">
		<defs>
			<rect id="SVGID_71_" x="-158" y="-221" width="234" height="296"/>
		</defs>
		<clipPath id="SVGID_72_">
			<use xlink:href="#SVGID_71_"  overflow="visible"/>
		</clipPath>
		<rect x="25" y="15" clip-path="url(#SVGID_72_)" fill="#FFFFFF" width="10" height="10"/>
	</g>
</g>
<g>
	<defs>
		<rect id="SVGID_73_" x="25" y="15" width="10" height="10"/>
	</defs>
	<clipPath id="SVGID_74_">
		<use xlink:href="#SVGID_73_"  overflow="visible"/>
	</clipPath>
	<g clip-path="url(#SVGID_74_)">
		<defs>
			<rect id="SVGID_75_" x="-158" y="-221" width="234" height="296"/>
		</defs>
		<clipPath id="SVGID_76_">
			<use xlink:href="#SVGID_75_"  overflow="visible"/>
		</clipPath>
		
			<rect x="25" y="15" clip-path="url(#SVGID_76_)" fill="none" stroke="#FFA500" stroke-width="2" stroke-miterlimit="10" width="10" height="10"/>
	</g>
</g>
</svg>
