<?xml version="1.0" encoding="utf-8"?>
<!-- Generator: Adobe Illustrator 18.0.0, SVG Export Plug-In . SVG Version: 6.00 Build 0)  -->
<!DOCTYPE svg PUBLIC "-//W3C//DTD SVG 1.1//EN" "http://www.w3.org/Graphics/SVG/1.1/DTD/svg11.dtd">
<svg version="1.1" id="Layer_1" xmlns="http://www.w3.org/2000/svg" xmlns:xlink="http://www.w3.org/1999/xlink" x="0px" y="0px"
	 viewBox="0 0 45 48" enable-background="new 0 0 45 48" xml:space="preserve">
<g>
	<defs>
		<path id="SVGID_1_" d="M39.9,0.5v43.2l-4.5,3.6c-0.2,0.1-0.4,0.1-0.6,0l-4.6-3.7l-4.6,3.7c-0.1,0.1-0.2,0.1-0.3,0.1
			c-0.1,0-0.2,0-0.3-0.1l-4.6-3.7l-4.6,3.7c-0.2,0.1-0.4,0.1-0.6,0l-4.6-3.7l-4.6,3.7c-0.2,0.1-0.4,0.1-0.6,0l-4.9-4
			c-0.1-0.1-0.1-0.1-0.1-0.2V0.5H39.9z"/>
	</defs>
	<clipPath id="SVGID_2_">
		<use xlink:href="#SVGID_1_"  overflow="visible"/>
	</clipPath>
	<rect x="-4.5" y="-4.5" clip-path="url(#SVGID_2_)" fill="#F6FBFF" width="49.4" height="57"/>
</g>
<g>
	<defs>
		<rect id="SVGID_3_" x="0" width="40.4" height="48"/>
	</defs>
	<clipPath id="SVGID_4_">
		<use xlink:href="#SVGID_3_"  overflow="visible"/>
	</clipPath>
	<g clip-path="url(#SVGID_4_)" enable-background="new    ">
		<g>
			<defs>
				<rect id="SVGID_5_" width="41" height="49"/>
			</defs>
			<clipPath id="SVGID_6_">
				<use xlink:href="#SVGID_5_"  overflow="visible"/>
			</clipPath>
			<g clip-path="url(#SVGID_6_)">
				<defs>
					<path id="SVGID_7_" d="M35.1,48c-0.2,0-0.5-0.1-0.6-0.2l-4.3-3.5l-4.2,3.5c-0.4,0.3-0.9,0.3-1.2,0l-4.3-3.5l-4.3,3.5
						c-0.3,0.3-0.9,0.3-1.2,0l-4.3-3.5l-4.3,3.5c-0.3,0.3-0.9,0.3-1.2,0l-4.9-4c-0.1-0.1-0.2-0.2-0.3-0.4c0-0.1,0-0.1,0-0.2V0.5
						C0,0.2,0.2,0,0.5,0h39.4c0.3,0,0.5,0.2,0.5,0.5v43.2c0,0.1-0.1,0.3-0.2,0.4l-4.5,3.6C35.5,47.9,35.3,48,35.1,48 M10.7,43.1
						c0.1,0,0.2,0,0.3,0.1l4.6,3.7l4.6-3.7c0.2-0.1,0.4-0.1,0.6,0l4.6,3.7l4.6-3.7c0.2-0.1,0.4-0.1,0.6,0l4.6,3.7l4.3-3.5V1H1v42
						L5.8,47l4.6-3.7C10.5,43.2,10.6,43.1,10.7,43.1"/>
				</defs>
				<clipPath id="SVGID_8_">
					<use xlink:href="#SVGID_7_"  overflow="visible"/>
				</clipPath>
				<g clip-path="url(#SVGID_8_)">
					<defs>
						<rect id="SVGID_9_" width="41" height="48"/>
					</defs>
					<clipPath id="SVGID_10_">
						<use xlink:href="#SVGID_9_"  overflow="visible"/>
					</clipPath>
					<rect x="-5" y="-5" clip-path="url(#SVGID_10_)" fill="#1DAFEC" width="50.4" height="58"/>
				</g>
			</g>
		</g>
	</g>
</g>
<g>
	<defs>
		<path id="SVGID_11_" d="M44.5,39.1c0,4.6-3.8,8.4-8.4,8.4c-4.7,0-8.4-3.8-8.4-8.4s3.8-8.4,8.4-8.4C40.7,30.8,44.5,34.5,44.5,39.1"
			/>
	</defs>
	<clipPath id="SVGID_12_">
		<use xlink:href="#SVGID_11_"  overflow="visible"/>
	</clipPath>
	<rect x="22.6" y="25.8" clip-path="url(#SVGID_12_)" fill="#FFFFFF" width="26.9" height="26.8"/>
</g>
<g>
	<defs>
		<rect id="SVGID_13_" x="27.2" y="30.3" width="17.8" height="17.7"/>
	</defs>
	<clipPath id="SVGID_14_">
		<use xlink:href="#SVGID_13_"  overflow="visible"/>
	</clipPath>
	<g clip-path="url(#SVGID_14_)" enable-background="new    ">
		<g>
			<defs>
				<rect id="SVGID_15_" x="27" y="30" width="18" height="18"/>
			</defs>
			<clipPath id="SVGID_16_">
				<use xlink:href="#SVGID_15_"  overflow="visible"/>
			</clipPath>
			<g clip-path="url(#SVGID_16_)">
				<defs>
					<path id="SVGID_17_" d="M36.1,48c-4.9,0-8.9-4-8.9-8.9c0-4.9,4-8.9,8.9-8.9s8.9,4,8.9,8.9C45,44,41,48,36.1,48 M36.1,31.2
						c-4.4,0-7.9,3.5-7.9,7.9c0,4.3,3.6,7.9,7.9,7.9s7.9-3.5,7.9-7.9C44,34.8,40.5,31.2,36.1,31.2"/>
				</defs>
				<clipPath id="SVGID_18_">
					<use xlink:href="#SVGID_17_"  overflow="visible"/>
				</clipPath>
				<g clip-path="url(#SVGID_18_)">
					<defs>
						<rect id="SVGID_19_" x="27" y="30" width="18" height="18"/>
					</defs>
					<clipPath id="SVGID_20_">
						<use xlink:href="#SVGID_19_"  overflow="visible"/>
					</clipPath>
					<rect x="22.2" y="25.3" clip-path="url(#SVGID_20_)" fill="#FFA500" width="27.8" height="27.7"/>
				</g>
			</g>
		</g>
	</g>
</g>
<g>
	<defs>
		<polyline id="SVGID_21_" points="32.4,39 35.4,41.9 40,36.8 		"/>
	</defs>
	<clipPath id="SVGID_22_">
		<use xlink:href="#SVGID_21_"  overflow="visible"/>
	</clipPath>
	<rect x="27.4" y="31.8" clip-path="url(#SVGID_22_)" fill="#FFFFFF" width="17.6" height="15.1"/>
</g>
<g>
	<defs>
		<path id="SVGID_23_" d="M35.4,42.4c-0.1,0-0.3-0.1-0.3-0.1l-3-2.9c-0.2-0.2-0.2-0.5,0-0.7c0.2-0.2,0.5-0.2,0.7,0l2.6,2.6l4.3-4.7
			c0.2-0.2,0.5-0.2,0.7,0c0.2,0.2,0.2,0.5,0,0.7l-4.6,5.1C35.7,42.3,35.6,42.4,35.4,42.4L35.4,42.4z"/>
	</defs>
	<clipPath id="SVGID_24_">
		<use xlink:href="#SVGID_23_"  overflow="visible"/>
	</clipPath>
	<rect x="26.9" y="31.3" clip-path="url(#SVGID_24_)" fill="#FFA500" width="18.6" height="16.1"/>
</g>
<g>
	<defs>
		<line id="SVGID_25_" x1="6.7" y1="12.2" x2="14.2" y2="12.2"/>
	</defs>
	<clipPath id="SVGID_26_">
		<use xlink:href="#SVGID_25_"  overflow="visible"/>
	</clipPath>
	<rect x="1.7" y="7.2" clip-path="url(#SVGID_26_)" fill="#F6FBFF" width="17.5" height="10"/>
</g>
<g>
	<defs>
		<path id="SVGID_27_" d="M14.2,12.7H6.7c-0.3,0-0.5-0.2-0.5-0.5c0-0.3,0.2-0.5,0.5-0.5h7.5c0.3,0,0.5,0.2,0.5,0.5
			C14.7,12.5,14.5,12.7,14.2,12.7"/>
	</defs>
	<clipPath id="SVGID_28_">
		<use xlink:href="#SVGID_27_"  overflow="visible"/>
	</clipPath>
	<rect x="1.2" y="6.7" clip-path="url(#SVGID_28_)" fill="#1DAFEC" width="18.5" height="11"/>
</g>
<g>
	<defs>
		<line id="SVGID_29_" x1="6.7" y1="17" x2="22.6" y2="17"/>
	</defs>
	<clipPath id="SVGID_30_">
		<use xlink:href="#SVGID_29_"  overflow="visible"/>
	</clipPath>
	<rect x="1.7" y="12" clip-path="url(#SVGID_30_)" fill="#F6FBFF" width="25.8" height="10"/>
</g>
<g>
	<defs>
		<path id="SVGID_31_" d="M22.6,17.5H6.7c-0.3,0-0.5-0.2-0.5-0.5c0-0.3,0.2-0.5,0.5-0.5h15.8c0.3,0,0.5,0.2,0.5,0.5
			C23.1,17.3,22.8,17.5,22.6,17.5"/>
	</defs>
	<clipPath id="SVGID_32_">
		<use xlink:href="#SVGID_31_"  overflow="visible"/>
	</clipPath>
	<rect x="1.2" y="11.5" clip-path="url(#SVGID_32_)" fill="#1DAFEC" width="26.8" height="11"/>
</g>
<g>
	<defs>
		<line id="SVGID_33_" x1="26.5" y1="17" x2="32.2" y2="17"/>
	</defs>
	<clipPath id="SVGID_34_">
		<use xlink:href="#SVGID_33_"  overflow="visible"/>
	</clipPath>
	<rect x="21.5" y="12" clip-path="url(#SVGID_34_)" fill="#F6FBFF" width="15.7" height="10"/>
</g>
<g>
	<defs>
		<path id="SVGID_35_" d="M32.2,17.5h-5.7c-0.3,0-0.5-0.2-0.5-0.5c0-0.3,0.2-0.5,0.5-0.5h5.7c0.3,0,0.5,0.2,0.5,0.5
			C32.7,17.3,32.4,17.5,32.2,17.5"/>
	</defs>
	<clipPath id="SVGID_36_">
		<use xlink:href="#SVGID_35_"  overflow="visible"/>
	</clipPath>
	<rect x="21" y="11.5" clip-path="url(#SVGID_36_)" fill="#1DAFEC" width="16.6" height="11"/>
</g>
<g>
	<defs>
		<line id="SVGID_37_" x1="6.7" y1="21.8" x2="22.6" y2="21.8"/>
	</defs>
	<clipPath id="SVGID_38_">
		<use xlink:href="#SVGID_37_"  overflow="visible"/>
	</clipPath>
	<rect x="1.7" y="16.8" clip-path="url(#SVGID_38_)" fill="#F6FBFF" width="25.8" height="10"/>
</g>
<g>
	<defs>
		<path id="SVGID_39_" d="M22.6,22.3H6.7c-0.3,0-0.5-0.2-0.5-0.5c0-0.3,0.2-0.5,0.5-0.5h15.8c0.3,0,0.5,0.2,0.5,0.5
			C23.1,22.1,22.8,22.3,22.6,22.3"/>
	</defs>
	<clipPath id="SVGID_40_">
		<use xlink:href="#SVGID_39_"  overflow="visible"/>
	</clipPath>
	<rect x="1.2" y="16.4" clip-path="url(#SVGID_40_)" fill="#1DAFEC" width="26.8" height="11"/>
</g>
<g>
	<defs>
		<line id="SVGID_41_" x1="26.5" y1="21.8" x2="32.2" y2="21.8"/>
	</defs>
	<clipPath id="SVGID_42_">
		<use xlink:href="#SVGID_41_"  overflow="visible"/>
	</clipPath>
	<rect x="21.5" y="16.8" clip-path="url(#SVGID_42_)" fill="#F6FBFF" width="15.7" height="10"/>
</g>
<g>
	<defs>
		<path id="SVGID_43_" d="M32.2,22.3h-5.7c-0.3,0-0.5-0.2-0.5-0.5c0-0.3,0.2-0.5,0.5-0.5h5.7c0.3,0,0.5,0.2,0.5,0.5
			C32.7,22.1,32.4,22.3,32.2,22.3"/>
	</defs>
	<clipPath id="SVGID_44_">
		<use xlink:href="#SVGID_43_"  overflow="visible"/>
	</clipPath>
	<rect x="21" y="16.4" clip-path="url(#SVGID_44_)" fill="#1DAFEC" width="16.6" height="11"/>
</g>
</svg>
