<?xml version="1.0" encoding="utf-8"?>
<!-- Generator: Adobe Illustrator 18.0.0, SVG Export Plug-In . SVG Version: 6.00 Build 0)  -->
<!DOCTYPE svg PUBLIC "-//W3C//DTD SVG 1.1//EN" "http://www.w3.org/Graphics/SVG/1.1/DTD/svg11.dtd">
<svg version="1.1" id="Layer_1" xmlns="http://www.w3.org/2000/svg" xmlns:xlink="http://www.w3.org/1999/xlink" x="0px" y="0px"
	 viewBox="0 0 37 51" enable-background="new 0 0 37 51" xml:space="preserve">
<g>
	<defs>
		<path id="SVGID_1_" d="M8.5,19v22c0,5.8,4.7,10.5,10.5,10.5h8c5.8,0,10.5-4.7,10.5-10.5V19c0-5.8-4.7-10.5-10.5-10.5h-8
			C13.2,8.5,8.5,13.2,8.5,19z M9.5,19c0-5.3,4.2-9.5,9.5-9.5h8c5.2,0,9.5,4.3,9.5,9.5v22c0,5.3-4.2,9.5-9.5,9.5h-8
			c-5.2,0-9.5-4.3-9.5-9.5V19z M-11.5-11.5h69v83h-69V-11.5z"/>
	</defs>
	<clipPath id="SVGID_2_">
		<use xlink:href="#SVGID_1_"  overflow="visible"/>
	</clipPath>
	<g clip-path="url(#SVGID_2_)">
		<defs>
			<path id="SVGID_3_" d="M9,19c0-5.5,4.5-10,10-10h8c5.5,0,10,4.5,10,10v22c0,5.5-4.5,10-10,10h-8c-5.5,0-10-4.5-10-10V19z"/>
		</defs>
		<clipPath id="SVGID_4_">
			<use xlink:href="#SVGID_3_"  overflow="visible"/>
		</clipPath>
		<g clip-path="url(#SVGID_4_)">
			<defs>
				<rect id="SVGID_5_" x="-174" y="-18" width="234" height="296"/>
			</defs>
			<clipPath id="SVGID_6_">
				<use xlink:href="#SVGID_5_"  overflow="visible"/>
			</clipPath>
			<path clip-path="url(#SVGID_6_)" fill="#F7FBFF" d="M9,19c0-5.5,4.5-10,10-10h8c5.5,0,10,4.5,10,10v22c0,5.5-4.5,10-10,10h-8
				c-5.5,0-10-4.5-10-10V19z"/>
		</g>
	</g>
</g>
<g>
	<defs>
		<path id="SVGID_7_" d="M9,19c0-5.5,4.5-10,10-10h8c5.5,0,10,4.5,10,10v22c0,5.5-4.5,10-10,10h-8c-5.5,0-10-4.5-10-10V19z"/>
	</defs>
	<clipPath id="SVGID_8_">
		<use xlink:href="#SVGID_7_"  overflow="visible"/>
	</clipPath>
	<g clip-path="url(#SVGID_8_)">
		<defs>
			<rect id="SVGID_9_" x="-174" y="-18" width="234" height="296"/>
		</defs>
		<clipPath id="SVGID_10_">
			<use xlink:href="#SVGID_9_"  overflow="visible"/>
		</clipPath>
		<path clip-path="url(#SVGID_10_)" fill="none" stroke="#1DAFEC" stroke-width="2" stroke-miterlimit="10" d="M9,19
			c0-5.5,4.5-10,10-10h8c5.5,0,10,4.5,10,10v22c0,5.5-4.5,10-10,10h-8c-5.5,0-10-4.5-10-10V19z"/>
	</g>
</g>
<g>
	<defs>
		<path id="SVGID_11_" d="M20.5,14v10c0,1.4,1.1,2.5,2.5,2.5c1.4,0,2.5-1.1,2.5-2.5V14c0-1.4-1.1-2.5-2.5-2.5
			C21.6,11.5,20.5,12.6,20.5,14z M21.5,14c0-0.8,0.7-1.5,1.5-1.5c0.8,0,1.5,0.7,1.5,1.5v10c0,0.8-0.7,1.5-1.5,1.5
			c-0.8,0-1.5-0.7-1.5-1.5V14z M0.5-8.5h45v55h-45V-8.5z"/>
	</defs>
	<clipPath id="SVGID_12_">
		<use xlink:href="#SVGID_11_"  overflow="visible"/>
	</clipPath>
	<g clip-path="url(#SVGID_12_)">
		<defs>
			<path id="SVGID_13_" d="M21,14c0-1.1,0.9-2,2-2c1.1,0,2,0.9,2,2v10c0,1.1-0.9,2-2,2c-1.1,0-2-0.9-2-2V14z"/>
		</defs>
		<clipPath id="SVGID_14_">
			<use xlink:href="#SVGID_13_"  overflow="visible"/>
		</clipPath>
		<g clip-path="url(#SVGID_14_)">
			<defs>
				<rect id="SVGID_15_" x="-174" y="-18" width="234" height="296"/>
			</defs>
			<clipPath id="SVGID_16_">
				<use xlink:href="#SVGID_15_"  overflow="visible"/>
			</clipPath>
			<path clip-path="url(#SVGID_16_)" fill="#F7FBFF" d="M21,14c0-1.1,0.9-2,2-2c1.1,0,2,0.9,2,2v10c0,1.1-0.9,2-2,2
				c-1.1,0-2-0.9-2-2V14z"/>
		</g>
	</g>
</g>
<g>
	<defs>
		<path id="SVGID_17_" d="M21,14c0-1.1,0.9-2,2-2c1.1,0,2,0.9,2,2v10c0,1.1-0.9,2-2,2c-1.1,0-2-0.9-2-2V14z"/>
	</defs>
	<clipPath id="SVGID_18_">
		<use xlink:href="#SVGID_17_"  overflow="visible"/>
	</clipPath>
	<g clip-path="url(#SVGID_18_)">
		<defs>
			<rect id="SVGID_19_" x="-174" y="-18" width="234" height="296"/>
		</defs>
		<clipPath id="SVGID_20_">
			<use xlink:href="#SVGID_19_"  overflow="visible"/>
		</clipPath>
		<path clip-path="url(#SVGID_20_)" fill="none" stroke="#1DAFEC" stroke-width="2" stroke-miterlimit="10" d="M21,14
			c0-1.1,0.9-2,2-2c1.1,0,2,0.9,2,2v10c0,1.1-0.9,2-2,2c-1.1,0-2-0.9-2-2V14z"/>
	</g>
</g>
<g>
	<defs>
		<path id="SVGID_21_" d="M13.5,16c0,1.4,1.1,2.5,2.5,2.5c1.4,0,2.5-1.1,2.5-2.5c0-1.4-1.1-2.5-2.5-2.5C14.6,13.5,13.5,14.6,13.5,16
			z M14.5,16c0-0.8,0.7-1.5,1.5-1.5c0.8,0,1.5,0.7,1.5,1.5c0,0.8-0.7,1.5-1.5,1.5C15.2,17.5,14.5,16.8,14.5,16z M-6.5-6.5h45v45h-45
			V-6.5z"/>
	</defs>
	<clipPath id="SVGID_22_">
		<use xlink:href="#SVGID_21_"  overflow="visible"/>
	</clipPath>
	<g clip-path="url(#SVGID_22_)">
		<defs>
			<path id="SVGID_23_" d="M14,16c0-1.1,0.9-2,2-2c1.1,0,2,0.9,2,2c0,1.1-0.9,2-2,2C14.9,18,14,17.1,14,16z"/>
		</defs>
		<clipPath id="SVGID_24_">
			<use xlink:href="#SVGID_23_"  overflow="visible"/>
		</clipPath>
		<g clip-path="url(#SVGID_24_)">
			<defs>
				<rect id="SVGID_25_" x="-174" y="-18" width="234" height="296"/>
			</defs>
			<clipPath id="SVGID_26_">
				<use xlink:href="#SVGID_25_"  overflow="visible"/>
			</clipPath>
			<path clip-path="url(#SVGID_26_)" fill="#FFA500" d="M14,16c0-1.1,0.9-2,2-2c1.1,0,2,0.9,2,2c0,1.1-0.9,2-2,2
				C14.9,18,14,17.1,14,16z"/>
		</g>
	</g>
</g>
<g>
	<defs>
		<path id="SVGID_27_" d="M14,16c0-1.1,0.9-2,2-2c1.1,0,2,0.9,2,2c0,1.1-0.9,2-2,2C14.9,18,14,17.1,14,16z"/>
	</defs>
	<clipPath id="SVGID_28_">
		<use xlink:href="#SVGID_27_"  overflow="visible"/>
	</clipPath>
	<g clip-path="url(#SVGID_28_)">
		<defs>
			<rect id="SVGID_29_" x="-174" y="-18" width="234" height="296"/>
		</defs>
		<clipPath id="SVGID_30_">
			<use xlink:href="#SVGID_29_"  overflow="visible"/>
		</clipPath>
		<path clip-path="url(#SVGID_30_)" fill="none" stroke="#FFA500" stroke-width="2" stroke-miterlimit="10" d="M14,16
			c0-1.1,0.9-2,2-2c1.1,0,2,0.9,2,2c0,1.1-0.9,2-2,2C14.9,18,14,17.1,14,16z"/>
	</g>
</g>
<g>
	<defs>
		<path id="SVGID_31_" d="M6.5,0.3C6.2,0.4,6.1,0.8,6.3,1l3.3,5.6C9.7,6.9,10,7,10.3,6.9c0.3-0.2,0.3-0.5,0.2-0.7L7.2,0.5
			C7.1,0.2,6.7,0.1,6.5,0.3z"/>
	</defs>
	<clipPath id="SVGID_32_">
		<use xlink:href="#SVGID_31_"  overflow="visible"/>
	</clipPath>
	<g clip-path="url(#SVGID_32_)">
		<defs>
			<rect id="SVGID_33_" x="-174" y="-18" width="234" height="296"/>
		</defs>
		<clipPath id="SVGID_34_">
			<use xlink:href="#SVGID_33_"  overflow="visible"/>
		</clipPath>
		
			<rect x="2.8" y="-5.2" transform="matrix(-0.866 0.5 -0.5 -0.866 17.4071 2.4686)" clip-path="url(#SVGID_34_)" fill="#1DAFEC" width="11.1" height="17.6"/>
	</g>
</g>
<g>
	<defs>
		<path id="SVGID_35_" d="M0.5,11.1c-0.2,0.1-0.3,0.3-0.3,0.5c0,0.3,0.2,0.5,0.5,0.5l6.5,0c0.3,0,0.5-0.2,0.5-0.5
			c0-0.3-0.2-0.5-0.5-0.5l-6.5,0C0.7,11,0.6,11,0.5,11.1z"/>
	</defs>
	<clipPath id="SVGID_36_">
		<use xlink:href="#SVGID_35_"  overflow="visible"/>
	</clipPath>
	<g clip-path="url(#SVGID_36_)">
		<defs>
			<rect id="SVGID_37_" x="-174" y="-18" width="234" height="296"/>
		</defs>
		<clipPath id="SVGID_38_">
			<use xlink:href="#SVGID_37_"  overflow="visible"/>
		</clipPath>
		
			<rect x="-4.4" y="4.4" transform="matrix(-0.866 0.5 -0.5 -0.866 13.1881 19.5402)" clip-path="url(#SVGID_38_)" fill="#1DAFEC" width="16.7" height="14.3"/>
	</g>
</g>
<g>
	<defs>
		<path id="SVGID_39_" d="M19.3,1.3c-0.1,0-0.1,0.1-0.2,0.2l-3.3,5.7c-0.2,0.3,0,0.6,0.2,0.7c0.3,0.2,0.6,0.1,0.7-0.2L20.1,2
			c0.2-0.3,0.1-0.6-0.2-0.7C19.7,1.2,19.5,1.2,19.3,1.3z"/>
	</defs>
	<clipPath id="SVGID_40_">
		<use xlink:href="#SVGID_39_"  overflow="visible"/>
	</clipPath>
	<g clip-path="url(#SVGID_40_)">
		<defs>
			<rect id="SVGID_41_" x="-174" y="-18" width="234" height="296"/>
		</defs>
		<clipPath id="SVGID_42_">
			<use xlink:href="#SVGID_41_"  overflow="visible"/>
		</clipPath>
		
			<rect x="9.6" y="-2.6" transform="matrix(-0.866 0.5 -0.5 -0.866 35.8878 -0.4723)" clip-path="url(#SVGID_42_)" fill="#1DAFEC" width="16.7" height="14.4"/>
	</g>
</g>
</svg>
