<?xml version="1.0" encoding="utf-8"?>
<!-- Generator: Adobe Illustrator 18.0.0, SVG Export Plug-In . SVG Version: 6.00 Build 0)  -->
<!DOCTYPE svg PUBLIC "-//W3C//DTD SVG 1.1//EN" "http://www.w3.org/Graphics/SVG/1.1/DTD/svg11.dtd">
<svg version="1.1" id="Layer_1" xmlns="http://www.w3.org/2000/svg" xmlns:xlink="http://www.w3.org/1999/xlink" x="0px" y="0px"
	 viewBox="0 0 34.5 40" enable-background="new 0 0 34.5 40" xml:space="preserve">
<g>
	<defs>
		<path id="SVGID_1_" d="M15.4,0.6L1.1,5.4C0.8,5.5,0.5,5.9,0.5,6.3v17.9c0,3.6,2.1,6.3,5,8.7c2.8,2.3,6.4,4.3,9.7,6.6
			c0.3,0.2,0.7,0.2,1.1,0c3.1-2.1,6.4-4.4,9.2-6.6c2.5-2.3,5.5-5,5.5-8.7V6.3c0-0.4-0.3-0.8-0.7-0.9L16,0.6c-0.1,0-0.2,0-0.3,0
			C15.5,0.6,15.4,0.6,15.4,0.6z"/>
	</defs>
	<clipPath id="SVGID_2_">
		<use xlink:href="#SVGID_1_"  overflow="visible"/>
	</clipPath>
	<g clip-path="url(#SVGID_2_)">
		<defs>
			<rect id="SVGID_3_" x="-123.5" y="-146.4" width="234" height="296"/>
		</defs>
		<clipPath id="SVGID_4_">
			<use xlink:href="#SVGID_3_"  overflow="visible"/>
		</clipPath>
		<rect x="-4.5" y="-4.4" clip-path="url(#SVGID_4_)" fill="#F6FBFF" width="40.4" height="49"/>
	</g>
</g>
<g>
	<defs>
		<rect id="SVGID_5_" x="-123.5" y="-146.4" width="234" height="296"/>
	</defs>
	<clipPath id="SVGID_6_">
		<use xlink:href="#SVGID_5_"  overflow="visible"/>
	</clipPath>
	<path clip-path="url(#SVGID_6_)" fill="none" stroke="#1DAFEC" stroke-miterlimit="10" d="M15.4,0.6L1.1,5.4
		C0.8,5.5,0.5,5.9,0.5,6.3v17.9c0,3.6,2.1,6.3,5,8.7c2.8,2.3,6.4,4.3,9.7,6.6c0.3,0.2,0.7,0.2,1.1,0c3.1-2.1,6.4-4.4,9.2-6.6
		c2.5-2.3,5.5-5,5.5-8.7V6.3c0-0.4-0.3-0.8-0.7-0.9L16,0.6c-0.1,0-0.2,0-0.3,0C15.5,0.6,15.4,0.6,15.4,0.6z"/>
</g>
<g>
	<defs>
		<circle id="SVGID_7_" cx="26.5" cy="27.6" r="8"/>
	</defs>
	<clipPath id="SVGID_8_">
		<use xlink:href="#SVGID_7_"  overflow="visible"/>
	</clipPath>
	<g clip-path="url(#SVGID_8_)">
		<defs>
			<rect id="SVGID_9_" x="-123.5" y="-146.4" width="234" height="296"/>
		</defs>
		<clipPath id="SVGID_10_">
			<use xlink:href="#SVGID_9_"  overflow="visible"/>
		</clipPath>
		<rect x="13.5" y="14.6" clip-path="url(#SVGID_10_)" fill="#FFFFFF" width="26" height="26"/>
	</g>
</g>
<g>
	<defs>
		<path id="SVGID_11_" d="M26.5,35.6c-4.4,0-8-3.6-8-8c0-4.4,3.6-8,8-8s8,3.6,8,8C34.5,32,30.9,35.6,26.5,35.6 M26.5,20.4
			c-3.9,0-7.1,3.2-7.1,7.1c0,3.9,3.2,7.1,7.1,7.1s7.1-3.2,7.1-7.1C33.6,23.6,30.4,20.4,26.5,20.4"/>
	</defs>
	<clipPath id="SVGID_12_">
		<use xlink:href="#SVGID_11_"  overflow="visible"/>
	</clipPath>
	<g clip-path="url(#SVGID_12_)">
		<defs>
			<rect id="SVGID_13_" x="-123.5" y="-146.4" width="234" height="296"/>
		</defs>
		<clipPath id="SVGID_14_">
			<use xlink:href="#SVGID_13_"  overflow="visible"/>
		</clipPath>
		<rect x="13.5" y="14.6" clip-path="url(#SVGID_14_)" fill="#FFA500" width="26" height="26"/>
	</g>
</g>
<g>
	<defs>
		<path id="SVGID_15_" d="M25.4,30.4L22.6,28c-0.2-0.2-0.2-0.4,0-0.6c0.2-0.2,0.5-0.2,0.6,0l2.4,2.1l4-4.8c0.2-0.2,0.5-0.2,0.6,0
			c0.2,0.1,0.2,0.4,0,0.6l-4.3,5.2c-0.1,0.1-0.2,0.1-0.3,0.1C25.6,30.6,25.5,30.5,25.4,30.4z"/>
	</defs>
	<clipPath id="SVGID_16_">
		<use xlink:href="#SVGID_15_"  overflow="visible"/>
	</clipPath>
	<g clip-path="url(#SVGID_16_)">
		<defs>
			<rect id="SVGID_17_" x="-123.5" y="-146.4" width="234" height="296"/>
		</defs>
		<clipPath id="SVGID_18_">
			<use xlink:href="#SVGID_17_"  overflow="visible"/>
		</clipPath>
		<rect x="17.5" y="19.6" clip-path="url(#SVGID_18_)" fill="#FFA500" width="18" height="16"/>
	</g>
</g>
</svg>
