<?xml version="1.0" encoding="utf-8"?>
<!-- Generator: Adobe Illustrator 18.0.0, SVG Export Plug-In . SVG Version: 6.00 Build 0)  -->
<!DOCTYPE svg PUBLIC "-//W3C//DTD SVG 1.1//EN" "http://www.w3.org/Graphics/SVG/1.1/DTD/svg11.dtd">
<svg version="1.1" id="Layer_1" xmlns="http://www.w3.org/2000/svg" xmlns:xlink="http://www.w3.org/1999/xlink" x="0px" y="0px"
	 viewBox="0 0 41 36" enable-background="new 0 0 41 36" xml:space="preserve">
<g>
	<defs>
		<path id="SVGID_1_" d="M-0.5,1v34c0,0.8,0.7,1.5,1.5,1.5h39c0.8,0,1.5-0.7,1.5-1.5V1c0-0.8-0.7-1.5-1.5-1.5H1
			C0.2-0.5-0.5,0.2-0.5,1z M0.5,1c0-0.3,0.2-0.5,0.5-0.5h39c0.3,0,0.5,0.2,0.5,0.5v34c0,0.3-0.2,0.5-0.5,0.5H1
			c-0.3,0-0.5-0.2-0.5-0.5V1z M-20.5-20.5h82v77h-82V-20.5z"/>
	</defs>
	<clipPath id="SVGID_2_">
		<use xlink:href="#SVGID_1_"  overflow="visible"/>
	</clipPath>
	<g clip-path="url(#SVGID_2_)">
		<defs>
			<path id="SVGID_3_" d="M0,1c0-0.6,0.4-1,1-1h39c0.5,0,1,0.5,1,1v34c0,0.6-0.4,1-1,1H1c-0.5,0-1-0.5-1-1V1z"/>
		</defs>
		<clipPath id="SVGID_4_">
			<use xlink:href="#SVGID_3_"  overflow="visible"/>
		</clipPath>
		<g clip-path="url(#SVGID_4_)">
			<defs>
				<rect id="SVGID_5_" x="-154" y="-90" width="234" height="296"/>
			</defs>
			<clipPath id="SVGID_6_">
				<use xlink:href="#SVGID_5_"  overflow="visible"/>
			</clipPath>
			<path clip-path="url(#SVGID_6_)" fill="#F7FBFF" d="M0,1c0-0.6,0.4-1,1-1h39c0.5,0,1,0.5,1,1v34c0,0.6-0.4,1-1,1H1
				c-0.5,0-1-0.5-1-1V1z"/>
		</g>
	</g>
</g>
<g>
	<defs>
		<path id="SVGID_7_" d="M0,1c0-0.6,0.4-1,1-1h39c0.5,0,1,0.5,1,1v34c0,0.6-0.4,1-1,1H1c-0.5,0-1-0.5-1-1V1z"/>
	</defs>
	<clipPath id="SVGID_8_">
		<use xlink:href="#SVGID_7_"  overflow="visible"/>
	</clipPath>
	<g clip-path="url(#SVGID_8_)">
		<defs>
			<rect id="SVGID_9_" x="-154" y="-90" width="234" height="296"/>
		</defs>
		<clipPath id="SVGID_10_">
			<use xlink:href="#SVGID_9_"  overflow="visible"/>
		</clipPath>
		<path clip-path="url(#SVGID_10_)" fill="none" stroke="#1DAFEC" stroke-width="2" stroke-miterlimit="10" d="M0,1c0-0.6,0.4-1,1-1
			h39c0.5,0,1,0.5,1,1v34c0,0.6-0.4,1-1,1H1c-0.5,0-1-0.5-1-1V1z"/>
	</g>
</g>
<g>
	<defs>
		<path id="SVGID_11_" d="M5.5,25v4c0,0.8,0.7,1.5,1.5,1.5c0.8,0,1.5-0.7,1.5-1.5v-4c0-0.8-0.7-1.5-1.5-1.5
			C6.2,23.5,5.5,24.2,5.5,25z M6.5,25c0-0.3,0.2-0.5,0.5-0.5c0.3,0,0.5,0.2,0.5,0.5v4c0,0.3-0.2,0.5-0.5,0.5c-0.3,0-0.5-0.2-0.5-0.5
			V25z M-14.5,3.5h43v47h-43V3.5z"/>
	</defs>
	<clipPath id="SVGID_12_">
		<use xlink:href="#SVGID_11_"  overflow="visible"/>
	</clipPath>
	<g clip-path="url(#SVGID_12_)">
		<defs>
			<path id="SVGID_13_" d="M6,25c0-0.5,0.4-1,1-1c0.6,0,1,0.5,1,1v4c0,0.5-0.4,1-1,1c-0.6,0-1-0.5-1-1V25z"/>
		</defs>
		<clipPath id="SVGID_14_">
			<use xlink:href="#SVGID_13_"  overflow="visible"/>
		</clipPath>
		<g clip-path="url(#SVGID_14_)">
			<defs>
				<rect id="SVGID_15_" x="-154" y="-90" width="234" height="296"/>
			</defs>
			<clipPath id="SVGID_16_">
				<use xlink:href="#SVGID_15_"  overflow="visible"/>
			</clipPath>
			<path clip-path="url(#SVGID_16_)" fill="#F6FBFF" d="M6,25c0-0.5,0.4-1,1-1c0.6,0,1,0.5,1,1v4c0,0.5-0.4,1-1,1c-0.6,0-1-0.5-1-1
				V25z"/>
		</g>
	</g>
</g>
<g>
	<defs>
		<path id="SVGID_17_" d="M6,25c0-0.5,0.4-1,1-1c0.6,0,1,0.5,1,1v4c0,0.5-0.4,1-1,1c-0.6,0-1-0.5-1-1V25z"/>
	</defs>
	<clipPath id="SVGID_18_">
		<use xlink:href="#SVGID_17_"  overflow="visible"/>
	</clipPath>
	<g clip-path="url(#SVGID_18_)">
		<defs>
			<rect id="SVGID_19_" x="-154" y="-90" width="234" height="296"/>
		</defs>
		<clipPath id="SVGID_20_">
			<use xlink:href="#SVGID_19_"  overflow="visible"/>
		</clipPath>
		<path clip-path="url(#SVGID_20_)" fill="none" stroke="#1DAFEC" stroke-width="2" stroke-miterlimit="10" d="M6,25
			c0-0.5,0.4-1,1-1c0.6,0,1,0.5,1,1v4c0,0.5-0.4,1-1,1c-0.6,0-1-0.5-1-1V25z"/>
	</g>
</g>
<g>
	<defs>
		<path id="SVGID_21_" d="M29.5,17v12c0,0.8,0.7,1.5,1.5,1.5c0.8,0,1.5-0.7,1.5-1.5V17c0-0.8-0.7-1.5-1.5-1.5
			C30.2,15.5,29.5,16.2,29.5,17z M30.5,17c0-0.3,0.2-0.5,0.5-0.5c0.3,0,0.5,0.2,0.5,0.5v12c0,0.3-0.2,0.5-0.5,0.5
			c-0.3,0-0.5-0.2-0.5-0.5V17z M9.5-4.5h43v55h-43V-4.5z"/>
	</defs>
	<clipPath id="SVGID_22_">
		<use xlink:href="#SVGID_21_"  overflow="visible"/>
	</clipPath>
	<g clip-path="url(#SVGID_22_)">
		<defs>
			<path id="SVGID_23_" d="M30,17c0-0.6,0.4-1,1-1c0.6,0,1,0.4,1,1v12c0,0.6-0.4,1-1,1c-0.6,0-1-0.4-1-1V17z"/>
		</defs>
		<clipPath id="SVGID_24_">
			<use xlink:href="#SVGID_23_"  overflow="visible"/>
		</clipPath>
		<g clip-path="url(#SVGID_24_)">
			<defs>
				<rect id="SVGID_25_" x="-154" y="-90" width="234" height="296"/>
			</defs>
			<clipPath id="SVGID_26_">
				<use xlink:href="#SVGID_25_"  overflow="visible"/>
			</clipPath>
			<path clip-path="url(#SVGID_26_)" fill="#F6FBFF" d="M30,17c0-0.6,0.4-1,1-1c0.6,0,1,0.4,1,1v12c0,0.6-0.4,1-1,1
				c-0.6,0-1-0.4-1-1V17z"/>
		</g>
	</g>
</g>
<g>
	<defs>
		<path id="SVGID_27_" d="M30,17c0-0.6,0.4-1,1-1c0.6,0,1,0.4,1,1v12c0,0.6-0.4,1-1,1c-0.6,0-1-0.4-1-1V17z"/>
	</defs>
	<clipPath id="SVGID_28_">
		<use xlink:href="#SVGID_27_"  overflow="visible"/>
	</clipPath>
	<g clip-path="url(#SVGID_28_)">
		<defs>
			<rect id="SVGID_29_" x="-154" y="-90" width="234" height="296"/>
		</defs>
		<clipPath id="SVGID_30_">
			<use xlink:href="#SVGID_29_"  overflow="visible"/>
		</clipPath>
		<path clip-path="url(#SVGID_30_)" fill="none" stroke="#1DAFEC" stroke-width="2" stroke-miterlimit="10" d="M30,17
			c0-0.6,0.4-1,1-1c0.6,0,1,0.4,1,1v12c0,0.6-0.4,1-1,1c-0.6,0-1-0.4-1-1V17z"/>
	</g>
</g>
<g>
	<defs>
		<path id="SVGID_31_" d="M8.5,19v10c0,0.8,0.7,1.5,1.5,1.5c0.8,0,1.5-0.7,1.5-1.5V19c0-0.8-0.7-1.5-1.5-1.5
			C9.2,17.5,8.5,18.2,8.5,19z M9.5,19c0-0.3,0.2-0.5,0.5-0.5c0.3,0,0.5,0.2,0.5,0.5v10c0,0.3-0.2,0.5-0.5,0.5
			c-0.3,0-0.5-0.2-0.5-0.5V19z M-11.5-2.5h43v53h-43V-2.5z"/>
	</defs>
	<clipPath id="SVGID_32_">
		<use xlink:href="#SVGID_31_"  overflow="visible"/>
	</clipPath>
	<g clip-path="url(#SVGID_32_)">
		<defs>
			<path id="SVGID_33_" d="M9,19c0-0.6,0.4-1,1-1c0.6,0,1,0.5,1,1v10c0,0.6-0.4,1-1,1c-0.6,0-1-0.5-1-1V19z"/>
		</defs>
		<clipPath id="SVGID_34_">
			<use xlink:href="#SVGID_33_"  overflow="visible"/>
		</clipPath>
		<g clip-path="url(#SVGID_34_)">
			<defs>
				<rect id="SVGID_35_" x="-154" y="-90" width="234" height="296"/>
			</defs>
			<clipPath id="SVGID_36_">
				<use xlink:href="#SVGID_35_"  overflow="visible"/>
			</clipPath>
			<path clip-path="url(#SVGID_36_)" fill="#F6FBFF" d="M9,19c0-0.6,0.4-1,1-1c0.6,0,1,0.5,1,1v10c0,0.6-0.4,1-1,1c-0.6,0-1-0.5-1-1
				V19z"/>
		</g>
	</g>
</g>
<g>
	<defs>
		<path id="SVGID_37_" d="M9,19c0-0.6,0.4-1,1-1c0.6,0,1,0.5,1,1v10c0,0.6-0.4,1-1,1c-0.6,0-1-0.5-1-1V19z"/>
	</defs>
	<clipPath id="SVGID_38_">
		<use xlink:href="#SVGID_37_"  overflow="visible"/>
	</clipPath>
	<g clip-path="url(#SVGID_38_)">
		<defs>
			<rect id="SVGID_39_" x="-154" y="-90" width="234" height="296"/>
		</defs>
		<clipPath id="SVGID_40_">
			<use xlink:href="#SVGID_39_"  overflow="visible"/>
		</clipPath>
		<path clip-path="url(#SVGID_40_)" fill="none" stroke="#1DAFEC" stroke-width="2" stroke-miterlimit="10" d="M9,19
			c0-0.6,0.4-1,1-1c0.6,0,1,0.5,1,1v10c0,0.6-0.4,1-1,1c-0.6,0-1-0.5-1-1V19z"/>
	</g>
</g>
<g>
	<defs>
		<path id="SVGID_41_" d="M32.5,23v6c0,0.8,0.7,1.5,1.5,1.5c0.8,0,1.5-0.7,1.5-1.5v-6c0-0.8-0.7-1.5-1.5-1.5
			C33.2,21.5,32.5,22.2,32.5,23z M33.5,23c0-0.3,0.2-0.5,0.5-0.5c0.3,0,0.5,0.2,0.5,0.5v6c0,0.3-0.2,0.5-0.5,0.5
			c-0.3,0-0.5-0.2-0.5-0.5V23z M12.5,1.5h43v49h-43V1.5z"/>
	</defs>
	<clipPath id="SVGID_42_">
		<use xlink:href="#SVGID_41_"  overflow="visible"/>
	</clipPath>
	<g clip-path="url(#SVGID_42_)">
		<defs>
			<path id="SVGID_43_" d="M33,23c0-0.6,0.4-1,1-1c0.6,0,1,0.5,1,1v6c0,0.6-0.4,1-1,1c-0.6,0-1-0.5-1-1V23z"/>
		</defs>
		<clipPath id="SVGID_44_">
			<use xlink:href="#SVGID_43_"  overflow="visible"/>
		</clipPath>
		<g clip-path="url(#SVGID_44_)">
			<defs>
				<rect id="SVGID_45_" x="-154" y="-90" width="234" height="296"/>
			</defs>
			<clipPath id="SVGID_46_">
				<use xlink:href="#SVGID_45_"  overflow="visible"/>
			</clipPath>
			<path clip-path="url(#SVGID_46_)" fill="#F6FBFF" d="M33,23c0-0.6,0.4-1,1-1c0.6,0,1,0.5,1,1v6c0,0.6-0.4,1-1,1c-0.6,0-1-0.5-1-1
				V23z"/>
		</g>
	</g>
</g>
<g>
	<defs>
		<path id="SVGID_47_" d="M33,23c0-0.6,0.4-1,1-1c0.6,0,1,0.5,1,1v6c0,0.6-0.4,1-1,1c-0.6,0-1-0.5-1-1V23z"/>
	</defs>
	<clipPath id="SVGID_48_">
		<use xlink:href="#SVGID_47_"  overflow="visible"/>
	</clipPath>
	<g clip-path="url(#SVGID_48_)">
		<defs>
			<rect id="SVGID_49_" x="-154" y="-90" width="234" height="296"/>
		</defs>
		<clipPath id="SVGID_50_">
			<use xlink:href="#SVGID_49_"  overflow="visible"/>
		</clipPath>
		<path clip-path="url(#SVGID_50_)" fill="none" stroke="#1DAFEC" stroke-width="2" stroke-miterlimit="10" d="M33,23
			c0-0.6,0.4-1,1-1c0.6,0,1,0.5,1,1v6c0,0.6-0.4,1-1,1c-0.6,0-1-0.5-1-1V23z"/>
	</g>
</g>
<g>
	<defs>
		<path id="SVGID_51_" d="M17.5,7v22c0,0.8,0.7,1.5,1.5,1.5c0.8,0,1.5-0.7,1.5-1.5V7c0-0.8-0.7-1.5-1.5-1.5
			C18.2,5.5,17.5,6.2,17.5,7z M18.5,7c0-0.3,0.2-0.5,0.5-0.5c0.3,0,0.5,0.2,0.5,0.5v22c0,0.3-0.2,0.5-0.5,0.5
			c-0.3,0-0.5-0.2-0.5-0.5V7z M-2.5-14.5h43v65h-43V-14.5z"/>
	</defs>
	<clipPath id="SVGID_52_">
		<use xlink:href="#SVGID_51_"  overflow="visible"/>
	</clipPath>
	<g clip-path="url(#SVGID_52_)">
		<defs>
			<path id="SVGID_53_" d="M18,7c0-0.6,0.4-1,1-1c0.6,0,1,0.4,1,1v22c0,0.6-0.4,1-1,1c-0.6,0-1-0.4-1-1V7z"/>
		</defs>
		<clipPath id="SVGID_54_">
			<use xlink:href="#SVGID_53_"  overflow="visible"/>
		</clipPath>
		<g clip-path="url(#SVGID_54_)">
			<defs>
				<rect id="SVGID_55_" x="-154" y="-90" width="234" height="296"/>
			</defs>
			<clipPath id="SVGID_56_">
				<use xlink:href="#SVGID_55_"  overflow="visible"/>
			</clipPath>
			<path clip-path="url(#SVGID_56_)" fill="#FFFFFF" d="M18,7c0-0.6,0.4-1,1-1c0.6,0,1,0.4,1,1v22c0,0.6-0.4,1-1,1c-0.6,0-1-0.4-1-1
				V7z"/>
		</g>
	</g>
</g>
<g>
	<defs>
		<path id="SVGID_57_" d="M18,7c0-0.6,0.4-1,1-1c0.6,0,1,0.4,1,1v22c0,0.6-0.4,1-1,1c-0.6,0-1-0.4-1-1V7z"/>
	</defs>
	<clipPath id="SVGID_58_">
		<use xlink:href="#SVGID_57_"  overflow="visible"/>
	</clipPath>
	<g clip-path="url(#SVGID_58_)">
		<defs>
			<rect id="SVGID_59_" x="-154" y="-90" width="234" height="296"/>
		</defs>
		<clipPath id="SVGID_60_">
			<use xlink:href="#SVGID_59_"  overflow="visible"/>
		</clipPath>
		<path clip-path="url(#SVGID_60_)" fill="none" stroke="#FFA500" stroke-width="2" stroke-miterlimit="10" d="M18,7
			c0-0.6,0.4-1,1-1c0.6,0,1,0.4,1,1v22c0,0.6-0.4,1-1,1c-0.6,0-1-0.4-1-1V7z"/>
	</g>
</g>
<g>
	<defs>
		<path id="SVGID_61_" d="M20.5,13v16c0,0.8,0.7,1.5,1.5,1.5c0.8,0,1.5-0.7,1.5-1.5V13c0-0.8-0.7-1.5-1.5-1.5
			C21.2,11.5,20.5,12.2,20.5,13z M21.5,13c0-0.3,0.2-0.5,0.5-0.5c0.3,0,0.5,0.2,0.5,0.5v16c0,0.3-0.2,0.5-0.5,0.5
			c-0.3,0-0.5-0.2-0.5-0.5V13z M0.5-8.5h43v59h-43V-8.5z"/>
	</defs>
	<clipPath id="SVGID_62_">
		<use xlink:href="#SVGID_61_"  overflow="visible"/>
	</clipPath>
	<g clip-path="url(#SVGID_62_)">
		<defs>
			<path id="SVGID_63_" d="M21,13c0-0.5,0.4-1,1-1c0.6,0,1,0.4,1,1v16c0,0.5-0.4,1-1,1c-0.6,0-1-0.4-1-1V13z"/>
		</defs>
		<clipPath id="SVGID_64_">
			<use xlink:href="#SVGID_63_"  overflow="visible"/>
		</clipPath>
		<g clip-path="url(#SVGID_64_)">
			<defs>
				<rect id="SVGID_65_" x="-154" y="-90" width="234" height="296"/>
			</defs>
			<clipPath id="SVGID_66_">
				<use xlink:href="#SVGID_65_"  overflow="visible"/>
			</clipPath>
			<path clip-path="url(#SVGID_66_)" fill="#F6FBFF" d="M21,13c0-0.5,0.4-1,1-1c0.6,0,1,0.4,1,1v16c0,0.5-0.4,1-1,1
				c-0.6,0-1-0.4-1-1V13z"/>
		</g>
	</g>
</g>
<g>
	<defs>
		<path id="SVGID_67_" d="M21,13c0-0.5,0.4-1,1-1c0.6,0,1,0.4,1,1v16c0,0.5-0.4,1-1,1c-0.6,0-1-0.4-1-1V13z"/>
	</defs>
	<clipPath id="SVGID_68_">
		<use xlink:href="#SVGID_67_"  overflow="visible"/>
	</clipPath>
	<g clip-path="url(#SVGID_68_)">
		<defs>
			<rect id="SVGID_69_" x="-154" y="-90" width="234" height="296"/>
		</defs>
		<clipPath id="SVGID_70_">
			<use xlink:href="#SVGID_69_"  overflow="visible"/>
		</clipPath>
		<path clip-path="url(#SVGID_70_)" fill="none" stroke="#1DAFEC" stroke-width="2" stroke-miterlimit="10" d="M21,13
			c0-0.5,0.4-1,1-1c0.6,0,1,0.4,1,1v16c0,0.5-0.4,1-1,1c-0.6,0-1-0.4-1-1V13z"/>
	</g>
</g>
</svg>
