<?xml version="1.0" encoding="utf-8"?>
<!-- Generator: Adobe Illustrator 18.0.0, SVG Export Plug-In . SVG Version: 6.00 Build 0)  -->
<!DOCTYPE svg PUBLIC "-//W3C//DTD SVG 1.1//EN" "http://www.w3.org/Graphics/SVG/1.1/DTD/svg11.dtd">
<svg version="1.1" id="Layer_1" xmlns="http://www.w3.org/2000/svg" xmlns:xlink="http://www.w3.org/1999/xlink" x="0px" y="0px"
	 viewBox="0 0 50 44.9" enable-background="new 0 0 50 44.9" xml:space="preserve">
<g>
	<defs>
		<path id="SVGID_1_" d="M45.4,40.7c0,2-1.8,3.7-4,3.7H4.5c-2.2,0-4-1.7-4-3.7V11.4c0-2,1.8-3.7,4-3.7h36.9c2.2,0,4,1.6,4,3.7V40.7z
			"/>
	</defs>
	<clipPath id="SVGID_2_">
		<use xlink:href="#SVGID_1_"  overflow="visible"/>
	</clipPath>
	<g clip-path="url(#SVGID_2_)">
		<defs>
			<rect id="SVGID_3_" x="-5" y="-8.6" width="60" height="61"/>
		</defs>
		<clipPath id="SVGID_4_">
			<use xlink:href="#SVGID_3_"  overflow="visible"/>
		</clipPath>
		<rect x="-4.5" y="2.7" clip-path="url(#SVGID_4_)" fill="#F6FBFF" width="54.9" height="46.7"/>
	</g>
</g>
<g>
	<defs>
		<path id="SVGID_5_" d="M41.4,44.9H4.5C2,44.9,0,43,0,40.7V11.4c0-2.3,2-4.2,4.5-4.2h36.9c2.5,0,4.5,1.9,4.5,4.2v29.3
			C45.9,43,43.9,44.9,41.4,44.9z M4.5,8.2C2.6,8.2,1,9.6,1,11.4v29.3c0,1.8,1.6,3.2,3.5,3.2h36.9c1.9,0,3.5-1.4,3.5-3.2V11.4
			c0-1.7-1.6-3.2-3.5-3.2H4.5z"/>
	</defs>
	<clipPath id="SVGID_6_">
		<use xlink:href="#SVGID_5_"  overflow="visible"/>
	</clipPath>
	<g clip-path="url(#SVGID_6_)">
		<defs>
			<rect id="SVGID_7_" x="-5" y="-8.6" width="60" height="61"/>
		</defs>
		<clipPath id="SVGID_8_">
			<use xlink:href="#SVGID_7_"  overflow="visible"/>
		</clipPath>
		<rect x="-5" y="2.2" clip-path="url(#SVGID_8_)" fill="#1DAFEC" width="55.9" height="47.7"/>
	</g>
</g>
<g>
	<defs>
		<path id="SVGID_9_" d="M41.2,21.2c-2.9,0-5.3,2-5.3,4.5v0.6c0,2.5,2.4,4.5,5.3,4.5h8.3v-9.6H41.2z"/>
	</defs>
	<clipPath id="SVGID_10_">
		<use xlink:href="#SVGID_9_"  overflow="visible"/>
	</clipPath>
	<g clip-path="url(#SVGID_10_)">
		<defs>
			<rect id="SVGID_11_" x="-5" y="-8.6" width="60" height="61"/>
		</defs>
		<clipPath id="SVGID_12_">
			<use xlink:href="#SVGID_11_"  overflow="visible"/>
		</clipPath>
		<rect x="30.9" y="16.2" clip-path="url(#SVGID_12_)" fill="#F6FBFF" width="23.6" height="19.6"/>
	</g>
</g>
<g>
	<defs>
		<path id="SVGID_13_" d="M49.5,31.3h-8.3c-3.2,0-5.8-2.2-5.8-5v-0.6c0-2.8,2.6-5,5.8-5h8.3c0.3,0,0.5,0.2,0.5,0.5v9.6
			C50,31.1,49.8,31.3,49.5,31.3z M41.2,21.7c-2.6,0-4.8,1.8-4.8,4v0.6c0,2.2,2.2,4,4.8,4H49v-8.6H41.2z"/>
	</defs>
	<clipPath id="SVGID_14_">
		<use xlink:href="#SVGID_13_"  overflow="visible"/>
	</clipPath>
	<g clip-path="url(#SVGID_14_)">
		<defs>
			<rect id="SVGID_15_" x="-5" y="-8.6" width="60" height="61"/>
		</defs>
		<clipPath id="SVGID_16_">
			<use xlink:href="#SVGID_15_"  overflow="visible"/>
		</clipPath>
		<rect x="30.4" y="15.7" clip-path="url(#SVGID_16_)" fill="#1DAFEC" width="24.6" height="20.6"/>
	</g>
</g>
<g>
	<defs>
		<path id="SVGID_17_" d="M42.8,25.9c0,0.8-0.6,1.4-1.4,1.4c-0.8,0-1.4-0.6-1.4-1.4c0-0.8,0.6-1.4,1.4-1.4
			C42.2,24.5,42.8,25.1,42.8,25.9"/>
	</defs>
	<clipPath id="SVGID_18_">
		<use xlink:href="#SVGID_17_"  overflow="visible"/>
	</clipPath>
	<g clip-path="url(#SVGID_18_)">
		<defs>
			<rect id="SVGID_19_" x="-5" y="-8.6" width="60" height="61"/>
		</defs>
		<clipPath id="SVGID_20_">
			<use xlink:href="#SVGID_19_"  overflow="visible"/>
		</clipPath>
		<rect x="35" y="19.5" clip-path="url(#SVGID_20_)" fill="#1DAFEC" width="12.8" height="12.8"/>
	</g>
</g>
<g>
	<defs>
		<path id="SVGID_21_" d="M40.7,11.3H13.8c0.1-0.1,0.2-0.2,0.3-0.3l1.4-0.8L33,0.7c0.7-0.4,1.7-0.1,2.2,0.7
			C35.2,1.3,40.7,11.3,40.7,11.3"/>
	</defs>
	<clipPath id="SVGID_22_">
		<use xlink:href="#SVGID_21_"  overflow="visible"/>
	</clipPath>
	<g clip-path="url(#SVGID_22_)">
		<defs>
			<rect id="SVGID_23_" x="-5" y="-8.6" width="60" height="61"/>
		</defs>
		<clipPath id="SVGID_24_">
			<use xlink:href="#SVGID_23_"  overflow="visible"/>
		</clipPath>
		<rect x="8.8" y="-4.5" clip-path="url(#SVGID_24_)" fill="#FFFFFF" width="36.9" height="20.8"/>
	</g>
</g>
<g>
	<defs>
		<rect id="SVGID_25_" x="12.6" y="0" width="28.6" height="11.8"/>
	</defs>
	<clipPath id="SVGID_26_">
		<use xlink:href="#SVGID_25_"  overflow="visible"/>
	</clipPath>
	<g clip-path="url(#SVGID_26_)">
		<defs>
			<rect id="SVGID_27_" x="-5" y="-8.6" width="60" height="61"/>
		</defs>
		<clipPath id="SVGID_28_">
			<use xlink:href="#SVGID_27_"  overflow="visible"/>
		</clipPath>
		<g clip-path="url(#SVGID_28_)" enable-background="new    ">
			<g>
				<defs>
					<rect id="SVGID_29_" x="12" y="-0.6" width="30" height="13"/>
				</defs>
				<clipPath id="SVGID_30_">
					<use xlink:href="#SVGID_29_"  overflow="visible"/>
				</clipPath>
				<g clip-path="url(#SVGID_30_)">
					<defs>
						<path id="SVGID_31_" d="M40.7,11.8H12.6l0.8-0.9c0.1-0.1,0.3-0.2,0.5-0.3L32.8,0.2c1-0.5,2.3-0.1,2.8,0.9
							c5.7,10.2,5.7,10.2,5.5,10.5L41,11.8H40.7z M15.7,10.8h24.2c-1.1-1.9-3.9-7-5.1-9.2c-0.3-0.5-1-0.7-1.5-0.5L15.7,10.8z"/>
					</defs>
					<clipPath id="SVGID_32_">
						<use xlink:href="#SVGID_31_"  overflow="visible"/>
					</clipPath>
					<g clip-path="url(#SVGID_32_)">
						<defs>
							<rect id="SVGID_33_" x="12" y="-0.6" width="30" height="13"/>
						</defs>
						<clipPath id="SVGID_34_">
							<use xlink:href="#SVGID_33_"  overflow="visible"/>
						</clipPath>
						<rect x="7.6" y="-5" clip-path="url(#SVGID_34_)" fill="#FFA500" width="38.6" height="21.8"/>
					</g>
				</g>
			</g>
		</g>
	</g>
</g>
<g>
	<defs>
		<path id="SVGID_35_" d="M45.9,11.3c0,0.3-0.2,0.5-0.5,0.5H9.5c-0.3,0-0.5-0.2-0.5-0.5s0.2-0.5,0.5-0.5h35.9
			C45.7,10.8,45.9,11,45.9,11.3"/>
	</defs>
	<clipPath id="SVGID_36_">
		<use xlink:href="#SVGID_35_"  overflow="visible"/>
	</clipPath>
	<g clip-path="url(#SVGID_36_)">
		<defs>
			<rect id="SVGID_37_" x="-5" y="-8.6" width="60" height="61"/>
		</defs>
		<clipPath id="SVGID_38_">
			<use xlink:href="#SVGID_37_"  overflow="visible"/>
		</clipPath>
		<rect x="4" y="5.8" clip-path="url(#SVGID_38_)" fill="#1DAFEC" width="46.9" height="11"/>
	</g>
</g>
</svg>
