<?xml version="1.0" encoding="utf-8"?>
<!-- Generator: Adobe Illustrator 18.0.0, SVG Export Plug-In . SVG Version: 6.00 Build 0)  -->
<!DOCTYPE svg PUBLIC "-//W3C//DTD SVG 1.1//EN" "http://www.w3.org/Graphics/SVG/1.1/DTD/svg11.dtd">
<svg version="1.1" id="Capa_1" xmlns="http://www.w3.org/2000/svg" xmlns:xlink="http://www.w3.org/1999/xlink" x="0px" y="0px"
	 viewBox="122.8 0 366.3 792" enable-background="new 122.8 0 366.3 792" xml:space="preserve">
<g>
	<path id="Facebook" fill="#3B5998" d="M202,157.5c0,19.7,0,108.2,0,108.2h-79.2v132.8H202V792h163.4V398.5h108.9
		c0,0,9.9-63.9,14.9-132.8c-14.9,0-123.8,0-123.8,0s0-78.7,0-93.5c0-14.8,14.9-34.4,34.6-34.4c19.8,0,54.4,0,89.1,0
		c0-14.8,0-78.7,0-137.7C444.6,5,390.1,5,370.3,5C197.1,5,202,137.8,202,157.5z"/>
</g>
</svg>
