<?xml version="1.0" encoding="utf-8"?>
<!-- Generator: Adobe Illustrator 18.0.0, SVG Export Plug-In . SVG Version: 6.00 Build 0)  -->
<!DOCTYPE svg PUBLIC "-//W3C//DTD SVG 1.1//EN" "http://www.w3.org/Graphics/SVG/1.1/DTD/svg11.dtd">
<svg version="1.1" id="Capa_1" xmlns="http://www.w3.org/2000/svg" xmlns:xlink="http://www.w3.org/1999/xlink" x="0px" y="0px"
	 viewBox="0 147.4 612 497.3" enable-background="new 0 147.4 612 497.3" xml:space="preserve">
<g>
	<g>
		<path fill="#1DA1F2" d="M612,204.8c-19.1,11.5-42.1,19.1-68.8,19.1c26.8-15.3,45.9-38.3,53.5-68.8c-23,15.3-49.7,22.9-80.3,30.6
			c-23-22.9-53.5-38.3-88-38.3c-68.8,0-126.2,53.6-126.2,126.2c0,7.6,0,19.1,3.8,26.8c-103.3-3.8-195.1-53.6-260.1-130.1
			c-11.5,19.1-15.3,38.3-15.3,61.2c0,42.1,22.9,80.3,53.5,103.3c-19.1,0-38.3-3.8-57.4-15.3l0,0c0,61.2,42.1,110.9,99.4,122.4
			c-7.6,7.7-19.1,7.7-30.6,7.7c-7.7,0-15.3,0-23,0c15.3,49.7,61.2,84.1,114.8,88c-42.1,34.4-95.6,53.5-156.8,53.5
			c-7.6,0-19.1,0-30.6,0c57.4,34.4,126.2,53.6,195.1,53.6c229.5,0,351.9-191.3,351.9-351.9v-19.1C577.6,250.7,600.5,231.5,612,204.8
			z"/>
	</g>
</g>
</svg>
