<?xml version="1.0" encoding="utf-8"?>
<!-- Generator: Adobe Illustrator 21.0.0, SVG Export Plug-In . SVG Version: 6.00 Build 0)  -->
<svg version="1.1" id="Layer_1" xmlns="http://www.w3.org/2000/svg" xmlns:xlink="http://www.w3.org/1999/xlink" x="0px" y="0px"
	 viewBox="0 0 90.6 68.2" enable-background="new 0 0 90.6 68.2" xml:space="preserve">
<g opacity="0.8">
	<path fill="#F4F8FC" d="M90.2,48.9c0,6.2-5,11.2-11.2,11.2H11.4c-6.2,0-11.2-5-11.2-11.2V11.5c0-6.2,5-11.2,11.2-11.2H79
		c6.2,0,11.2,5,11.2,11.2V48.9z"/>
</g>
<g>
	<path fill="none" stroke="#1DAFEC" stroke-linecap="round" stroke-linejoin="round" stroke-miterlimit="10" d="M90.1,48.7
		c0,6.2-5,11.2-11.2,11.2H11.7c-6.2,0-11.2-5-11.2-11.2V11.8c0-6.2,5-11.2,11.2-11.2h67.2c6.2,0,11.2,5,11.2,11.2V48.7z"/>
</g>
<path opacity="0.25" fill="#1DAFEC" enable-background="new    " d="M15.6,60.4h-3.4c-6.2,0-11.2-5-11.2-11.2V12.3
	c0-6.2,5-11.2,11.2-11.2h3.4c-6.2,0-11.2,5-11.2,11.2v36.9C4.4,55.4,9.5,60.4,15.6,60.4z"/>
<path opacity="0.25" fill="#1DAFEC" enable-background="new    " d="M89.5,11.2v36.9c0,6.2-5,11.2-11.2,11.2h-3.4
	c6.2,0,11.2-5,11.2-11.2V11.2C86.1,5,81.1,0,74.9,0h3.4C84.5,0,89.5,5,89.5,11.2z"/>
<rect x="35.2" y="59.9" fill="#F4F9FD" stroke="#1DAFEC" stroke-miterlimit="10" width="21.3" height="7.8"/>
<line fill="none" stroke="#1DAFEC" stroke-linecap="round" stroke-linejoin="round" stroke-miterlimit="10" x1="27.9" y1="67.7" x2="61.5" y2="67.7"/>
<circle fill="#FFFFFF" stroke="#1DAFEC" stroke-miterlimit="10" cx="44.9" cy="31.9" r="14.9"/>
<rect x="34.6" y="60.4" opacity="0.25" fill="#1DAFEC" enable-background="new    " width="22.4" height="2.2"/>
<polygon fill="none" stroke="#1DAFEC" stroke-linecap="round" stroke-linejoin="round" stroke-miterlimit="10" points="51.9,32.6 
	40.8,39 40.8,26.2 "/>
<polygon opacity="0.25" fill="#1DAFEC" enable-background="new    " points="50.3,33.1 41.4,38.3 41.4,28 "/>
</svg>
