<?xml version="1.0" encoding="utf-8"?>
<!-- Generator: Adobe Illustrator 21.0.0, SVG Export Plug-In . SVG Version: 6.00 Build 0)  -->
<svg version="1.1" id="Layer_1" xmlns="http://www.w3.org/2000/svg" xmlns:xlink="http://www.w3.org/1999/xlink" height='53' width='50' x="0px" y="0px"
	 viewBox="0 0 86.6 91" enable-background="new 0 0 86.6 91" xml:space="preserve">
<path fill="#F4F9FD" d="M43.3,0.5L7.9,36.3v27v19.5c0,3.8,3.6,6.9,7.4,6.9h16.4v-1.3V74.2c0-1.9,2.5-2.9,4.5-2.9h18.3
	c1.9,0,2.4,0.9,2.4,2.9v14.3v1.3h16.8c3.8,0,5.7-3,5.7-6.9V66.1v-29L43.3,0.5z"/>
<path opacity="0.25" fill="#1DAFEC" enable-background="new    " d="M15.5,85.9h16.3v4H15.5c-3.8,0-8.9-4-8.9-7.8v-4.4
	C6.6,81.5,11.6,85.9,15.5,85.9z"/>
<path opacity="0.25" fill="#1DAFEC" enable-background="new    " d="M79.5,77.6V82c0,3.8-1.7,7.8-5.6,7.8H57v-4h17
	C77.8,85.9,79.5,81.5,79.5,77.6z"/>
<path fill="none" stroke="#1DAFEC" stroke-linecap="round" stroke-linejoin="round" stroke-miterlimit="10" d="M43.3,0.5L7.3,36.3
	v27v19.5c0,3.8,3.6,7.6,7.4,7.6h16.4v-2V74.2c0-1.9,2.5-3.6,4.4-3.6h18.3c1.9,0,2.5,1.6,2.5,3.6v14.3v2H73c3.8,0,7.2-3.7,7.2-7.6
	V66.1v-29L43.3,0.5z"/>
<line fill="none" stroke="#1DAFEC" stroke-linecap="round" stroke-linejoin="round" stroke-miterlimit="10" x1="7.3" y1="36.3" x2="0.5" y2="43"/>
<line fill="none" stroke="#1DAFEC" stroke-linecap="round" stroke-linejoin="round" stroke-miterlimit="10" x1="80" y1="37" x2="86.1" y2="43"/>
</svg>
