<?xml version="1.0" encoding="utf-8"?>
<!-- Generator: Adobe Illustrator 21.0.0, SVG Export Plug-In . SVG Version: 6.00 Build 0)  -->
<svg version="1.1" id="Layer_1" xmlns="http://www.w3.org/2000/svg" xmlns:xlink="http://www.w3.org/1999/xlink" x="0px" y="0px"
	 viewBox="0 0 91 90.1" enable-background="new 0 0 91 90.1" xml:space="preserve">
<path fill="#F4F9FD" d="M82,77.7c-1.2,2.8-3.4,6.9-8.7,9.6c-1.8,0.9-3.9,1.5-6.3,2.1c-9.7,1.9-27.9-7.9-28-7.9S24.4,74.1,11,54.8
	C11,54.6,4.3,44.4,1,32c-0.4-1.6-0.6-3.3-0.4-4.9c0.3-3.3,1.3-9.4,4.9-12.6c1.8-1.6,3.3-2.8,5.1-3.6c2.5-1.2,4-1.2,4.2-1.3
	c0,0,3.4-0.3,7.3,3s8.1,7.9,8.5,8.2c0.3,0.4,4.9,6.9,0.4,13.2c-1.9,2.5-3.7,4.5-5.8,5.4c-1.6,0.7-2.7,0.7-2.7,0.7
	c-0.3,0-0.3,0-0.6,0.1c-0.1,0.1-0.1,0.3-0.1,0.6c0.1,0.4,2.1,10.8,11.4,18.9c9.1,7.9,16.9,9.3,17.4,9.3c0.3,0.1,0.6-0.1,0.7-0.4
	c0,0,1.3-4.9,4-7.2c1.6-1.5,2.8-2.4,4.3-3.1c1.3-0.6,2.7-0.9,4.3-0.9c3.6,0.1,5.1,0.6,6.3,1.6c1.2,1.2,10,10,10.6,10.5
	C80.8,70.2,83.5,73.8,82,77.7z"/>
<path opacity="0.25" fill="#1DAFEC" enable-background="new    " d="M70.1,88.6c-17.5,3.1-31-7.3-31.2-7.3
	c-0.1,0-14.5-7.3-27.9-26.7c0-0.1-6.7-10.3-10-22.8c-0.4-1.6-0.6-3.3-0.4-4.9c0.3-3,1.2-8.1,3.9-11.4c-1.2,2.8-1.8,6.1-1.9,8.2
	c-0.1,1.6,0,3.3,0.4,4.9c3.1,12.4,9.9,22.8,10,22.8C26.3,70.8,40.7,78,40.9,78.2C49,84,70.1,88.6,70.1,88.6z"/>
<path fill="#FFFFFF" d="M19.1,14.7c-3.9-3.3-7.3-3-7.3-3c-0.1,0-1.6,0-4.2,1.2c-0.4,0.3-1,0.6-1.5,0.9c1.5-1.3,3-2.2,4.5-3.1
	c2.5-1,4-1,4.2-1.2c0,0,3.4-0.3,7.3,3c3.7,3.3,8.1,7.9,8.5,8.2c0.3,0.4,4.9,6.9,0.4,13.2c-1.8,2.5-3.7,4.3-5.7,5.4
	c0.9-0.9,1.8-1.9,2.7-3.1c4.5-6.3,0-12.7-0.4-13.2C27.2,22.8,22.9,18.2,19.1,14.7z"/>
<path fill="#FFFFFF" d="M82,77.7c-1,2.5-3,6.3-7.3,8.8c2.4-2.2,3.7-4.6,4.5-6.6c1.5-3.9-1.2-7.5-1.3-8.1c-0.4-0.6-9.3-9.3-10.6-10.5
	c-1.2-1-2.7-1.5-6.3-1.6c-1.5,0-3,0.3-4.3,0.9c-0.3,0.1-0.4,0.3-0.7,0.4c1.3-1.2,2.4-1.9,3.6-2.5c1.3-0.6,2.7-0.9,4.3-0.9
	c3.6,0.1,5.1,0.6,6.3,1.6c1.2,1.2,10,10,10.6,10.5C80.8,70.2,83.5,73.8,82,77.7z"/>
<path fill="none" stroke="#1DAFEC" stroke-linecap="round" stroke-linejoin="round" stroke-miterlimit="10" d="M82,77.7
	c-1.2,2.8-3.4,6.9-8.7,9.6c-1.8,0.9-3.9,1.5-6.3,2.1c-9.7,1.9-27.9-7.9-28-7.9S24.4,74.1,11,54.8C11,54.6,4.3,44.4,1,32
	c-0.4-1.6-0.6-3.3-0.4-4.9c0.3-3.3,1.3-9.4,4.9-12.6c1.8-1.6,3.3-2.8,5.1-3.6c2.5-1.2,4-1.2,4.2-1.3c0,0,3.4-0.3,7.3,3
	s8.1,7.9,8.5,8.2c0.3,0.4,4.9,6.9,0.4,13.2c-1.9,2.5-3.7,4.5-5.8,5.4c-1.6,0.7-2.7,0.7-2.7,0.7c-0.3,0-0.3,0-0.6,0.1
	c-0.1,0.1-0.1,0.3-0.1,0.6c0.1,0.4,2.1,10.8,11.4,18.9c9.1,7.9,16.9,9.3,17.4,9.3c0.3,0.1,0.6-0.1,0.7-0.4c0,0,1.3-4.9,4-7.2
	c1.6-1.5,2.8-2.4,4.3-3.1c1.3-0.6,2.7-0.9,4.3-0.9c3.6,0.1,5.1,0.6,6.3,1.6c1.2,1.2,10,10,10.6,10.5C80.8,70.2,83.5,73.8,82,77.7z"
	/>
<path fill="none" stroke="#1DAFEC" stroke-linecap="round" stroke-linejoin="round" stroke-miterlimit="10" d="M51.8,0.5
	c20.4-0.1,37.3,15.7,38.7,36.1"/>
<line fill="none" stroke="#1DAFEC" stroke-linecap="round" stroke-linejoin="round" stroke-miterlimit="10" x1="67.6" y1="37.7" x2="67.6" y2="37.7"/>
<line fill="none" stroke="#1DAFEC" stroke-linecap="round" stroke-linejoin="round" stroke-miterlimit="10" x1="67.6" y1="37.7" x2="67.6" y2="37.7"/>
<path fill="none" stroke="#1DAFEC" stroke-linecap="round" stroke-linejoin="round" stroke-miterlimit="10" d="M52.4,12
	c13.9,0.1,25.6,10.9,26.7,25"/>
<path fill="none" stroke="#1DAFEC" stroke-linecap="round" stroke-linejoin="round" stroke-miterlimit="10" d="M53,23.7
	c7.5,0.4,13.8,6.3,14.5,13.9"/>
<line fill="none" stroke="#1DAFEC" stroke-linecap="round" stroke-linejoin="round" stroke-miterlimit="10" x1="67.6" y1="37.7" x2="67.6" y2="37.7"/>
</svg>
