<?xml version="1.0" encoding="utf-8"?>
<!-- Generator: Adobe Illustrator 21.0.0, SVG Export Plug-In . SVG Version: 6.00 Build 0)  -->
<svg version="1.1" id="Layer_1" xmlns="http://www.w3.org/2000/svg" xmlns:xlink="http://www.w3.org/1999/xlink" x="0px" y="0px"
	 viewBox="0 0 54.8 90.6" enable-background="new 0 0 54.8 90.6" xml:space="preserve">
<path fill="#F4F8FC" stroke="#1DAFEC" stroke-width="0.75" stroke-linecap="round" stroke-linejoin="round" stroke-miterlimit="10" d="
	M49.9,49.8c0,0-1.6,0-2.4,0c-0.9-4.2-4.8-5.8-4.8-5.8s1.3-10.8,2-16.3c1.2-6,5.2-11.2,5.2-11.2S49.9,49.8,49.9,49.8z M49.9,67.8
	H39.8c0,0,0-3.7-1-6.8c1,0,7.2-0.9,8.5-6.8h2.4v13.6H49.9z M29.8,67.7c0,0,0.2-4.8,4.7-5.6c0.4,1.2,0.8,2.7,0.8,5.6H29.8z
	 M29.8,81.4c0-2.4,0-9.2,0-9.2h4.7C34.5,72.2,33.9,77.6,29.8,81.4z M27.5,61.3c0,0-3.9-2.7-5.1-3.5c3.2-4.8,5.1-12.2,5.1-12.2
	s2,7.4,5.1,12.2C31.4,58.6,27.5,61.3,27.5,61.3z M19.7,67.7c0-2.7,0.3-4.3,0.8-5.6c4.6,0.8,4.7,5.6,4.7,5.6H19.7z M25.2,81.4
	c-4.2-3.8-4.6-9.2-4.6-9.2h4.6C25.2,72.2,25.2,79,25.2,81.4z M15.1,67.8H5V54.3h2.4c1.3,5.9,7.5,6.8,8.5,6.8
	C15.1,64.1,15.1,67.8,15.1,67.8z M5,16.6c0,0,4.2,5.1,5.2,11.2c0.7,5.6,2,16.3,2,16.3s-3.9,1.6-4.8,5.8c-0.8,0-2.4,0-2.4,0
	S5,16.6,5,16.6z M39.9,27.3c-1.6,14.1-2.3,20.3-2.3,20.3s0.3-0.1,1.1-0.1c0.8,0,4.5,1,4.5,4.4s-3.1,4.6-4.5,4.6s-1.5-0.2-1.5-0.2
	s-7-9.7-7-24.3c0-9.3,0.7-17.8,0.7-22.6c0-0.9,0-5.4-3.3-9c-3.3,3.6-3.3,8.1-3.3,9c0,4.8,0.7,13.3,0.7,22.6c0,14.5-7,24.3-7,24.3
	s-0.1,0.2-1.5,0.2c-1.4,0-4.5-1.2-4.5-4.6c0-3.4,3.8-4.4,4.5-4.4c0.8,0,1.1,0.1,1.1,0.1s-0.7-6.2-2.3-20.3
	C11.8,12.2,0.4,6.9,0.4,6.9v65.3h15.1c0,0,1.1,9.2,9.2,15.1c0,0,2.5,2.2,2.7,3c0.1-0.8,2.7-3,2.7-3c8.1-5.9,9.2-15.1,9.2-15.1h15.1
	V6.9C54.5,6.9,43.1,12.2,39.9,27.3z"/>
<path opacity="0.25" fill="#1DAFEC" enable-background="new    " d="M0,6.9l0.2,65.5l15.4,0.1c0,0,1.1,9.2,9.2,15
	c0,0,2.6,2.2,2.7,2.8c0.1-0.7,2.7-3,2.7-3c3-2.1,4.9-4.7,6.3-7.1c-1.3,1.9-3.1,3.8-5.2,5.5c0,0-2.5,2.2-2.6,3c-0.1-0.7-2.7-3-2.7-3
	c-8.1-5.9-9.2-15.1-9.2-15.1H2.2V8.2C-0.2,7,0,6.9,0,6.9z"/>
<path opacity="0.25" fill="#1DAFEC" enable-background="new    " d="M15.1,56.4c0.9,0.4,1.7,0.7,2.4,0.7c1.5,0,1.6-0.2,1.6-0.2
	s7.2-9.7,7.2-24.3c0-9.3-0.7-17.8-0.7-22.6c0-0.8,0-4.9,3-8.4c-0.3-0.4-0.5-0.8-0.9-1.1c-3.4,3.6-3.4,8.1-3.4,9
	c0,4.8,0.7,13.3,0.7,22.6c0,14.7-7.2,24.3-7.2,24.3s-0.1,0.2-1.6,0.2C15.8,56.5,15.4,56.5,15.1,56.4z"/>
</svg>
