<?xml version="1.0" encoding="utf-8"?>
<!-- Generator: Adobe Illustrator 21.0.0, SVG Export Plug-In . SVG Version: 6.00 Build 0)  -->
<svg version="1.1" id="Layer_1" height='54' width='62' xmlns="http://www.w3.org/2000/svg" xmlns:xlink="http://www.w3.org/1999/xlink" x="0px" y="0px"
	 viewBox="0 0 91 87.9" enable-background="new 0 0 91 87.9" xml:space="preserve">
<path fill="#F4F9FD" d="M55.2,36.7C55.2,56.2,47,73,36.7,73c-0.4,0-0.9,0-1.2-0.1c9.6-1.2,17.2-17.5,17.2-36.1S45.1,1.9,35.5,0.6
	c0.4,0,0.9-0.1,1.2-0.1C47,0.5,55.2,17.2,55.2,36.7z"/>
<path fill="#F4F9FD" d="M38,72.9c-0.4,0-0.9,0.1-1.2,0.1c-10.2,0-18.5-16.7-18.5-36.2S26.5,0.5,36.7,0.5c0.4,0,0.9,0,1.2,0.1
	c-9.6,1.2-17.2,17.5-17.2,36.1S28.4,71.6,38,72.9z"/>
<path fill="#F4F9FD" d="M73,36.7C73,56.7,56.7,73,36.7,73c-0.7,0-1.4,0-2.1-0.1c19-1.1,36.2-16.7,36.2-36
	c0-19.4-17.1-35.2-36.2-36.4c0.6,0,1.4-0.1,2.1-0.1C56.7,0.5,73,16.7,73,36.7z"/>
<path fill="#F4F9FD" d="M38.9,72.9c-0.6,0-1.4,0.1-2.1,0.1c-20,0-36.2-16.2-36.2-36.2S16.7,0.5,36.7,0.5c0.7,0,1.4,0,2.1,0.1
	C19.7,1.6,3,17.4,3,36.7S19.7,71.9,38.9,72.9z"/>
<g>
	<circle opacity="0.7" fill="#F4F8FC" enable-background="new    " cx="36.7" cy="36.7" r="36.2"/>
	
		<circle fill="none" stroke="#1DAFEC" stroke-linecap="round" stroke-linejoin="round" stroke-miterlimit="10" cx="36.7" cy="36.7" r="36.2"/>
	<path fill="none" stroke="#1DAFEC" stroke-linecap="round" stroke-linejoin="round" stroke-miterlimit="10" d="M55.2,36.7
		C55.2,56.2,47,73,36.7,73S18.2,56.2,18.2,36.7S26.5,0.5,36.7,0.5S55.2,17.2,55.2,36.7z"/>
	<path fill="none" stroke="#1DAFEC" stroke-linecap="round" stroke-linejoin="round" stroke-miterlimit="10" d="M10.4,12.4
		c0,0,9.7,12.4,26.4,12.4s26.9-12.4,26.9-12.4"/>
	<path fill="none" stroke="#1DAFEC" stroke-linecap="round" stroke-linejoin="round" stroke-miterlimit="10" d="M10.4,61.4
		c0,0,9.7-12.4,26.4-12.4s26.9,12.4,26.9,12.4"/>
	
		<line fill="none" stroke="#1DAFEC" stroke-linecap="round" stroke-linejoin="round" stroke-miterlimit="10" x1="0.5" y1="35.9" x2="73" y2="35.9"/>
	
		<line fill="none" stroke="#1DAFEC" stroke-linecap="round" stroke-linejoin="round" stroke-miterlimit="10" x1="36.2" y1="1" x2="36.2" y2="72.9"/>
</g>
<g>
	<path fill="#FFFFFF" stroke="#1DAFEC" stroke-linecap="round" stroke-linejoin="round" stroke-miterlimit="10" d="M40.6,53.5v21.1
		v0.7c0,3.7,7.5,6.2,16.6,6.2s16.9-2.9,16.9-6.6l0.1-0.4l-0.7-21.2"/>
	<path fill="none" stroke="#1DAFEC" stroke-linecap="round" stroke-linejoin="round" stroke-miterlimit="10" d="M40.6,68.7
		c0,3.7,7.9,6.5,17,6.5s16.6-3,16.6-6.7"/>
	<path fill="none" stroke="#1DAFEC" stroke-linecap="round" stroke-linejoin="round" stroke-miterlimit="10" d="M40.6,61.1
		c0,3.7,7.9,6.9,17,6.9s16.6-3,16.6-6.6"/>
	<path opacity="0.25" fill="#1DAFEC" enable-background="new    " d="M73.5,74.1v0.5c0,3.7-7.1,6.7-16.2,6.7s-16.5-2.9-16.5-6.6
		l0.1-0.5c2,3,8.4,5.1,16.4,5.1C65.1,79.2,73.5,77.1,73.5,74.1z"/>
	<path opacity="0.25" fill="#1DAFEC" enable-background="new    " d="M73.5,68v0.5c0,3.7-7.1,6.7-16.2,6.7s-16.5-2.9-16.5-6.6
		l0.1-0.5c2,3,8.4,5.1,16.4,5.1C65.1,73.2,73.5,71,73.5,68z"/>
	<path opacity="0.25" fill="#1DAFEC" enable-background="new    " d="M73.5,60.5V61c0,3.7-7.1,6.7-16.2,6.7s-16.5-2.9-16.5-6.6
		l0.1-0.5c2,3,8.4,5.1,16.4,5.1C65.1,65.6,73.5,63.4,73.5,60.5z"/>
	<path fill="#FFFFFF" d="M74.1,53.6c0,3.7-7.4,6.7-16.6,6.7s-16.9-3-16.9-6.7c0-3.7,7.6-6.7,16.9-6.7S74.1,49.9,74.1,53.6z"/>
	<path fill="#FFFFFF" d="M74.1,53.6c0,2.4-2.9,4.4-7.4,5.6c3-1.2,4.9-2.9,4.9-4.7c0-3.7-7.4-6.7-16.6-6.7c-3.5,0-6.7,0.4-9.4,1.1
		c3-1.2,7.2-2,11.9-2C66.7,46.9,74.1,49.9,74.1,53.6z"/>
	<path opacity="0.25" fill="#1DAFEC" enable-background="new    " d="M40.6,53.6c0,3.7,7.5,6.7,16.7,6.7c4.6,0,8.7-0.7,11.7-1.9
		c-2.6,0.7-5.9,1.1-9.4,1.1c-9.2,0-16.7-3-16.7-6.7c0-1.9,1.9-3.6,5-4.7C43.5,49.2,40.6,51.4,40.6,53.6z"/>
	<path fill="none" stroke="#1DAFEC" stroke-linecap="round" stroke-linejoin="round" stroke-miterlimit="10" d="M74.1,53.6
		c0,3.7-7.4,6.7-16.6,6.7s-16.9-3-16.9-6.7c0-3.7,7.6-6.7,16.9-6.7S74.1,49.9,74.1,53.6z"/>
	<circle fill="#FFFFFF" cx="74.7" cy="71.6" r="15.7"/>
	<path fill="#FFFFFF" d="M88.6,64.6C84.5,57,75,54.1,67.4,58.2c-0.4,0.1-0.6,0.4-1,0.6c7.4-3.4,16.2-0.4,20.2,6.9
		c3.9,7.2,1.5,16.2-5.4,20.6c0.4-0.1,0.7-0.4,1-0.5C89.9,81.7,92.7,72.2,88.6,64.6z"/>
	<path opacity="0.25" fill="#1DAFEC" enable-background="new    " d="M60.9,79.4C65,87,74.5,89.9,82.1,85.7c0.4-0.1,0.6-0.4,1-0.6
		c-7.4,3.4-16.2,0.4-20.2-6.9C59,71,61.4,62,68.2,57.6c-0.4,0.1-0.7,0.4-1,0.5C59.6,62.2,56.9,71.7,60.9,79.4z"/>
	
		<circle fill="none" stroke="#1DAFEC" stroke-linecap="round" stroke-linejoin="round" stroke-miterlimit="10" cx="74.7" cy="71.6" r="15.7"/>
</g>
</svg>
